<svg width="1440" height="443" fill="none" xmlns="http://www.w3.org/2000/svg"><g clip-path="url(#clip0_113_1530)"><g filter="url(#filter0_n_113_1530)"><path d="M2163.22 389.214c-11.5-.235-22.99-.706-34.47-1.412a803.11 803.11 0 01-34.3-2.874 763.466 763.466 0 01-34.29-4.394 742.854 742.854 0 01-34.21-5.982 702.672 702.672 0 01-33.96-7.641 685.845 685.845 0 01-33.64-9.347 664.308 664.308 0 01-33.21-11.122 636.78 636.78 0 01-32.72-12.956 626.146 626.146 0 01-32.15-14.859 611.518 611.518 0 01-31.26-16.663 607.545 607.545 0 01-30.76-18.802 597.402 597.402 0 01-29.93-20.881 599.321 599.321 0 01-29.03-23.019c-9.61-8.111-19.02-16.585-28.27-25.323-9.33-8.788-18.51-17.831-27.62-27.001-9.12-9.171-18.17-18.459-27.22-27.747-9.04-9.278-18.08-18.546-27.2-27.697-9.08-9.102-18.25-18.076-27.56-26.795-9.31-8.71-18.76-17.164-28.44-25.206-9.66-8.033-19.54-15.683-29.66-22.764-9.8-6.846-19.83-13.162-30.11-18.822a306.86 306.86 0 00-62.44-25.942 302.868 302.868 0 00-32.33-7.502 296.574 296.574 0 00-32.8-3.865c-8.26-.52-16.52-.696-24.77-.53l-185.19 3.689c8.26-.167 16.52.01 24.77.53 10.97.686 21.92 1.96 32.8 3.863a302.25 302.25 0 0132.33 7.503 306.056 306.056 0 0131.66 11.132 308.682 308.682 0 0130.78 14.81c10.27 5.66 20.31 11.976 30.11 18.821 10.13 7.082 20.01 14.722 29.67 22.764 9.66 8.043 19.13 16.497 28.43 25.207 9.32 8.709 18.48 17.693 27.56 26.795 9.12 9.15 18.17 18.429 27.21 27.697 9.05 9.288 18.09 18.576 27.21 27.746 9.11 9.171 18.29 18.213 27.62 27.001 9.27 8.729 18.67 17.213 28.27 25.324a599.321 599.321 0 0029.03 23.019 597.402 597.402 0 0029.93 20.881 619.757 619.757 0 0030.77 18.802 607.833 607.833 0 0031.25 16.663 630.101 630.101 0 0032.15 14.859 646.04 646.04 0 0032.72 12.956 655.575 655.575 0 0033.22 11.122 667.742 667.742 0 0033.63 9.347 706.858 706.858 0 0033.96 7.64 741.513 741.513 0 0034.21 5.983 776.351 776.351 0 0034.3 4.394 805.646 805.646 0 0034.29 2.874c11.48.706 22.98 1.177 34.47 1.412 11.83.245 23.67.226 35.49 0l185.19-3.688c-11.83.236-23.66.255-35.49 0z" fill="url(#paint0_linear_113_1530)"/></g><g filter="url(#filter1_n_113_1530)"><path d="M687.918 438.338a347.876 347.876 0 01-33.462-2.55 379.838 379.838 0 01-33.351-5.639 408.242 408.242 0 01-33.196-8.592c-11.017-3.334-21.947-7.14-32.775-11.367a476.631 476.631 0 01-32.156-13.976 504.055 504.055 0 01-31.28-16.35 532.022 532.022 0 01-30.378-18.645c-10.286-6.806-20.409-13.966-30.403-21.44a739.08 739.08 0 01-29.707-23.45c-9.754-8.101-19.352-16.487-28.822-25.108-9.453-8.602-18.751-17.448-27.937-26.501-9.221-9.092-18.304-18.409-27.276-27.884a1348.978 1348.978 0 01-26.63-29.021 1625.258 1625.258 0 01-26.047-29.963 2005.43 2005.43 0 01-25.436-30.6 2636.265 2636.265 0 01-25.144-31.366c-8.319-10.524-16.577-21.136-24.809-31.787a6026.887 6026.887 0 01-24.56-32.042c-8.138-10.7-16.259-21.41-24.379-32.13L-45 23.633c8.12 10.71 16.233 21.43 24.38 32.13 8.154 10.71 16.335 21.4 24.56 32.042a3533.177 3533.177 0 0024.808 31.788 2635.343 2635.343 0 0025.144 31.365c8.405 10.298 16.869 20.518 25.437 30.6a1627.129 1627.129 0 0026.046 29.963 1349.532 1349.532 0 0026.631 29.022 1120.034 1120.034 0 0027.275 27.883 955.76 955.76 0 0027.937 26.501 834.233 834.233 0 0028.822 25.108 745.784 745.784 0 0029.707 23.451c9.995 7.473 20.118 14.633 30.404 21.44a528.293 528.293 0 0030.377 18.644 506.94 506.94 0 0031.28 16.35 470.03 470.03 0 0032.156 13.976 439.152 439.152 0 0032.775 11.368 409.631 409.631 0 0033.197 8.591 379.385 379.385 0 0033.35 5.64 354.638 354.638 0 0033.463 2.55c2.672.078 5.336.118 8.009.127 2.672.01 5.336 0 8.009-.059l185.187-3.687c-5.337.108-10.673.078-16.01-.069l-.026-.02z" fill="url(#paint1_linear_113_1530)"/></g><g filter="url(#filter2_n_113_1530)"><path d="M1171.12 3.835a302.064 302.064 0 00-42.64 3.894 305.011 305.011 0 00-32.3 7.071 306.805 306.805 0 00-31.56 10.583 313.493 313.493 0 00-30.81 14.192 322.305 322.305 0 00-29.56 17.673 351.892 351.892 0 00-7.072 4.895c-.791.568-1.573 1.157-2.372 1.726-1.538 1.118-3.085 2.226-4.615 3.374-.06.049-.12.088-.189.137-1.443 1.079-2.861 2.197-4.288 3.305-.739.569-1.478 1.128-2.208 1.707a390.171 390.171 0 00-6.609 5.325c-8.541 7.042-16.86 14.496-24.98 22.284-8.155 7.817-16.104 15.957-23.89 24.343-7.828 8.425-15.485 17.114-23.013 25.971-7.519 8.856-14.909 17.87-22.222 27.011-7.365 9.199-14.643 18.507-21.888 27.854-7.261 9.357-14.479 18.753-21.706 28.148-7.193 9.328-14.394 18.645-21.664 27.874-7.279 9.249-14.617 18.41-22.068 27.433-7.416 8.974-14.944 17.801-22.635 26.422-7.605 8.523-15.365 16.84-23.314 24.853-7.974 8.043-16.138 15.781-24.525 23.137a442.643 442.643 0 01-5.964 5.12c-.644.549-1.297 1.079-1.95 1.618a331.99 331.99 0 01-4.091 3.374c-.782.628-1.564 1.245-2.346 1.873-1.263 1.001-2.518 2.001-3.79 2.991-.825.648-1.658 1.276-2.492 1.913a330.166 330.166 0 01-5.156 3.874c-9.126 6.699-18.484 12.878-28.074 18.458a289.645 289.645 0 01-30.91 15.575 287.864 287.864 0 01-31.744 11.544 294.333 294.333 0 01-32.38 7.719 309.825 309.825 0 01-32.99 4.08 327.69 327.69 0 01-16.138.726l185.187-3.688a316.74 316.74 0 0016.138-.726 309.856 309.856 0 0032.99-4.08 294.822 294.822 0 0032.38-7.719 289.24 289.24 0 0031.743-11.543 288.824 288.824 0 0030.911-15.575c9.59-5.581 18.948-11.76 28.074-18.459 1.083-.794 2.157-1.598 3.24-2.403.644-.48 1.28-.98 1.916-1.471a600.27 600.27 0 002.492-1.912 228.056 228.056 0 003.79-2.992c.782-.627 1.564-1.245 2.346-1.873a270.864 270.864 0 004.09-3.374c.653-.539 1.306-1.079 1.951-1.618a448.928 448.928 0 005.964-5.12c8.387-7.356 16.551-15.094 24.525-23.136 7.958-8.013 15.717-16.34 23.314-24.854 7.682-8.621 15.21-17.448 22.635-26.422a1464.823 1464.823 0 0022.067-27.432c7.27-9.23 14.47-18.547 21.66-27.874 7.24-9.386 14.45-18.782 21.71-28.149 7.25-9.356 14.53-18.664 21.89-27.854 7.31-9.131 14.7-18.154 22.22-27.011 7.53-8.856 15.19-17.546 23.01-25.971 7.79-8.395 15.74-16.536 23.89-24.343 8.12-7.787 16.44-15.251 24.98-22.283 2.19-1.805 4.4-3.58 6.61-5.326a324.8 324.8 0 012.19-1.687c1.5-1.157 2.99-2.325 4.5-3.452 1.53-1.148 3.07-2.256 4.61-3.374.79-.57 1.58-1.167 2.37-1.726a334.57 334.57 0 017.08-4.895A324.55 324.55 0 011219 35.898a311.391 311.391 0 0130.81-14.192c10.38-4.12 20.92-7.65 31.56-10.583a307.869 307.869 0 0132.29-7.071A301.978 301.978 0 011346.42.52c3.29-.177 6.59-.294 9.88-.363l-185.18 3.688v-.01z" fill="#044396"/></g></g><defs><filter id="filter0_n_113_1530" x="1175.68" y=".008" width="1023.03" height="393.071" filterUnits="userSpaceOnUse" color-interpolation-filters="sRGB"><feFlood flood-opacity="0" result="BackgroundImageFix"/><feBlend in="SourceGraphic" in2="BackgroundImageFix" result="shape"/><feTurbulence type="fractalNoise" baseFrequency="1 1" stitchTiles="stitch" numOctaves="3" result="noise" seed="5530"/><feColorMatrix in="noise" type="luminanceToAlpha" result="alphaNoise"/><feComponentTransfer in="alphaNoise" result="coloredNoise1"><feFuncA type="discrete" tableValues="1 1 1 1 1 1 1 1 1 1 1 1 1 1 1 1 1 1 1 1 1 1 1 1 1 1 1 1 1 1 1 1 1 1 1 1 1 1 1 1 1 1 1 1 1 1 1 1 1 1 1 0 0 0 0 0 0 0 0 0 0 0 0 0 0 0 0 0 0 0 0 0 0 0 0 0 0 0 0 0 0 0 0 0 0 0 0 0 0 0 0 0 0 0 0 0 0 0 0 0"/></feComponentTransfer><feComposite operator="in" in2="shape" in="coloredNoise1" result="noise1Clipped"/><feFlood flood-color="rgba(0, 0, 0, 0.15)" result="color1Flood"/><feComposite operator="in" in2="noise1Clipped" in="color1Flood" result="color1"/><feMerge result="effect1_noise_113_1530"><feMergeNode in="shape"/><feMergeNode in="color1"/></feMerge></filter><filter id="filter1_n_113_1530" x="-45" y="19.926" width="748.954" height="422.25" filterUnits="userSpaceOnUse" color-interpolation-filters="sRGB"><feFlood flood-opacity="0" result="BackgroundImageFix"/><feBlend in="SourceGraphic" in2="BackgroundImageFix" result="shape"/><feTurbulence type="fractalNoise" baseFrequency="1 1" stitchTiles="stitch" numOctaves="3" result="noise" seed="5530"/><feColorMatrix in="noise" type="luminanceToAlpha" result="alphaNoise"/><feComponentTransfer in="alphaNoise" result="coloredNoise1"><feFuncA type="discrete" tableValues="1 1 1 1 1 1 1 1 1 1 1 1 1 1 1 1 1 1 1 1 1 1 1 1 1 1 1 1 1 1 1 1 1 1 1 1 1 1 1 1 1 1 1 1 1 1 1 1 1 1 1 0 0 0 0 0 0 0 0 0 0 0 0 0 0 0 0 0 0 0 0 0 0 0 0 0 0 0 0 0 0 0 0 0 0 0 0 0 0 0 0 0 0 0 0 0 0 0 0 0"/></feComponentTransfer><feComposite operator="in" in2="shape" in="coloredNoise1" result="noise1Clipped"/><feFlood flood-color="rgba(0, 0, 0, 0.15)" result="color1Flood"/><feComposite operator="in" in2="noise1Clipped" in="color1Flood" result="color1"/><feMerge result="effect1_noise_113_1530"><feMergeNode in="shape"/><feMergeNode in="color1"/></feMerge></filter><filter id="filter2_n_113_1530" x="526.967" y=".157" width="829.336" height="441.755" filterUnits="userSpaceOnUse" color-interpolation-filters="sRGB"><feFlood flood-opacity="0" result="BackgroundImageFix"/><feBlend in="SourceGraphic" in2="BackgroundImageFix" result="shape"/><feTurbulence type="fractalNoise" baseFrequency="1 1" stitchTiles="stitch" numOctaves="3" result="noise" seed="5530"/><feColorMatrix in="noise" type="luminanceToAlpha" result="alphaNoise"/><feComponentTransfer in="alphaNoise" result="coloredNoise1"><feFuncA type="discrete" tableValues="1 1 1 1 1 1 1 1 1 1 1 1 1 1 1 1 1 1 1 1 1 1 1 1 1 1 1 1 1 1 1 1 1 1 1 1 1 1 1 1 1 1 1 1 1 1 1 1 1 1 1 0 0 0 0 0 0 0 0 0 0 0 0 0 0 0 0 0 0 0 0 0 0 0 0 0 0 0 0 0 0 0 0 0 0 0 0 0 0 0 0 0 0 0 0 0 0 0 0 0"/></feComponentTransfer><feComposite operator="in" in2="shape" in="coloredNoise1" result="noise1Clipped"/><feFlood flood-color="rgba(0, 0, 0, 0.1)" result="color1Flood"/><feComposite operator="in" in2="noise1Clipped" in="color1Flood" result="color1"/><feMerge result="effect1_noise_113_1530"><feMergeNode in="shape"/><feMergeNode in="color1"/></feMerge></filter><linearGradient id="paint0_linear_113_1530" x1="1825.5" y1="215.5" x2="1428.57" y2="71.55" gradientUnits="userSpaceOnUse"><stop stop-color="#fff" stop-opacity="0"/><stop offset="1" stop-color="#D2D7DD"/></linearGradient><linearGradient id="paint1_linear_113_1530" x1="142" y1="205.313" x2="486.496" y2="437.69" gradientUnits="userSpaceOnUse"><stop stop-color="#fff" stop-opacity="0"/><stop offset="1" stop-color="#D2D7DD"/></linearGradient><clipPath id="clip0_113_1530"><path fill="#fff" transform="translate(-45)" d="M0 0h2244v443H0z"/></clipPath></defs></svg>