<svg width="125" height="116" viewBox="0 0 125 116" fill="none" xmlns="http://www.w3.org/2000/svg">
<g clip-path="url(#clip0_0_50)">
<path d="M86.4242 0L5.68179 90.8595H0.619385L78.0505 3.72417H3.26003V0H86.4288H86.4242ZM125 0H96.344L15.6017 90.8595H121.041V87.1353H47.5689L125 0Z" fill="url(#paint0_linear_0_50)"/>
<path d="M78.3997 4.03197L79.0844 3.2666L78.0505 3.72396L0.619385 90.8593L1.65795 90.3926L78.3997 4.03197Z" fill="url(#paint1_linear_0_50)"/>
<path d="M3.72573 0.466688L3.26001 0V3.72417L3.72573 3.25748V0.466688Z" fill="url(#paint2_linear_0_50)"/>
<path d="M79.089 3.25732H78.0504H3.72573L3.26001 3.72401H78.0504L79.0843 3.26666L79.089 3.25732Z" fill="url(#paint3_linear_0_50)"/>
<path d="M85.3763 0.466688L86.4241 0H3.26001L3.72573 0.466688H85.3763Z" fill="url(#paint4_linear_0_50)"/>
<path d="M1.65795 90.3931L0.619385 90.8598H5.68179L5.47222 90.3931H1.65795Z" fill="url(#paint5_linear_0_50)"/>
<path d="M85.3764 0.466688H85.3857L5.47229 90.3928L5.68187 90.8595L86.4242 0L85.3764 0.466688Z" fill="url(#paint6_linear_0_50)"/>
<path d="M120.576 90.3927L121.041 90.8594V87.1353L120.576 87.6019V90.3927Z" fill="url(#paint7_linear_0_50)"/>
<path d="M16.6402 90.3931L15.6017 90.8598H121.041L120.576 90.3931H16.6402Z" fill="url(#paint8_linear_0_50)"/>
<path d="M46.5304 87.6019H47.569H120.576L121.041 87.1353H47.569L46.5304 87.6019Z" fill="url(#paint9_linear_0_50)"/>
<path d="M123.961 0.466688L125 0H96.3441L96.5537 0.466688H123.961Z" fill="url(#paint10_linear_0_50)"/>
<path d="M96.5536 0.466688L96.344 0L15.6017 90.8595L16.6402 90.3928L96.5536 0.466688Z" fill="url(#paint11_linear_0_50)"/>
<path d="M47.2197 86.8226L46.5304 87.602L47.569 87.1353L125 0L123.961 0.466688L47.2197 86.8226Z" fill="url(#paint12_linear_0_50)"/>
<path d="M15.7228 101.36L5.21144 113.191H15.108V115.529H0L10.5114 103.698H0.619411V101.356H15.7228V101.36ZM36.0609 100.459L30.8681 110.801L25.6753 100.459L22.4385 115.533H24.8277L26.5648 107.441C27.5568 109.42 29.7224 113.723 30.8635 116L35.1714 107.441L36.9085 115.533H39.2977L36.0609 100.459ZM55.761 108.379C55.761 112.561 52.3659 115.963 48.193 115.963C44.0201 115.963 40.625 112.561 40.625 108.379C40.625 104.198 44.0201 100.795 48.193 100.795C52.3659 100.795 55.761 104.198 55.761 108.379ZM53.4231 108.379C53.4231 105.486 51.0758 103.134 48.1883 103.134C45.3009 103.134 42.9536 105.486 42.9536 108.379C42.9536 111.273 45.3009 113.625 48.1883 113.625C51.0758 113.625 53.4231 111.273 53.4231 108.379ZM66.4913 108.01C67.3389 108.781 67.8698 109.915 67.8698 111.203C67.8698 113.55 65.9743 115.459 63.641 115.459H58.7509V101.295H63.1567C65.6762 101.295 67.581 102.956 67.581 105.159C67.581 106.293 67.1805 107.282 66.4959 108.01H66.4913ZM61.0842 106.97H63.3057C64.4793 106.97 65.2385 106.26 65.2385 105.159C65.2385 104.16 64.1906 103.633 63.152 103.633H61.0842V106.965V106.97ZM65.5319 111.203C65.5319 110.106 64.7914 109.308 63.7761 109.308H61.0842V113.116H63.641C64.6842 113.116 65.5319 112.257 65.5319 111.198V111.203ZM71.6887 115.459H74.022V101.295H71.6887V115.459ZM89.6423 115.459H91.9803V101.295H89.6423V115.459ZM80.7005 101.295H78.3625V115.459H86.9691V113.121H80.6958V101.295H80.7005ZM99.5436 101.295H94.6069V103.633H99.5436V115.459H101.882V103.633H106.818V101.295H99.5436ZM118.736 101.36L114.838 106.778L110.94 101.36H108.062L113.674 109.159V115.463H116.007V109.159L121.619 101.36H118.741H118.736Z" fill="url(#paint13_linear_0_50)"/>
<path d="M48.1883 101.029C52.2355 101.029 55.5235 104.328 55.5235 108.379C55.5235 112.43 52.2308 115.729 48.1883 115.729C44.1459 115.729 40.8532 112.43 40.8532 108.379C40.8532 104.328 44.1459 101.029 48.1883 101.029ZM48.1883 113.858C51.2016 113.858 53.6559 111.398 53.6559 108.379C53.6559 105.359 51.2016 102.9 48.1883 102.9C45.1751 102.9 42.7208 105.359 42.7208 108.379C42.7208 111.398 45.1751 113.858 48.1883 113.858ZM35.9678 101.155L39.0043 115.295H37.0902L35.3903 107.385L35.2506 106.741L34.9525 107.329L30.8541 115.477L26.7604 107.329L26.4624 106.736L26.3227 107.385L24.6228 115.295H22.7086L25.7452 101.155L30.6399 110.904L30.8495 111.319L31.0591 110.904L35.9585 101.155M106.581 101.528V103.399H101.644V115.225H99.7765V103.399H94.8398V101.528H106.585M91.7428 101.528V115.225H89.8705V101.528H91.7428ZM80.4676 101.528V113.354H86.7409V115.23H78.6001V101.533H80.4676M73.7891 101.533V115.23H71.9169V101.533H73.7891ZM63.152 101.533C65.5412 101.533 67.3435 103.091 67.3435 105.163C67.3435 106.214 66.9896 107.147 66.3236 107.856L66.1606 108.029L66.3376 108.188C67.1619 108.939 67.6369 110.036 67.6369 111.207C67.6369 113.429 65.8439 115.23 63.641 115.23H58.9838V101.533H63.1567M60.856 107.208H63.3104C64.6051 107.208 65.476 106.386 65.476 105.163C65.476 104.011 64.307 103.404 63.1567 103.404H60.856V107.203M60.856 113.354H63.6457C64.8193 113.354 65.7694 112.388 65.7694 111.202C65.7694 110.017 64.9311 109.074 63.7807 109.074H60.856V113.349M121.172 101.589L115.825 109.014L115.783 109.074V115.221H113.916V109.074L113.874 109.014L108.527 101.589H110.833L114.661 106.909L114.852 107.17L115.043 106.909L118.871 101.589H121.176M15.2105 101.589L5.04378 113.032L4.69914 113.419H14.8798V115.295H0.516952L10.6837 103.852L11.0283 103.465H0.852273V101.589H15.2059M36.0609 100.455L30.8681 110.796L25.6753 100.455L22.4385 115.529H24.8277L26.5648 107.436C27.5568 109.415 29.7224 113.718 30.8635 115.995L35.1714 107.436L36.9085 115.529H39.2977L36.0609 100.455ZM48.193 100.791C44.0201 100.791 40.625 104.193 40.625 108.374C40.625 112.556 44.0201 115.958 48.193 115.958C52.3659 115.958 55.761 112.556 55.761 108.374C55.761 104.193 52.3659 100.791 48.193 100.791ZM48.193 113.62C45.3055 113.62 42.9583 111.268 42.9583 108.374C42.9583 105.481 45.3055 103.129 48.193 103.129C51.0805 103.129 53.4277 105.481 53.4277 108.374C53.4277 111.268 51.0805 113.62 48.193 113.62ZM106.828 101.295H94.6163V103.633H99.5529V115.459H101.886V103.633H106.823V101.295H106.828ZM91.9849 101.295H89.647V115.459H91.9849V101.295ZM80.7098 101.295H78.3765V115.459H86.9831V113.116H80.7098V101.29V101.295ZM74.0313 101.295H71.6934V115.459H74.0313V101.295ZM63.1613 101.295H58.7556V115.459H63.6457C65.979 115.459 67.8745 113.55 67.8745 111.202C67.8745 109.914 67.3482 108.78 66.4959 108.01C67.1805 107.282 67.581 106.293 67.581 105.159C67.581 102.956 65.6809 101.295 63.1567 101.295H63.1613ZM61.0935 106.97V103.637H63.1613C64.1999 103.637 65.2478 104.16 65.2478 105.163C65.2478 106.265 64.4886 106.974 63.315 106.974H61.0935V106.97ZM61.0935 113.121V109.312H63.7854C64.8053 109.312 65.5412 110.11 65.5412 111.207C65.5412 112.304 64.6936 113.125 63.6503 113.125H61.0935V113.121ZM121.633 101.36H118.755L114.857 106.778L110.958 101.36H108.08L113.692 109.158V115.463H116.026V109.158L121.637 101.36H121.633ZM15.7321 101.36H0.619411V103.703H10.516L0 115.533H15.1034V113.191H5.20678L15.7181 101.36H15.7321Z" fill="url(#paint14_linear_0_50)"/>
</g>
<defs>
<linearGradient id="paint0_linear_0_50" x1="8.71365" y1="98.9752" x2="116.467" y2="-8.5553" gradientUnits="userSpaceOnUse">
<stop stop-color="#EAE7E3"/>
<stop offset="0.06" stop-color="#DBD8D5"/>
<stop offset="0.19" stop-color="#B5B1B3"/>
<stop offset="0.26" stop-color="#9A959A"/>
<stop offset="0.52" stop-color="#F9F9F9"/>
<stop offset="0.59" stop-color="#EAEAEA"/>
<stop offset="0.71" stop-color="#C6C3C4"/>
<stop offset="0.88" stop-color="#8E888B"/>
<stop offset="1" stop-color="#B5B5B6"/>
</linearGradient>
<linearGradient id="paint1_linear_0_50" x1="0.619385" y1="47.0606" x2="79.0844" y2="47.0606" gradientUnits="userSpaceOnUse">
<stop stop-color="#F9F9F9"/>
<stop offset="0.18" stop-color="#EAEAEA"/>
<stop offset="0.54" stop-color="#C6C3C4"/>
<stop offset="1" stop-color="#8E888B"/>
</linearGradient>
<linearGradient id="paint2_linear_0_50" x1="1.64861" y1="-1.11072" x2="3.93776" y2="2.8567" gradientUnits="userSpaceOnUse">
<stop stop-color="#F9F9F9"/>
<stop offset="0.18" stop-color="#EAEAEA"/>
<stop offset="0.54" stop-color="#C6C3C4"/>
<stop offset="1" stop-color="#8E888B"/>
</linearGradient>
<linearGradient id="paint3_linear_0_50" x1="3.26001" y1="3.49067" x2="79.089" y2="3.49067" gradientUnits="userSpaceOnUse">
<stop stop-color="#8E888B"/>
<stop offset="1" stop-color="#4D4448"/>
</linearGradient>
<linearGradient id="paint4_linear_0_50" x1="3.26001" y1="0.233344" x2="86.4241" y2="0.233344" gradientUnits="userSpaceOnUse">
<stop stop-color="#F9F9F9"/>
<stop offset="0.18" stop-color="#EAEAEA"/>
<stop offset="0.54" stop-color="#C6C3C4"/>
<stop offset="1" stop-color="#8E888B"/>
</linearGradient>
<linearGradient id="paint5_linear_0_50" x1="0.619385" y1="90.6264" x2="5.68179" y2="90.6264" gradientUnits="userSpaceOnUse">
<stop stop-color="#8E888B"/>
<stop offset="1" stop-color="#4D4448"/>
</linearGradient>
<linearGradient id="paint6_linear_0_50" x1="5.47229" y1="45.4274" x2="86.4242" y2="45.4274" gradientUnits="userSpaceOnUse">
<stop stop-color="#8E888B"/>
<stop offset="1" stop-color="#4D4448"/>
</linearGradient>
<linearGradient id="paint7_linear_0_50" x1="120.809" y1="86.9532" x2="120.809" y2="91.0694" gradientUnits="userSpaceOnUse">
<stop stop-color="#F9F9F9"/>
<stop offset="0.18" stop-color="#EAEAEA"/>
<stop offset="0.54" stop-color="#C6C3C4"/>
<stop offset="1" stop-color="#8E888B"/>
</linearGradient>
<linearGradient id="paint8_linear_0_50" x1="15.6017" y1="90.6264" x2="121.041" y2="90.6264" gradientUnits="userSpaceOnUse">
<stop stop-color="#8E888B"/>
<stop offset="1" stop-color="#4D4448"/>
</linearGradient>
<linearGradient id="paint9_linear_0_50" x1="46.5304" y1="87.3686" x2="121.041" y2="87.3686" gradientUnits="userSpaceOnUse">
<stop stop-color="#F9F9F9"/>
<stop offset="0.18" stop-color="#EAEAEA"/>
<stop offset="0.54" stop-color="#C6C3C4"/>
<stop offset="1" stop-color="#8E888B"/>
</linearGradient>
<linearGradient id="paint10_linear_0_50" x1="96.3441" y1="0.233344" x2="125" y2="0.233344" gradientUnits="userSpaceOnUse">
<stop stop-color="#F9F9F9"/>
<stop offset="0.18" stop-color="#EAEAEA"/>
<stop offset="0.54" stop-color="#C6C3C4"/>
<stop offset="1" stop-color="#8E888B"/>
</linearGradient>
<linearGradient id="paint11_linear_0_50" x1="15.6017" y1="45.4274" x2="96.5536" y2="45.4274" gradientUnits="userSpaceOnUse">
<stop stop-color="#8E888B"/>
<stop offset="0.46" stop-color="#C6C3C4"/>
<stop offset="0.82" stop-color="#EAEAEA"/>
<stop offset="1" stop-color="#F9F9F9"/>
</linearGradient>
<linearGradient id="paint12_linear_0_50" x1="48.1185" y1="86.034" x2="122.157" y2="3.32115" gradientUnits="userSpaceOnUse">
<stop stop-color="#8E888B"/>
<stop offset="1" stop-color="#4D4448"/>
</linearGradient>
<linearGradient id="paint13_linear_0_50" x1="25.6054" y1="141.192" x2="93.6251" y2="73.3084" gradientUnits="userSpaceOnUse">
<stop stop-color="#EAE7E3"/>
<stop offset="0.06" stop-color="#DBD8D5"/>
<stop offset="0.19" stop-color="#B5B1B3"/>
<stop offset="0.26" stop-color="#9A959A"/>
<stop offset="0.52" stop-color="#F9F9F9"/>
<stop offset="0.59" stop-color="#EAEAEA"/>
<stop offset="0.71" stop-color="#C6C3C4"/>
<stop offset="0.88" stop-color="#8E888B"/>
<stop offset="1" stop-color="#B5B5B6"/>
</linearGradient>
<linearGradient id="paint14_linear_0_50" x1="60.8094" y1="116" x2="60.8094" y2="100.459" gradientUnits="userSpaceOnUse">
<stop stop-color="#EAE7E3"/>
<stop offset="0.06" stop-color="#DBD8D5"/>
<stop offset="0.19" stop-color="#B5B1B3"/>
<stop offset="0.26" stop-color="#9A959A"/>
<stop offset="0.52" stop-color="#F9F9F9"/>
<stop offset="0.59" stop-color="#EAEAEA"/>
<stop offset="0.71" stop-color="#C6C3C4"/>
<stop offset="0.88" stop-color="#8E888B"/>
<stop offset="1" stop-color="#B5B5B6"/>
</linearGradient>
<clipPath id="clip0_0_50">
<rect width="125" height="116" fill="white"/>
</clipPath>
</defs>
</svg>
