<svg width="28" height="28" viewBox="0 0 28 28" fill="none" xmlns="http://www.w3.org/2000/svg">
<rect width="28" height="28" rx="3" fill="#044396"/>
<path d="M9.53817 19.6666C9.2014 19.6666 8.91634 19.55 8.68301 19.3166C8.44967 19.0833 8.33301 18.7983 8.33301 18.4615V9.53848C8.33301 9.2017 8.44967 8.91665 8.68301 8.68331C8.91634 8.44998 9.2014 8.33331 9.53817 8.33331H13.7432V9.33331H9.53817C9.48684 9.33331 9.43984 9.3547 9.39717 9.39748C9.3544 9.44015 9.33301 9.48715 9.33301 9.53848V18.4615C9.33301 18.5128 9.3544 18.5598 9.39717 18.6025C9.43984 18.6453 9.48684 18.6666 9.53817 18.6666H18.4612C18.5125 18.6666 18.5595 18.6453 18.6022 18.6025C18.645 18.5598 18.6663 18.5128 18.6663 18.4615V14.2565H19.6663V18.4615C19.6663 18.7983 19.5497 19.0833 19.3163 19.3166C19.083 19.55 18.798 19.6666 18.4612 19.6666H9.53817ZM12.4792 16.223L11.7767 15.5205L17.9638 9.33331H15.333V8.33331H19.6663V12.6666H18.6663V10.0358L12.4792 16.223Z" fill="white"/>
</svg>
