<svg width="24" height="24" viewBox="0 0 24 24" fill="none" xmlns="http://www.w3.org/2000/svg">
<path d="M12 16.725C13.6437 15.3403 14.8879 14.0025 15.7327 12.7115C16.5776 11.4205 17 10.2109 17 9.08275C17 7.59558 16.5333 6.37667 15.6 5.426C14.6667 4.47533 13.4667 4 12 4C10.5333 4 9.33333 4.47533 8.4 5.426C7.46667 6.37667 7 7.59558 7 9.08275C7 10.2109 7.42242 11.4205 8.26725 12.7115C9.11208 14.0025 10.3563 15.3403 12 16.725ZM12 18.625C9.83583 16.9493 8.2115 15.3125 7.127 13.7145C6.04233 12.1163 5.5 10.5724 5.5 9.08275C5.5 7.15958 6.10517 5.58167 7.3155 4.349C8.52567 3.11633 10.0872 2.5 12 2.5C13.9128 2.5 15.4743 3.11633 16.6845 4.349C17.8948 5.58167 18.5 7.15958 18.5 9.08275C18.5 10.5724 17.9577 12.1147 16.873 13.7095C15.7885 15.3045 14.1642 16.943 12 18.625ZM12 10.8077C12.4987 10.8077 12.9246 10.6311 13.2777 10.2777C13.6311 9.92458 13.8077 9.49867 13.8077 9C13.8077 8.50133 13.6311 8.07542 13.2777 7.72225C12.9246 7.36892 12.4987 7.19225 12 7.19225C11.5013 7.19225 11.0754 7.36892 10.7223 7.72225C10.3689 8.07542 10.1923 8.50133 10.1923 9C10.1923 9.49867 10.3689 9.92458 10.7223 10.2777C11.0754 10.6311 11.5013 10.8077 12 10.8077ZM5.5 21.5V20H18.5V21.5H5.5Z" fill="#044396"/>
</svg>
