<svg width="335" height="96" viewBox="0 0 335 96" fill="none" xmlns="http://www.w3.org/2000/svg">
<g clip-path="url(#clip0_2007_2900)">
<path d="M104.042 32H3.95552C1.74398 32 -0.0488281 33.7911 -0.0488281 36.0006V59.9994C-0.0488281 62.2089 1.74398 64 3.95552 64H104.042C106.253 64 108.046 62.2089 108.046 59.9994V36.0006C108.046 33.7911 106.253 32 104.042 32Z" fill="black"/>
<path d="M104.046 32.6412C105.899 32.6412 107.409 34.1493 107.409 36.0006V59.9994C107.409 61.8507 105.899 63.3588 104.046 63.3588H3.95552C2.10249 63.3588 0.592953 61.8507 0.592953 59.9994V36.0006C0.592953 34.1493 2.10249 32.6412 3.95552 32.6412H104.046ZM104.046 32H3.95552C1.75449 32 -0.0488281 33.8016 -0.0488281 36.0006V59.9994C-0.0488281 62.1984 1.75449 64 3.95552 64H104.046C106.247 64 108.051 62.1984 108.051 59.9994V36.0006C108.051 33.8016 106.247 32 104.046 32Z" fill="#A6A6A6"/>
<path d="M54.5124 40.6017C52.6277 40.6017 51.0956 42.033 51.0956 44.0017C51.0956 45.9704 52.6322 47.4017 54.5124 47.4017C56.3925 47.4017 57.9292 45.9568 57.9292 44.0017C57.9292 42.0466 56.3925 40.6017 54.5124 40.6017ZM54.5124 46.0652C53.4819 46.0652 52.5915 45.2163 52.5915 44.0017C52.5915 42.7871 53.4819 41.9382 54.5124 41.9382C55.5428 41.9382 56.4332 42.7735 56.4332 44.0017C56.4332 45.2299 55.5428 46.0652 54.5124 46.0652ZM47.0551 40.6017C45.1704 40.6017 43.6382 42.033 43.6382 44.0017C43.6382 45.9704 45.1749 47.4017 47.0551 47.4017C48.9352 47.4017 50.4719 45.9568 50.4719 44.0017C50.4719 42.0466 48.9352 40.6017 47.0551 40.6017ZM47.0551 46.0652C46.0246 46.0652 45.1342 45.2163 45.1342 44.0017C45.1342 42.7871 46.0246 41.9382 47.0551 41.9382C48.0855 41.9382 48.9759 42.7735 48.9759 44.0017C48.9759 45.2299 48.0855 46.0652 47.0551 46.0652ZM38.1831 41.6447V43.0896H41.6406C41.5366 43.9024 41.2655 44.4939 40.8542 44.9093C40.3525 45.4105 39.5661 45.9658 38.1831 45.9658C36.0544 45.9658 34.3912 44.25 34.3912 42.1233C34.3912 39.9966 36.0544 38.2808 38.1831 38.2808C39.3311 38.2808 40.1717 38.7323 40.7864 39.3103L41.8078 38.2898C40.9446 37.4635 39.7966 36.8359 38.1831 36.8359C35.268 36.8359 32.8184 39.2064 32.8184 42.1188C32.8184 45.0312 35.268 47.4017 38.1831 47.4017C39.7559 47.4017 40.9446 46.887 41.8711 45.9207C42.8247 44.968 43.123 43.6269 43.123 42.5432C43.123 42.2091 43.0959 41.8976 43.0462 41.6402H38.1831V41.6447ZM74.4618 42.7645C74.1771 42.0059 73.3138 40.5971 71.5467 40.5971C69.7795 40.5971 68.3333 41.9743 68.3333 43.9972C68.3333 45.9026 69.7795 47.3972 71.7139 47.3972C73.2732 47.3972 74.1771 46.4445 74.5522 45.8891L73.3907 45.117C73.002 45.6859 72.4732 46.0562 71.7139 46.0562C70.9546 46.0562 70.4123 45.7085 70.0643 45.0267L74.62 43.1438L74.4663 42.7555L74.4618 42.7645ZM69.8157 43.9024C69.775 42.5884 70.8371 41.9156 71.5964 41.9156C72.1885 41.9156 72.6947 42.2136 72.8619 42.6381L69.8157 43.9024ZM66.1141 47.1985H67.6101V37.1971H66.1141V47.1985ZM63.6645 41.3602H63.6148C63.2804 40.9629 62.6341 40.6017 61.8205 40.6017C60.1167 40.6017 58.5574 42.0962 58.5574 44.0152C58.5574 45.9342 60.1167 47.4062 61.8205 47.4062C62.6341 47.4062 63.2758 47.045 63.6148 46.6341H63.6645V47.1218C63.6645 48.4222 62.9685 49.1175 61.8431 49.1175C60.9257 49.1175 60.3607 48.4583 60.1257 47.9074L58.824 48.4493C59.1992 49.3523 60.1935 50.4586 61.8431 50.4586C63.5967 50.4586 65.0792 49.4291 65.0792 46.9141V40.8048H63.66V41.3602H63.6645ZM61.9471 46.0652C60.9166 46.0652 60.0489 45.2028 60.0489 44.0152C60.0489 42.8277 60.9121 41.9382 61.9471 41.9382C62.9821 41.9382 63.7685 42.8142 63.7685 44.0152C63.7685 45.2163 62.9685 46.0652 61.9471 46.0652ZM81.4717 37.1971H77.8922V47.1985H79.3882V43.4102H81.4762C83.1304 43.4102 84.7619 42.2136 84.7619 40.3036C84.7619 38.3937 83.1349 37.1971 81.4762 37.1971H81.4717ZM81.5078 42.0195H79.3836V38.5923H81.5078C82.6242 38.5923 83.2569 39.518 83.2569 40.3082C83.2569 41.0983 82.6242 42.024 81.5078 42.024V42.0195ZM90.7414 40.5836C89.6612 40.5836 88.5403 41.0577 88.0748 42.1143L89.4036 42.6697C89.6883 42.1143 90.2126 41.9382 90.7685 41.9382C91.5413 41.9382 92.3277 42.4033 92.3413 43.2251V43.3289C92.0701 43.1754 91.4916 42.9406 90.782 42.9406C89.3538 42.9406 87.8985 43.7263 87.8985 45.1937C87.8985 46.5303 89.0691 47.3927 90.3843 47.3927C91.3877 47.3927 91.9436 46.9412 92.2916 46.4174H92.3413V47.1895H93.783V43.356C93.783 41.5815 92.4543 40.5881 90.7414 40.5881V40.5836ZM90.5606 46.0652C90.0725 46.0652 89.39 45.8214 89.39 45.2163C89.39 44.4442 90.2397 44.1462 90.9719 44.1462C91.6272 44.1462 91.939 44.2862 92.3368 44.4803C92.2193 45.406 91.4238 46.0607 90.5606 46.0607V46.0652ZM99.0348 40.8003L97.3219 45.135H97.2722L95.496 40.8003H93.887L96.5535 46.8599L95.035 50.2328H96.5942L100.703 40.8003H99.0393H99.0348ZM85.58 47.1985H87.076V37.1971H85.58V47.1985Z" fill="white"/>
<path d="M16.5435 47.5372L8.01953 56.5768C8.01953 56.5768 8.01953 56.5768 8.01953 56.5813C8.28167 57.5612 9.17655 58.2836 10.2432 58.2836C10.668 58.2836 11.0703 58.1662 11.4092 57.9675L11.4363 57.9495L21.0314 52.4182L16.5389 47.5327L16.5435 47.5372Z" fill="#EA4335"/>
<path d="M25.166 45.9975H25.1569L21.0125 43.5908L16.3438 47.7404L21.026 52.4182L25.1479 50.0432C25.871 49.6549 26.3591 48.8918 26.3591 48.0158C26.3591 47.1398 25.8756 46.3858 25.1615 45.9975H25.166Z" fill="#FBBC04"/>
<path d="M8.01433 39.4232C7.96462 39.6128 7.9375 39.8115 7.9375 40.0147V55.9898C7.9375 56.193 7.96462 56.3917 8.01433 56.5813L16.832 47.772L8.01433 39.4232Z" fill="#4285F4"/>
<path d="M16.6067 47.9977L21.0179 43.5908L11.4318 38.037C11.0838 37.8293 10.677 37.7074 10.2432 37.7074C9.17655 37.7074 8.28167 38.4298 8.01953 39.4141L16.6067 47.9932V47.9977Z" fill="#34A853"/>
<path d="M33.459 54.116C33.5901 54.1115 33.6985 54.107 33.7844 54.0979C33.8703 54.0889 33.9516 54.0844 34.0194 54.0799C34.1008 54.0708 34.2409 54.0528 34.4533 54.0302C34.6612 54.0076 34.9143 53.9805 35.2035 53.9489C35.4928 53.9173 35.8046 53.8902 36.1391 53.8586C36.4735 53.827 36.799 53.7999 37.1153 53.7728C37.3865 53.7503 37.626 53.7277 37.8385 53.7141C38.0509 53.6961 38.2452 53.687 38.4215 53.6735C38.5978 53.6645 38.7559 53.6554 38.9006 53.6509V53.8677C38.7605 53.8677 38.6068 53.8677 38.435 53.8677C38.2633 53.8722 38.0961 53.8857 37.9334 53.9038C37.7707 53.9218 37.6351 53.9534 37.5221 53.9941C37.2328 54.0979 36.9843 54.2424 36.7673 54.4321C36.5504 54.6217 36.3696 54.8339 36.2295 55.0687C36.0894 55.3035 35.9764 55.5428 35.9041 55.7821C35.8318 56.0215 35.7956 56.2472 35.7956 56.4504C35.7956 56.7665 35.8498 57.0374 35.9538 57.2677C36.0623 57.498 36.2024 57.6921 36.3832 57.8456C36.5639 57.9992 36.7628 58.1256 36.9843 58.2204C37.2057 58.3152 37.4317 58.383 37.6712 58.4281C37.9108 58.4733 38.1368 58.4958 38.3537 58.5004L38.2769 58.6945C38.0554 58.6945 37.8204 58.6674 37.5718 58.6178C37.3232 58.5681 37.0837 58.4868 36.8532 58.383C36.6227 58.2791 36.4058 58.1391 36.2205 57.9676C36.0306 57.796 35.8815 57.5883 35.773 57.349C35.66 57.1096 35.6058 56.8252 35.6058 56.5046C35.6058 56.1163 35.6781 55.7505 35.8272 55.4164C35.9764 55.0823 36.1707 54.7843 36.4103 54.5314C36.6498 54.2785 36.9029 54.0844 37.1741 53.9489C37.0069 53.967 36.7944 53.9896 36.5413 54.0167C36.2882 54.0437 36.0126 54.0708 35.7233 54.0979C35.434 54.1295 35.1448 54.1611 34.8555 54.1928C34.5663 54.2244 34.3041 54.256 34.0691 54.2876C33.8341 54.3192 33.6443 54.3463 33.5042 54.3734L33.468 54.107L33.459 54.116ZM37.8837 54.8926C37.9334 54.9604 37.9966 55.0552 38.069 55.1681C38.1413 55.2809 38.2136 55.4029 38.2904 55.5248C38.3673 55.6467 38.4305 55.7731 38.4848 55.886L38.2904 55.9853C38.2226 55.8363 38.1322 55.6647 38.0192 55.4751C37.9063 55.2809 37.8023 55.1184 37.6984 54.9829L37.8837 54.8926ZM38.6249 54.6307C38.6791 54.6985 38.7469 54.7933 38.8192 54.9062C38.8915 55.0191 38.9684 55.141 39.0452 55.2629C39.122 55.3848 39.1898 55.5112 39.2441 55.6241L39.0497 55.7234C38.9774 55.5744 38.8825 55.4074 38.7695 55.2132C38.6565 55.0236 38.548 54.861 38.4441 54.721L38.6249 54.6307Z" fill="white"/>
<path d="M39.9941 56.3556H46.1724V56.5633H39.9941V56.3556ZM40.4461 54.712H45.7973V54.9152H40.4461V54.712ZM45.2504 52.7569L45.4176 52.9149C45.1465 53.0097 44.8211 53.091 44.4369 53.1633C44.0527 53.2355 43.6414 53.2987 43.1985 53.3529C42.7556 53.4071 42.3036 53.4522 41.8517 53.4838C41.3952 53.52 40.9613 53.5471 40.541 53.5651C40.5365 53.538 40.5275 53.5064 40.5184 53.4703C40.5094 53.4342 40.5003 53.4071 40.4913 53.3845C40.9026 53.3619 41.3319 53.3303 41.7839 53.2987C42.2359 53.2671 42.6788 53.222 43.1172 53.1678C43.5556 53.1181 43.9578 53.0549 44.3239 52.9872C44.6945 52.9194 45.0018 52.8382 45.2459 52.7524L45.2504 52.7569ZM42.9725 53.2581H43.1804V58.532C43.1804 58.6584 43.1578 58.7487 43.1081 58.7984C43.0584 58.8525 42.9906 58.8887 42.8957 58.9158C42.7963 58.9338 42.6426 58.9474 42.4302 58.9519C42.2178 58.9564 41.9195 58.9564 41.5398 58.9519C41.5353 58.9338 41.5263 58.9112 41.5172 58.8842C41.5082 58.8571 41.4946 58.8345 41.4811 58.8074C41.4675 58.7803 41.4585 58.7577 41.4404 58.7397C41.6573 58.7397 41.8562 58.7487 42.0415 58.7487C42.2268 58.7487 42.376 58.7487 42.5025 58.7487C42.6291 58.7487 42.7149 58.7487 42.7646 58.7487C42.846 58.7442 42.9002 58.7261 42.9274 58.699C42.959 58.6719 42.9725 58.6178 42.9725 58.5455V53.2626V53.2581Z" fill="white"/>
<path d="M48.0704 53.371C48.0613 53.3981 48.0523 53.4297 48.0432 53.4613C48.0342 53.4929 48.0252 53.529 48.0161 53.5606C48.0071 53.5922 47.998 53.6329 47.989 53.678C47.9574 53.8451 47.9212 54.0212 47.8896 54.2018C47.8534 54.3869 47.8218 54.572 47.7947 54.7662C47.763 54.9604 47.7359 55.1545 47.7133 55.3487C47.6907 55.5428 47.6726 55.737 47.6591 55.9221C47.6455 56.1072 47.6365 56.2924 47.6365 56.4685C47.6365 56.7394 47.6455 56.9832 47.6591 57.209C47.6726 57.4347 47.6998 57.6831 47.7314 57.9585C47.7766 57.8276 47.8308 57.6831 47.8896 57.5205C47.9483 57.358 48.0071 57.1999 48.0658 57.0419C48.1246 56.8839 48.1743 56.7484 48.215 56.64L48.3686 56.7529C48.3189 56.8884 48.2557 57.0464 48.1879 57.2316C48.1201 57.4167 48.0523 57.5928 47.998 57.7644C47.9393 57.9359 47.9031 58.0714 47.8805 58.1662C47.8715 58.2114 47.8625 58.261 47.8579 58.3152C47.8489 58.3694 47.8489 58.4191 47.8579 58.4642C47.8625 58.4958 47.867 58.532 47.8715 58.5681C47.876 58.6042 47.8805 58.6358 47.8851 58.6584L47.6907 58.681C47.6229 58.4191 47.5642 58.1075 47.519 57.7328C47.4738 57.3625 47.4512 56.9426 47.4512 56.473C47.4512 56.2246 47.4647 55.9628 47.4918 55.7009C47.5144 55.4345 47.5506 55.1771 47.5868 54.9197C47.6274 54.6623 47.6636 54.4275 47.7043 54.2108C47.7404 53.9941 47.7721 53.809 47.7947 53.6554C47.8037 53.5922 47.8127 53.5335 47.8173 53.4838C47.8218 53.4342 47.8263 53.389 47.8263 53.3484L48.0884 53.3755L48.0704 53.371ZM49.6341 56.6762C49.598 56.8116 49.5663 56.9335 49.5483 57.0464C49.5257 57.1593 49.5166 57.2677 49.5166 57.3625C49.5166 57.4438 49.5347 57.5341 49.5663 57.6199C49.598 57.7057 49.6612 57.7915 49.7562 57.8682C49.8511 57.945 49.9912 58.0037 50.172 58.0533C50.3527 58.0985 50.5923 58.1211 50.8906 58.1211C51.2069 58.1211 51.5052 58.1075 51.79 58.0759C52.0747 58.0443 52.3414 57.9992 52.599 57.9405L52.608 58.1707C52.4001 58.2159 52.147 58.252 51.8578 58.2836C51.5685 58.3152 51.2567 58.3243 50.9267 58.3243C50.3618 58.3243 49.9505 58.243 49.7019 58.0759C49.4533 57.9089 49.3268 57.6786 49.3268 57.3806C49.3268 57.2857 49.3358 57.1819 49.3539 57.0645C49.372 56.9471 49.3991 56.8071 49.4308 56.6491L49.6387 56.6762H49.6341ZM49.6522 53.976C49.8194 54.0076 50.0228 54.0347 50.2669 54.0483C50.5064 54.0663 50.7595 54.0708 51.0262 54.0708C51.2928 54.0708 51.5414 54.0618 51.7855 54.0437C52.0295 54.0257 52.2284 54.0031 52.3866 53.976V54.2063C52.2284 54.2244 52.0295 54.2379 51.7855 54.2515C51.5414 54.2605 51.2928 54.2695 51.0262 54.2695C50.7595 54.2695 50.5064 54.265 50.2624 54.2515C50.0183 54.2379 49.8149 54.2244 49.6522 54.2063V53.976Z" fill="white"/>
<path d="M56.4599 54.3869L56.6813 54.4275C56.5096 55.15 56.2881 55.8002 56.0215 56.3691C55.7503 56.9381 55.4204 57.4393 55.0317 57.8682C54.643 58.2972 54.173 58.6674 53.6306 58.979C53.6216 58.9654 53.608 58.9474 53.5809 58.9293C53.5583 58.9112 53.5357 58.8887 53.5131 58.8706C53.4905 58.8525 53.4679 58.83 53.4453 58.8164C54.2634 58.3739 54.9097 57.7869 55.3887 57.0555C55.8678 56.324 56.2249 55.4299 56.4599 54.3824V54.3869ZM54.7063 53.1813H56.6768V53.389H54.7063V53.1813ZM56.5593 53.1813H56.7627C56.7627 53.3755 56.7717 53.6103 56.7853 53.8812C56.7988 54.1521 56.8395 54.4501 56.9028 54.7707C56.9616 55.0913 57.0565 55.4299 57.1875 55.7776C57.3186 56.1298 57.4949 56.482 57.7163 56.8342C57.9378 57.1864 58.2225 57.5341 58.5615 57.8727C58.905 58.2069 59.3163 58.5229 59.8044 58.8164C59.7908 58.8255 59.7727 58.839 59.7501 58.8571C59.7275 58.8751 59.7049 58.8977 59.6823 58.9158L59.6281 58.9699C59.14 58.6719 58.7242 58.3513 58.3852 58.0082C58.0417 57.665 57.7615 57.3128 57.5355 56.9471C57.3096 56.5813 57.1333 56.2201 56.9977 55.8589C56.8666 55.4977 56.7672 55.15 56.7039 54.8204C56.6407 54.4862 56.6 54.1837 56.5819 53.9038C56.5638 53.6238 56.5548 53.3845 56.5548 53.1858L56.5593 53.1813Z" fill="white"/>
<path d="M62.0321 54.4682C62.0004 54.4727 61.9281 54.4817 61.8106 54.4998C61.6976 54.5179 61.562 54.5359 61.4083 54.554C61.2547 54.5765 61.0965 54.5946 60.9293 54.6217C60.7666 54.6443 60.6084 54.6669 60.4638 54.6894L60.4366 54.4411C60.4909 54.4411 60.5451 54.4456 60.5948 54.4411C60.6445 54.4411 60.6943 54.4366 60.7395 54.4321C60.8208 54.4275 60.9248 54.4185 61.0513 54.405C61.1824 54.3914 61.3225 54.3779 61.4671 54.3598C61.6163 54.3418 61.7564 54.3237 61.8919 54.3011C62.0275 54.2785 62.136 54.2514 62.2174 54.2244L62.3439 54.3418C62.3032 54.4095 62.258 54.4772 62.2128 54.554C62.1676 54.6307 62.1179 54.7075 62.0727 54.7888C62.0275 54.87 61.9869 54.9423 61.9462 55.01L61.9236 55.6015C61.8422 55.7415 61.7383 55.8995 61.6163 56.0801C61.4942 56.2608 61.3677 56.4459 61.2321 56.6446C61.0965 56.8432 60.9564 57.0419 60.8163 57.2406C60.6762 57.4393 60.5406 57.6289 60.414 57.805L60.2559 57.6154C60.3372 57.507 60.4412 57.3715 60.5677 57.2045C60.6943 57.0374 60.8253 56.8568 60.9654 56.6671C61.1055 56.473 61.2411 56.2833 61.3722 56.0982C61.5033 55.9086 61.6208 55.7415 61.7157 55.5925C61.8106 55.4435 61.8784 55.3306 61.9191 55.2584L61.9597 54.721L62.014 54.4727L62.0321 54.4682ZM61.9823 53.5064C61.9823 53.4477 61.9823 53.38 61.9823 53.3032C61.9823 53.2265 61.9733 53.1587 61.9643 53.0955L62.258 53.1091C62.2445 53.1768 62.2264 53.3123 62.2038 53.5109C62.1812 53.7096 62.1586 53.9444 62.136 54.2198C62.1134 54.4953 62.0908 54.7888 62.0682 55.0958C62.0456 55.4029 62.0275 55.7099 62.014 56.0079C62.0004 56.3059 61.9914 56.5768 61.9914 56.8207V57.4076C61.9914 57.5657 61.9914 57.7147 61.9914 57.8592C61.9914 58.0037 61.9959 58.1753 62.0004 58.3739C62.0049 58.4326 62.0095 58.4913 62.0095 58.5365C62.0095 58.5861 62.014 58.6358 62.0185 58.6855H61.7699C61.779 58.6358 61.7835 58.5861 61.788 58.5365C61.7925 58.4868 61.788 58.4371 61.788 58.3784V56.8207C61.788 56.7168 61.7925 56.5723 61.8016 56.3827C61.8106 56.193 61.8196 55.9808 61.8377 55.746C61.8513 55.5112 61.8648 55.2719 61.8829 55.0281C61.901 54.7843 61.9145 54.554 61.9281 54.3372C61.9417 54.1205 61.9552 53.9399 61.9643 53.7909C61.9733 53.6419 61.9778 53.5471 61.9778 53.5064H61.9823ZM66.5788 57.8095C66.3709 58.0308 66.1584 58.1933 65.9415 58.2972C65.7246 58.401 65.5212 58.4507 65.3314 58.4507C65.1325 58.4507 64.9698 58.392 64.8432 58.2791C64.7167 58.1662 64.6534 57.9856 64.6534 57.7508C64.6534 57.5521 64.667 57.3309 64.6941 57.0871C64.7212 56.8432 64.7528 56.5949 64.789 56.3375C64.8252 56.0801 64.8568 55.8363 64.8839 55.6015C64.911 55.3667 64.9246 55.159 64.9246 54.9784C64.9246 54.7481 64.8658 54.5811 64.7528 54.4862C64.6399 54.3869 64.4817 54.3418 64.2738 54.3418C64.1111 54.3418 63.9303 54.3824 63.7314 54.4637C63.5326 54.5449 63.3247 54.6578 63.1122 54.8023C62.8998 54.9468 62.6874 55.1139 62.4795 55.3035C62.2716 55.4932 62.0682 55.6963 61.8784 55.9176L61.9055 55.6106C61.9914 55.5112 62.1044 55.4029 62.2445 55.2719C62.3801 55.1455 62.5337 55.0145 62.7055 54.8836C62.8772 54.7526 63.0535 54.6307 63.2343 54.5178C63.4196 54.405 63.6003 54.3192 63.7811 54.2514C63.9619 54.1837 64.1337 54.1521 64.2918 54.1521C64.4771 54.1521 64.6353 54.1837 64.7574 54.2469C64.8794 54.3101 64.9788 54.405 65.0421 54.5314C65.1054 54.6578 65.1415 54.8113 65.1415 54.992C65.1415 55.159 65.128 55.3622 65.0963 55.6015C65.0647 55.8408 65.0331 56.0892 64.9969 56.3511C64.9607 56.613 64.9246 56.8658 64.8975 57.1051C64.8658 57.3489 64.8523 57.5521 64.8523 57.7237C64.8523 57.8682 64.8884 57.9946 64.9607 58.103C65.0331 58.2114 65.1506 58.2656 65.3133 58.2656C65.5167 58.2656 65.72 58.2114 65.9189 58.0985C66.1178 57.9856 66.3166 57.8231 66.52 57.6108L66.5833 57.8276L66.5788 57.8095Z" fill="white"/>
<path d="M70.2938 53.1542C70.2893 53.1858 70.2848 53.24 70.2757 53.3123C70.2667 53.3845 70.2622 53.4568 70.2576 53.5335C70.2531 53.6103 70.2486 53.6735 70.2486 53.7232V55.141C70.2486 55.3261 70.2531 55.5383 70.2622 55.7821C70.2712 56.026 70.2802 56.2698 70.2893 56.5226C70.2983 56.7755 70.3074 57.0148 70.3164 57.2406C70.3254 57.4663 70.33 57.656 70.33 57.814C70.33 57.945 70.3074 58.0624 70.2622 58.1707C70.217 58.2791 70.1447 58.3739 70.0543 58.4552C69.9639 58.5365 69.8509 58.5997 69.7198 58.6448C69.5887 58.69 69.4351 58.7126 69.2633 58.7126C68.956 58.7126 68.6893 58.681 68.4588 58.6132C68.2283 58.5455 68.0521 58.4462 67.9255 58.3107C67.799 58.1753 67.7402 57.9992 67.7402 57.7869C67.7402 57.6108 67.7945 57.4483 67.9029 57.2993C68.0114 57.1503 68.1877 57.0329 68.4227 56.9426C68.6577 56.8523 68.965 56.8071 69.3402 56.8071C69.6656 56.8071 69.9819 56.8432 70.2848 56.92C70.5876 56.9922 70.8768 57.0961 71.1525 57.218C71.4282 57.3444 71.6813 57.4844 71.9118 57.6379C72.1423 57.7914 72.3502 57.9495 72.5265 58.1075L72.3954 58.3243C72.2237 58.1482 72.0203 57.9811 71.7943 57.8231C71.5683 57.665 71.3152 57.525 71.0486 57.4031C70.7819 57.2812 70.5017 57.1819 70.2124 57.1142C69.9232 57.0464 69.6294 57.0103 69.3402 57.0103C68.8882 57.0103 68.5447 57.0825 68.3052 57.227C68.0656 57.3715 67.9481 57.5612 67.9481 57.7914C67.9481 58.0037 68.0566 58.1798 68.2735 58.3152C68.4905 58.4507 68.8114 58.5184 69.2362 58.5184C69.5255 58.5184 69.7469 58.4507 69.9051 58.3152C70.0633 58.1798 70.1401 57.9901 70.1401 57.7373C70.1401 57.6018 70.1356 57.4257 70.1266 57.2135C70.1175 57.0013 70.1085 56.7665 70.0995 56.5181C70.0904 56.2698 70.0814 56.026 70.0723 55.7821C70.0633 55.5428 70.0588 55.3261 70.0588 55.1364V53.7186C70.0588 53.6645 70.0588 53.5967 70.0497 53.52C70.0407 53.4432 70.0407 53.371 70.0362 53.2987C70.0317 53.2265 70.0226 53.1768 70.0136 53.1497H70.2938V53.1542ZM70.1085 54.6307C70.2441 54.6307 70.4068 54.6307 70.5966 54.6217C70.7864 54.6172 70.9898 54.6082 71.2022 54.5991C71.4147 54.5901 71.6316 54.572 71.844 54.554C72.0564 54.5359 72.2553 54.5133 72.4361 54.4908L72.4451 54.7075C72.2643 54.7256 72.07 54.7436 71.8576 54.7617C71.6452 54.7797 71.4327 54.7933 71.2203 54.8023C71.0079 54.8159 70.8045 54.8249 70.6102 54.8294C70.4158 54.8384 70.2531 54.8384 70.113 54.8384V54.6307H70.1085Z" fill="white"/>
<path d="M78.0849 56.1524C78.0849 55.9086 78.0261 55.7009 77.9041 55.5293C77.7821 55.3577 77.6194 55.2177 77.4115 55.1229C77.2036 55.0236 76.9731 54.9784 76.7109 54.9784C76.4262 54.9784 76.1641 55.001 75.9245 55.0416C75.685 55.0823 75.4635 55.1319 75.2647 55.1861C75.0658 55.2403 74.885 55.2945 74.7268 55.3396C74.6093 55.3712 74.5144 55.4029 74.4421 55.4299C74.3698 55.457 74.2975 55.4841 74.2252 55.5112L74.1348 55.2268C74.2161 55.2177 74.2975 55.2042 74.3833 55.1861C74.4692 55.1681 74.5596 55.1545 74.659 55.1319C74.8172 55.0958 75.007 55.0507 75.224 54.992C75.4409 54.9378 75.6805 54.8881 75.9381 54.843C76.1957 54.7978 76.4533 54.7752 76.7155 54.7752C77.0092 54.7752 77.2714 54.8294 77.5109 54.9333C77.7504 55.0371 77.9403 55.1906 78.0804 55.3983C78.2205 55.6015 78.2883 55.8544 78.2883 56.1569C78.2883 56.5362 78.2114 56.8748 78.0578 57.1638C77.9041 57.4528 77.6917 57.7011 77.416 57.9134C77.1403 58.1211 76.8239 58.2927 76.4623 58.4281C76.1008 58.5636 75.7121 58.6629 75.2918 58.7352L75.1517 58.5455C75.563 58.4913 75.9471 58.3965 76.3042 58.2701C76.6567 58.1436 76.9685 57.9811 77.2397 57.7869C77.5064 57.5928 77.7143 57.358 77.8634 57.0826C78.0126 56.8071 78.0849 56.5001 78.0849 56.1479V56.1524ZM74.9709 53.222C75.1517 53.2626 75.3686 53.3032 75.6217 53.3439C75.8748 53.3845 76.1369 53.4161 76.4036 53.4477C76.6748 53.4793 76.9279 53.5019 77.1674 53.52C77.4069 53.538 77.6058 53.5516 77.764 53.5561L77.7278 53.7728C77.5471 53.7593 77.3346 53.7412 77.0951 53.7186C76.851 53.6961 76.6025 53.6735 76.3448 53.6419C76.0827 53.6103 75.8341 53.5787 75.5901 53.5425C75.346 53.5064 75.1291 53.4748 74.9302 53.4432L74.9709 53.222Z" fill="white"/>
</g>
<g clip-path="url(#clip1_2007_2900)">
<path d="M199.384 32H127.621C127.328 32 127.038 32 126.746 32.0016C126.501 32.0032 126.258 32.0078 126.011 32.0118C125.474 32.0181 124.939 32.0653 124.41 32.1531C123.881 32.2428 123.369 32.4119 122.89 32.6547C122.413 32.8996 121.976 33.2177 121.597 33.5977C121.215 33.9765 120.897 34.4144 120.655 34.8945C120.412 35.3737 120.243 35.8872 120.155 36.4172C120.066 36.9465 120.018 37.482 120.012 38.0188C120.005 38.2641 120.004 38.5102 120 38.7555V57.2469C120.004 57.4953 120.005 57.7359 120.012 57.9844C120.018 58.5211 120.066 59.0566 120.155 59.5859C120.243 60.1163 120.412 60.63 120.655 61.1094C120.897 61.5879 121.215 62.0241 121.597 62.4008C121.975 62.7824 122.411 63.1008 122.89 63.3438C123.369 63.5872 123.881 63.7573 124.41 63.8484C124.939 63.9355 125.475 63.9828 126.011 63.9898C126.258 63.9953 126.501 63.9984 126.746 63.9984C127.038 64 127.328 64 127.621 64H199.384C199.671 64 199.963 64 200.25 63.9984C200.494 63.9984 200.743 63.9953 200.987 63.9898C201.523 63.9831 202.057 63.9359 202.585 63.8484C203.116 63.7567 203.63 63.5866 204.111 63.3438C204.589 63.1006 205.025 62.7823 205.403 62.4008C205.784 62.0226 206.102 61.5868 206.347 61.1094C206.589 60.6297 206.756 60.116 206.842 59.5859C206.931 59.0565 206.981 58.5212 206.991 57.9844C206.994 57.7359 206.994 57.4953 206.994 57.2469C207 56.9562 207 56.6672 207 56.3718V39.6289C207 39.3359 207 39.0453 206.994 38.7555C206.994 38.5102 206.994 38.2641 206.991 38.0188C206.981 37.4819 206.931 36.9466 206.842 36.4172C206.755 35.8874 206.589 35.374 206.347 34.8945C205.854 33.9322 205.072 33.1488 204.111 32.6547C203.63 32.4125 203.116 32.2434 202.585 32.1531C202.057 32.0649 201.523 32.0176 200.987 32.0116C200.743 32.0077 200.494 32.0031 200.25 32.0015C199.963 32 199.671 32 199.384 32Z" fill="#A6A6A6"/>
<path d="M126.749 63.3C126.506 63.3 126.268 63.2969 126.026 63.2914C125.526 63.2849 125.026 63.2413 124.532 63.161C124.072 63.0815 123.625 62.9338 123.208 62.7226C122.795 62.5132 122.418 62.2386 122.092 61.9094C121.761 61.584 121.485 61.2066 121.276 60.7922C121.065 60.375 120.918 59.9279 120.842 59.4664C120.76 58.9705 120.715 58.469 120.709 57.9664C120.704 57.7977 120.697 57.2359 120.697 57.2359V38.7555C120.697 38.7555 120.704 38.2023 120.709 38.0398C120.715 37.538 120.759 37.0373 120.841 36.5422C120.918 36.0794 121.064 35.631 121.276 35.2125C121.484 34.7984 121.758 34.4207 122.087 34.0941C122.416 33.7645 122.794 33.4885 123.208 33.2762C123.624 33.0657 124.07 32.919 124.529 32.841C125.025 32.7599 125.526 32.716 126.028 32.7098L126.749 32.7H200.246L200.975 32.7102C201.473 32.7161 201.97 32.7596 202.461 32.8402C202.925 32.9192 203.375 33.0669 203.796 33.2785C204.626 33.7064 205.301 34.3833 205.726 35.2145C205.935 35.6301 206.079 36.0748 206.154 36.5336C206.237 37.0328 206.284 37.5374 206.293 38.0434C206.295 38.2699 206.295 38.5133 206.295 38.7555C206.302 39.0555 206.302 39.341 206.302 39.6289V56.3718C206.302 56.6625 206.302 56.9461 206.295 57.232C206.295 57.4922 206.295 57.7305 206.292 57.9758C206.283 58.4727 206.237 58.9683 206.156 59.4586C206.081 59.9234 205.936 60.374 205.724 60.7946C205.513 61.2045 205.24 61.5786 204.912 61.9031C204.586 62.2341 204.208 62.5104 203.794 62.7211C203.374 62.9339 202.925 63.0822 202.461 63.161C201.967 63.2417 201.467 63.2853 200.967 63.2914C200.733 63.2969 200.488 63.3 200.25 63.3L199.383 63.3016L126.749 63.3Z" fill="black"/>
<path d="M152.903 45.2437H149.665L148.887 47.5421H147.516L150.583 39.0387H152.008L155.075 47.5421H153.68L152.903 45.2437ZM150 44.1831H152.567L151.302 40.453H151.266L150 44.1831Z" fill="white"/>
<path d="M161.7 44.4426C161.7 46.3691 160.669 47.6069 159.115 47.6069C158.721 47.6276 158.329 47.5368 157.985 47.3449C157.64 47.1531 157.356 46.868 157.166 46.5223H157.137V49.593H155.865V41.3424H157.096V42.3736H157.119C157.318 42.0295 157.607 41.7459 157.954 41.5529C158.301 41.3599 158.694 41.2648 159.091 41.2776C160.663 41.2776 161.7 42.5214 161.7 44.4426ZM160.393 44.4426C160.393 43.1874 159.745 42.3622 158.756 42.3622C157.785 42.3622 157.131 43.2048 157.131 44.4426C157.131 45.6917 157.785 46.5283 158.756 46.5283C159.745 46.5283 160.393 45.7091 160.393 44.4426Z" fill="white"/>
<path d="M168.516 44.4426C168.516 46.3691 167.486 47.6069 165.931 47.6069C165.537 47.6276 165.146 47.5368 164.801 47.3449C164.456 47.1531 164.173 46.868 163.982 46.5223H163.953V49.593H162.682V41.3424H163.912V42.3736H163.936C164.135 42.0295 164.423 41.7459 164.771 41.5529C165.118 41.3599 165.511 41.2648 165.908 41.2776C167.48 41.2776 168.516 42.5214 168.516 44.4426ZM167.209 44.4426C167.209 43.1874 166.561 42.3622 165.572 42.3622C164.601 42.3622 163.948 43.2048 163.948 44.4426C163.948 45.6917 164.601 46.5283 165.572 46.5283C166.561 46.5283 167.209 45.7091 167.209 44.4426Z" fill="white"/>
<path d="M173.022 45.1728C173.116 46.016 173.935 46.5697 175.053 46.5697C176.125 46.5697 176.896 46.016 176.896 45.2557C176.896 44.5957 176.431 44.2005 175.33 43.9297L174.229 43.6642C172.669 43.287 171.945 42.5568 171.945 41.3718C171.945 39.9046 173.222 38.8969 175.035 38.8969C176.831 38.8969 178.062 39.9047 178.103 41.3718H176.82C176.743 40.5232 176.042 40.011 175.018 40.011C173.994 40.011 173.293 40.5293 173.293 41.2836C173.293 41.8848 173.74 42.2385 174.835 42.5093L175.771 42.7394C177.514 43.152 178.238 43.8528 178.238 45.0966C178.238 46.6875 176.973 47.6839 174.959 47.6839C173.075 47.6839 171.803 46.7109 171.721 45.1728L173.022 45.1728Z" fill="white"/>
<path d="M180.983 39.8753V41.3425H182.161V42.3502H180.983V45.768C180.983 46.299 181.218 46.5464 181.736 46.5464C181.876 46.544 182.016 46.5341 182.154 46.517V47.5187C181.922 47.5622 181.685 47.582 181.448 47.5776C180.194 47.5776 179.705 47.1061 179.705 45.9038V42.3502H178.805V41.3424H179.705V39.8752L180.983 39.8753Z" fill="white"/>
<path d="M182.842 44.4426C182.842 42.4919 183.99 41.2662 185.779 41.2662C187.575 41.2662 188.718 42.4919 188.718 44.4426C188.718 46.3986 187.581 47.619 185.779 47.619C183.978 47.619 182.842 46.3986 182.842 44.4426ZM187.422 44.4426C187.422 43.1045 186.81 42.3147 185.779 42.3147C184.749 42.3147 184.137 43.1105 184.137 44.4426C184.137 45.786 184.749 46.5698 185.779 46.5698C186.81 46.5698 187.422 45.786 187.422 44.4426Z" fill="white"/>
<path d="M189.766 41.3424H190.978V42.3976H191.008C191.09 42.068 191.283 41.7768 191.554 41.5728C191.825 41.3688 192.158 41.2646 192.497 41.2775C192.644 41.277 192.79 41.2929 192.933 41.325V42.5153C192.748 42.4587 192.555 42.4327 192.362 42.4384C192.177 42.4309 191.993 42.4635 191.822 42.5339C191.651 42.6044 191.497 42.711 191.372 42.8466C191.246 42.9821 191.151 43.1432 191.093 43.319C191.035 43.4948 191.016 43.681 191.037 43.8648V47.5421H189.766V41.3424Z" fill="white"/>
<path d="M198.796 45.7212C198.656 46.307 198.309 46.8223 197.819 47.1713C197.328 47.5203 196.728 47.6794 196.129 47.619C194.327 47.619 193.209 46.4106 193.209 44.472C193.209 42.5274 194.333 41.2662 196.076 41.2662C197.789 41.2662 198.867 42.4445 198.867 44.3242V44.7602H194.492V44.8371C194.472 45.0653 194.501 45.2951 194.576 45.5114C194.651 45.7277 194.772 45.9254 194.93 46.0915C195.087 46.2576 195.278 46.3882 195.49 46.4747C195.702 46.5612 195.93 46.6016 196.159 46.5932C196.459 46.6213 196.761 46.5517 197.018 46.3946C197.276 46.2375 197.476 46.0013 197.589 45.7212L198.796 45.7212ZM194.498 43.8708H197.595C197.606 43.6657 197.575 43.4604 197.504 43.2678C197.432 43.0752 197.322 42.8996 197.179 42.7518C197.036 42.6041 196.865 42.4874 196.675 42.4092C196.485 42.331 196.281 42.2929 196.076 42.2973C195.869 42.2961 195.664 42.3359 195.472 42.4145C195.28 42.4931 195.106 42.6088 194.96 42.7551C194.813 42.9014 194.697 43.0753 194.618 43.2668C194.538 43.4583 194.498 43.6636 194.498 43.8708Z" fill="white"/>
<path d="M149.123 56.6492L149.175 55.9937C149.421 56.0731 149.677 56.1139 149.935 56.1148C150.169 56.1148 150.259 56.0922 150.372 55.9336C150.647 55.3571 150.766 54.7183 150.718 54.0813C150.718 53.4031 150.507 53.207 149.973 53.207C149.852 53.207 149.717 53.2149 149.566 53.2227C149.279 54.3923 148.801 55.5067 148.152 56.5211L147.527 56.182C148.137 55.3053 148.583 54.3255 148.844 53.2898C148.432 53.3344 148.022 53.4025 147.618 53.4937L147.482 52.8304C147.941 52.7476 148.49 52.6726 149.002 52.6273C149.107 52.1272 149.185 51.6218 149.235 51.1132L149.973 51.1961C149.905 51.6554 149.822 52.1156 149.717 52.5672H150.011C150.966 52.5672 151.425 53.0414 151.425 54.0507C151.467 54.821 151.317 55.5894 150.989 56.2875C150.903 56.4479 150.771 56.5792 150.61 56.665C150.449 56.7508 150.267 56.7871 150.086 56.7695C149.761 56.7673 149.438 56.727 149.123 56.6492ZM151.545 52.5898L152.095 52.2203C152.857 52.9559 153.316 53.9504 153.382 55.0078L152.659 55.1203C152.654 54.6451 152.552 54.1759 152.361 53.741C152.17 53.3061 151.892 52.9145 151.545 52.5898Z" fill="white"/>
<path d="M155.876 56.7547L155.726 56.0766C155.914 56.0922 156.162 56.0992 156.313 56.0992C157.802 56.0992 158.367 55.6781 158.367 55.0523C158.367 54.5555 158.043 54.2695 157.321 54.2695C156.533 54.3418 155.8 54.701 155.259 55.2789L154.679 55.0227C154.57 54.0361 154.795 53.0412 155.319 52.1984L155.989 52.4164C155.572 52.9804 155.369 53.6748 155.417 54.375C156.021 53.949 156.734 53.7057 157.471 53.6742C158.48 53.6742 159.104 54.1937 159.104 55.0374C159.104 56.107 158.261 56.7624 156.237 56.7624C156.139 56.7625 155.997 56.7547 155.876 56.7547ZM155.176 51.7539L155.364 51.0906C156.365 51.2439 157.354 51.4706 158.322 51.7687L158.141 52.4242C157.175 52.1121 156.183 51.8877 155.176 51.7539Z" fill="white"/>
<path d="M161.284 56.2352C162.06 55.9795 162.757 55.528 163.308 54.9242C162.871 54.5622 162.4 54.2445 161.901 53.9758L162.315 53.4563C162.818 53.7125 163.296 54.0148 163.744 54.3594C164.104 53.8346 164.354 53.243 164.482 52.6195H162.563C162.122 53.3345 161.568 53.973 160.923 54.5102L160.373 54.036C161.302 53.269 162.022 52.2791 162.465 51.1586L163.188 51.3321C163.105 51.543 163.022 51.761 162.924 51.9649H164.79L165.325 52.2133C165.195 53.2356 164.792 54.2037 164.157 55.0152C163.523 55.8266 162.681 56.4512 161.72 56.8227L161.284 56.2352ZM164.459 50.9781L164.881 50.7742C165.094 51.0609 165.274 51.3719 165.415 51.7008L164.941 51.9195C164.821 51.5863 164.659 51.2699 164.459 50.9781ZM165.4 50.9023L165.828 50.6992C166.045 50.9949 166.23 51.3131 166.378 51.6484L165.904 51.8516C165.778 51.5145 165.608 51.1954 165.4 50.9023Z" fill="white"/>
<path d="M168.693 56.7922L168.309 56.182C169.084 56.0582 169.786 55.649 170.276 55.0348C170.766 54.4205 171.009 53.6453 170.958 52.8609H167.797V54.375H167.037V52.2203H168.926V51.1133H169.686V52.2203H171.093L171.785 52.4164C171.695 54.5555 170.98 56.1898 168.693 56.7922Z" fill="white"/>
<path d="M173.248 52.2734L173.67 51.6555C174.328 51.9566 174.949 52.3334 175.52 52.7781L175.039 53.4258C174.49 52.9708 173.889 52.5839 173.248 52.2734ZM173.391 55.9867C174.312 55.848 175.186 55.4914 175.941 54.9463C176.696 54.4013 177.311 53.6837 177.733 52.8531L178.229 53.4109C177.771 54.2686 177.122 55.0097 176.333 55.5775C175.544 56.1453 174.636 56.5248 173.677 56.6867L173.391 55.9867Z" fill="white"/>
<path d="M184.397 56.3484H179.664V51.8664H184.397L184.397 56.3484ZM180.409 52.5594V55.6555H183.645V52.5594H180.409Z" fill="white"/>
<path d="M191.174 54.3367H185.854V53.5687H191.174V54.3367Z" fill="white"/>
<path d="M192.984 51.1359H193.729V53.0641C194.719 53.4766 195.68 53.9575 196.604 54.5031L196.182 55.1656C195.399 54.6641 194.579 54.2235 193.729 53.8476V56.7547H192.984V51.1359ZM194.752 51.543L195.196 51.332C195.414 51.6514 195.593 51.9951 195.731 52.3563L195.242 52.575C195.124 52.2112 194.959 51.8643 194.752 51.543ZM195.61 51.2188L196.062 51.0078C196.29 51.3254 196.48 51.6692 196.626 52.032L196.137 52.2508C196.003 51.8871 195.826 51.5407 195.61 51.2188Z" fill="white"/>
<path d="M139.798 48.2405C139.806 47.5728 139.983 46.9181 140.313 46.3373C140.642 45.7566 141.113 45.2686 141.681 44.9189C141.32 44.4028 140.844 43.978 140.29 43.6784C139.736 43.3787 139.12 43.2125 138.491 43.1928C137.149 43.0517 135.848 43.9966 135.164 43.9966C134.467 43.9966 133.414 43.2068 132.28 43.2301C131.546 43.2538 130.831 43.4673 130.205 43.8498C129.578 44.2322 129.062 44.7706 128.705 45.4124C127.159 48.0911 128.312 52.028 129.793 54.1933C130.534 55.2535 131.399 56.4379 132.532 56.3959C133.641 56.3499 134.055 55.6883 135.393 55.6883C136.719 55.6883 137.107 56.3959 138.263 56.3692C139.453 56.3499 140.202 55.3042 140.917 54.2339C141.449 53.4784 141.859 52.6434 142.131 51.7599C141.44 51.4673 140.85 50.9776 140.435 50.3517C140.02 49.7259 139.798 48.9916 139.798 48.2405Z" fill="white"/>
<path d="M137.614 41.7687C138.263 40.9893 138.583 39.9876 138.505 38.9762C137.514 39.0804 136.599 39.5544 135.941 40.3039C135.62 40.67 135.374 41.096 135.217 41.5574C135.06 42.0188 134.996 42.5067 135.027 42.993C135.523 42.9981 136.013 42.8906 136.461 42.6785C136.91 42.4665 137.304 42.1554 137.614 41.7687Z" fill="white"/>
</g>
<rect x="239" width="96" height="96" rx="20" fill="black"/>
<g clip-path="url(#clip2_2007_2900)">
<path d="M259.601 57.4201C263.081 57.4201 265.77 54.7236 265.77 50.7327V35.2H269.536V60.3689H265.806V58.0316C264.121 59.7933 261.789 60.8 259.171 60.8C253.791 60.8 249.666 56.881 249.666 50.9486V35.2H253.432V50.7327C253.432 54.7956 256.086 57.4201 259.601 57.4201Z" fill="white"/>
<path d="M272.334 35.2H275.956V44.3685C277.606 42.6788 279.902 41.6361 282.449 41.6361C287.829 41.6361 292.061 45.9149 292.061 51.2364C292.061 56.5578 287.829 60.8006 282.449 60.8006C279.902 60.8006 277.571 59.7579 275.92 58.0682V60.3695H272.334V35.2ZM282.197 57.5999C285.641 57.5999 288.474 54.7596 288.474 51.2358C288.474 47.7119 285.641 44.8716 282.197 44.8716C278.754 44.8716 275.885 47.6759 275.885 51.2358C275.885 54.7956 278.682 57.5999 282.197 57.5999Z" fill="white"/>
<path d="M302.893 41.6721C308.166 41.6721 312.039 45.735 312.039 51.2004V52.387H297.154C297.656 55.3712 300.131 57.6005 303.216 57.6005C305.332 57.6005 307.125 56.7377 308.489 54.9041L311.107 56.8456C309.278 59.2902 306.552 60.7646 303.217 60.7646C297.729 60.7646 293.496 56.6657 293.496 51.2004C293.496 46.0228 297.549 41.6721 302.894 41.6721M297.226 49.5101H308.381C307.771 46.7058 305.512 44.8362 302.821 44.8362C300.131 44.8362 297.872 46.7058 297.226 49.5101Z" fill="white"/>
<path d="M321.76 45.2673C319.393 45.2673 317.671 47.1009 317.671 49.9412V60.3683H314.049V42.0313H317.635V44.2966C318.532 42.8222 320.003 41.8874 322.011 41.8874H323.267V45.2673H321.761H321.76Z" fill="white"/>
</g>
<defs>
<clipPath id="clip0_2007_2900">
<rect width="108" height="32" fill="white" transform="translate(0 32)"/>
</clipPath>
<clipPath id="clip1_2007_2900">
<rect width="87" height="32" fill="white" transform="translate(120 32)"/>
</clipPath>
<clipPath id="clip2_2007_2900">
<rect width="73.6" height="25.6" fill="white" transform="translate(249.666 35.2)"/>
</clipPath>
</defs>
</svg>
