<svg width="96" height="96" viewBox="0 0 96 96" fill="none" xmlns="http://www.w3.org/2000/svg">
<mask id="mask0_0_4" style="mask-type:luminance" maskUnits="userSpaceOnUse" x="0" y="0" width="96" height="96">
<path d="M0 7.62939e-06H96V96H0V7.62939e-06Z" fill="white"/>
</mask>
<g mask="url(#mask0_0_4)">
<path d="M62.2807 70.2486V83.8836C62.2807 88.5042 58.5348 92.25 53.9142 92.25H21.7668C17.1462 92.25 13.4003 88.5042 13.4003 83.8836V12.1164C13.4003 7.4958 17.1462 3.74989 21.7668 3.74989H53.9142C58.5348 3.74989 62.2807 7.4958 62.2807 12.1164V18.6104C62.2807 19.6459 63.1201 20.4854 64.1556 20.4854C65.1912 20.4854 66.0307 19.646 66.0307 18.6104V12.1164C66.0307 5.42474 60.6058 -1.52588e-05 53.9142 -1.52588e-05H21.7668C15.0751 -1.52588e-05 9.65039 5.42474 9.65039 12.1164V83.8836C9.65039 90.5753 15.0752 95.9999 21.7668 95.9999H53.9142C60.6058 95.9999 66.0307 90.5753 66.0307 83.8836V70.2486C66.0307 69.2131 65.1911 68.3737 64.1556 68.3737C63.1201 68.3737 62.2807 69.2131 62.2807 70.2486Z" fill="#044396"/>
<path d="M63.9504 82.1011C64.9859 82.101 65.8253 81.2616 65.8253 80.2261C65.8253 79.1906 64.9859 78.3512 63.9504 78.3512H11.7324C10.6968 78.3512 9.85742 79.1906 9.85742 80.2261C9.85742 81.2616 10.6968 82.1011 11.7324 82.1011H63.9504Z" fill="#044396"/>
<path d="M48.9705 10.7753C50.006 10.7752 50.8454 9.93582 50.8454 8.90031C50.8454 7.86479 50.006 7.02538 48.9705 7.02535H47.3945C46.359 7.02535 45.5195 7.86477 45.5195 8.90031C45.5195 9.93584 46.359 10.7753 47.3945 10.7753H48.9705Z" fill="#044396"/>
<path d="M39.4729 10.7753C40.5084 10.7753 41.3478 9.93584 41.3478 8.90031C41.3478 7.86477 40.5084 7.02535 39.4729 7.02535H26.7109C25.6754 7.02535 24.8359 7.86477 24.8359 8.90031C24.8359 9.93584 25.6754 10.7753 26.7109 10.7753H39.4729Z" fill="#044396"/>
<path d="M24.8359 16.2805V72.2913C24.8359 73.3268 25.6754 74.1662 26.7109 74.1662C27.7464 74.1662 28.5858 73.3268 28.5858 72.2913V16.2805C28.5858 15.245 27.7464 14.4056 26.7109 14.4056C25.6754 14.4056 24.836 15.245 24.8359 16.2805Z" fill="#044396"/>
<path d="M84.4748 28.7809H26.7109V44.0042H84.4748V28.7809Z" fill="#C2C9D0"/>
<path d="M36.9534 61.6412H27.1875V51.8753H36.9534V61.6412Z" fill="#C2C9D0"/>
<path d="M54.4357 61.6412H44.6699V51.8753H54.4357V61.6412Z" fill="#C2C9D0"/>
<path d="M75.4345 55.2502C76.47 55.2502 77.3094 54.4108 77.3094 53.3752C77.3094 52.3397 76.47 51.5003 75.4345 51.5003H63.9453C62.9097 51.5003 62.0703 52.3397 62.0703 53.3752C62.0703 54.4108 62.9097 55.2502 63.9453 55.2502H75.4345Z" fill="#044396"/>
<path d="M75.4345 62.0161C76.47 62.0161 77.3094 61.1767 77.3094 60.1412C77.3094 59.1056 76.47 58.2662 75.4345 58.2662H63.9453C62.9097 58.2662 62.0703 59.1056 62.0703 60.1412C62.0703 61.1767 62.9097 62.0161 63.9453 62.0161H75.4345Z" fill="#044396"/>
<path d="M82.5997 65.2576C82.5997 66.7811 81.3646 68.0163 79.841 68.0163H28.5858V20.7741H79.841C81.3647 20.7741 82.5997 22.0092 82.5997 23.5328V65.2576ZM86.3498 23.5328C86.3498 19.9381 83.4358 17.0241 79.841 17.0241H26.7109C25.6754 17.0241 24.8359 17.8637 24.8359 18.8992V69.8913C24.8359 70.9268 25.6754 71.7662 26.7109 71.7662H79.841C83.4358 71.7662 86.3497 68.8521 86.3498 65.2576V23.5328Z" fill="#044396"/>
</g>
</svg>
