<svg width="96" height="96" viewBox="0 0 96 96" fill="none" xmlns="http://www.w3.org/2000/svg">
<path d="M48.0008 11.9338C24.7478 11.9338 5.83008 30.8515 5.83008 54.1045C7.9502 109.973 88.0597 109.958 90.1714 54.104C90.1716 30.8515 71.2537 11.9338 48.0008 11.9338ZM76.6972 79.6095C72.6444 75.839 67.8993 72.9184 62.6963 70.9833C63.4494 66.2954 63.8838 61.224 63.9676 55.9847H86.3653C85.9272 65.0273 82.3477 73.259 76.6972 79.6095ZM9.63633 55.9847H32.0338C32.1179 61.224 32.5521 66.2954 33.3051 70.9833C28.102 72.9182 23.357 75.8386 19.3043 79.6094C13.6539 73.259 10.0745 65.0271 9.63633 55.9847ZM19.3046 28.5995C23.3572 32.3703 28.1025 35.2907 33.3055 37.2256C32.5524 41.9135 32.1181 46.9847 32.0342 52.224H9.63652C10.0745 43.1816 13.6541 34.9499 19.3046 28.5995ZM48.0008 68.3403C44.2322 68.3403 40.5248 68.8359 36.9266 69.8175C36.2607 65.4891 35.8749 60.8173 35.7953 55.9849H60.2067C60.1272 60.8175 59.7411 65.4891 59.0755 69.8175C55.477 68.8359 51.7697 68.3403 48.0008 68.3403ZM58.4194 73.5252C57.3585 79.8604 53.0414 92.4899 48.0006 92.313C42.9563 92.4831 38.6463 79.8683 37.5822 73.5252C44.2482 71.6309 51.7535 71.6311 58.4194 73.5252ZM35.7951 52.224C35.8747 47.3916 36.2607 42.7198 36.9264 38.3914C44.0927 40.3596 51.9088 40.3596 59.0751 38.3914C59.7409 42.7198 60.1268 47.3916 60.2063 52.224H35.7951ZM48.0008 36.1079C44.4309 36.1079 40.9325 35.6225 37.5824 34.6837C38.6435 28.3487 42.9605 15.719 48.001 15.8961C53.0455 15.7259 57.3555 28.3404 58.4194 34.6837C55.0691 35.6227 51.5707 36.1079 48.0008 36.1079ZM59.7379 25.156C58.4467 21.485 56.923 18.5348 55.2314 16.3771C62.4154 17.7511 68.8953 21.1328 74.0628 25.9134C70.5029 29.2063 66.4202 31.7556 62.0098 33.4812C61.3891 30.485 60.6287 27.6881 59.7379 25.156ZM36.2635 25.156C35.3728 27.6883 34.6124 30.4852 33.9917 33.4814C29.5813 31.7557 25.4988 29.2065 21.9387 25.9136C27.1061 21.1328 33.5861 17.7513 40.7699 16.3773C39.0785 18.5348 37.555 21.4848 36.2635 25.156ZM33.9917 74.7275C35.2006 80.658 37.4405 87.6331 40.77 91.8318C33.5861 90.4578 27.1061 87.0761 21.9387 82.2953C25.4986 79.0024 29.5813 76.4531 33.9917 74.7275ZM59.7379 83.0529C60.6287 80.5206 61.3891 77.7237 62.01 74.7275C66.4204 76.4531 70.5031 79.0024 74.063 82.2955C68.8955 87.0763 62.4154 90.458 55.2316 91.8318C56.923 89.6742 58.4467 86.7241 59.7379 83.0529ZM63.9676 52.224C63.8836 46.9847 63.4494 41.9133 62.6963 37.2254C67.8995 35.2903 72.6444 32.3701 76.6972 28.5993C82.3477 34.9497 85.9272 43.1814 86.3653 52.2238H63.9676V52.224Z" fill="#044396"/>
<path fill-rule="evenodd" clip-rule="evenodd" d="M67.2917 3.8147e-06C62.5235 3.8147e-06 58.6582 3.86549 58.6582 8.63374C58.6582 13.415 64.3053 19.4024 67.2917 22.8279C70.2782 19.4023 75.9255 13.4148 75.9255 8.63374C75.9253 3.86549 72.06 3.8147e-06 67.2917 3.8147e-06Z" fill="#C2C9D0"/>
<path fill-rule="evenodd" clip-rule="evenodd" d="M31.2607 60.7746C26.4924 60.7746 22.627 64.6399 22.627 69.4081C22.627 74.1894 28.2741 80.1769 31.2607 83.6023C34.2471 80.1769 39.8942 74.1892 39.8942 69.4081C39.8942 64.6401 36.0289 60.7746 31.2607 60.7746Z" fill="#C2C9D0"/>
<path fill-rule="evenodd" clip-rule="evenodd" d="M39.196 25.1701C34.4278 25.1701 30.5625 29.0356 30.5625 33.8037C30.5625 38.5847 36.2096 44.5724 39.196 47.9978C42.1824 44.5722 47.8296 38.5847 47.8296 33.8037C47.8298 29.0356 43.9643 25.1701 39.196 25.1701Z" fill="#C2C9D0"/>
<path fill-rule="evenodd" clip-rule="evenodd" d="M67.1376 44.7544C62.3694 44.7544 58.5039 48.6199 58.5039 53.3879C58.5039 58.169 64.151 64.1566 67.1376 67.5821C70.124 64.1566 75.7712 58.169 75.7712 53.3879C75.7712 48.6199 71.9059 44.7544 67.1376 44.7544Z" fill="#C2C9D0"/>
<path d="M67.2932 10.5139C68.3316 10.5139 69.1736 9.67208 69.1736 8.63355C69.0815 6.14187 65.5035 6.14224 65.4121 8.63355C65.4121 9.67208 66.2547 10.5139 67.2932 10.5139Z" fill="#044396"/>
<path d="M31.262 67.5278C30.2231 67.527 29.3809 68.369 29.3809 69.4081C29.4732 71.8991 33.0504 71.8996 33.1424 69.4081C33.1424 68.3698 32.3005 67.5278 31.262 67.5278Z" fill="#044396"/>
<path d="M39.1975 31.9233C38.1584 31.9223 37.3164 32.7646 37.3164 33.8037C37.4087 36.2946 40.986 36.2951 41.0779 33.8037C41.0779 32.7651 40.2361 31.9233 39.1975 31.9233Z" fill="#044396"/>
<path d="M67.1389 51.5077C66.1 51.507 65.2578 52.3492 65.2578 53.3881C65.3501 55.879 68.9274 55.8796 69.0193 53.3881C69.0193 52.3496 68.1775 51.5077 67.1389 51.5077Z" fill="#044396"/>
</svg>
