<svg width="96" height="96" viewBox="0 0 96 96" fill="none" xmlns="http://www.w3.org/2000/svg">
<g clip-path="url(#clip0_0_44)">
<path d="M90.3592 37.6539H54.5805C53.5449 37.6539 52.7055 38.4936 52.7055 39.5289C52.7055 40.5643 53.5449 41.4039 54.5805 41.4039H90.3592C91.4015 41.4039 92.2492 42.2516 92.2492 43.2939V80.9458C92.2492 81.9889 91.4013 82.8377 90.3592 82.8377H86.5942C86.0042 82.8377 85.4486 83.1154 85.0944 83.5875L80.945 89.118L76.7973 83.5877C76.4432 83.1156 75.8874 82.8377 75.2973 82.8377H47.058C46.0157 82.8377 45.168 81.9891 45.168 80.9458V50.8164C45.168 49.7811 44.3283 48.9414 43.293 48.9414C42.2574 48.9414 41.418 49.7811 41.418 50.8164V80.9458C41.418 84.0568 43.9481 86.5877 47.058 86.5877H74.3598L79.4448 93.3677C80.2003 94.3747 81.701 94.359 82.4447 93.3679L87.5315 86.5877H90.3592C93.4691 86.5877 95.9992 84.0568 95.9992 80.9458V43.2939C95.9992 40.1842 93.4691 37.6539 90.3592 37.6539Z" fill="#044396"/>
<path d="M8.46806 50.8166H5.64038C2.53031 50.8166 0 48.2861 0 45.1761V7.52306C0 4.413 2.53031 1.88287 5.64038 1.88287H48.9414C52.0515 1.88287 54.5816 4.413 54.5816 7.52306V45.1761C54.5816 48.2861 52.0515 50.8164 48.9414 50.8164H21.639L15.0534 59.5971L8.46806 50.8166Z" fill="#C2C9D0"/>
<path d="M14 34.0799C14 31.1999 16.08 27.1039 21.552 24.6079C21.584 23.1679 21.68 21.7279 21.808 20.3199C20.336 20.3839 18.928 20.4159 17.68 20.4159C16.624 20.4159 16.112 19.6159 16.112 18.7839C16.112 17.9839 16.624 17.1839 17.68 17.1839C19.024 17.1839 20.56 17.1519 22.128 17.0559C22.256 15.8719 22.416 14.6559 22.608 13.3759C22.768 12.4479 23.568 11.9999 24.336 11.9999C25.2 11.9999 26.032 12.5119 26.032 13.4079C26.032 13.5039 26 13.5679 26 13.6639C25.84 14.7519 25.68 15.8079 25.52 16.8319C27.856 16.6399 30.128 16.3519 31.92 16.0319C32.048 15.9999 32.176 15.9999 32.304 15.9999C33.36 15.9999 33.936 16.7999 33.936 17.5999C33.936 18.3039 33.488 19.0399 32.528 19.1999C30.416 19.5839 27.792 19.8719 25.136 20.0959C25.072 21.2159 24.944 22.3679 24.88 23.5199C26.416 23.1679 28.016 23.0079 29.584 23.0079C29.712 22.5919 29.84 22.1759 29.936 21.7279C30.128 20.9279 30.832 20.5759 31.536 20.5759C32.368 20.5759 33.2 21.0879 33.2 21.9839C33.2 22.1119 33.168 22.2399 33.136 22.3999C33.04 22.7199 32.976 23.0399 32.88 23.3599C37.296 24.3839 39.824 27.6799 39.824 31.4879C39.824 36.1599 36.624 39.6479 31.28 40.9599C31.12 40.9919 30.928 41.0239 30.768 41.0239C29.744 41.0239 29.072 40.1599 29.072 39.2639C29.072 38.5919 29.488 37.8879 30.448 37.5999C34.512 36.3519 36.208 34.2719 36.208 31.5199C36.208 29.3119 34.768 27.0719 31.888 26.2719C30.512 29.7919 28.496 33.1519 25.616 35.6159C25.744 36.2879 25.872 36.9279 26.032 37.5359C26.064 37.6639 26.096 37.8239 26.096 37.9519C26.096 38.9439 25.168 39.5199 24.304 39.5199C23.632 39.5199 22.96 39.1679 22.768 38.3679L22.576 37.5679C21.2 38.3999 19.888 38.6879 18.512 38.6879C15.792 38.6879 14 36.9599 14 34.0799ZM17.392 33.8559C17.392 34.8799 17.648 35.3279 18.736 35.3599C19.696 35.3599 20.624 35.0719 21.968 34.2079C21.68 32.1279 21.52 30.0479 21.488 27.9679C18.544 29.8879 17.36 32.0319 17.392 33.8559ZM25.04 31.8079C26.544 30.0799 27.696 28.0959 28.56 25.9839C27.28 26.0479 26.032 26.2399 24.784 26.5919V27.1359C24.784 28.5759 24.88 30.1759 25.04 31.8079Z" fill="#044396"/>
<path d="M62.0022 74.0535L63.8688 68.8903H73.5698L75.4176 74.0483C75.7673 75.0251 76.8426 75.5301 77.815 75.1811C78.79 74.832 79.297 73.7586 78.9479 72.7837C70.7862 50.0023 70.9649 50.4932 70.9315 50.4122C70.5657 49.5232 69.7088 48.9491 68.7477 48.9491C68.7468 48.9491 68.7458 48.9491 68.7449 48.9491C67.7352 48.9503 66.8628 49.5849 66.5341 50.4889L58.4755 72.7785C58.1234 73.7524 58.6276 74.8273 59.6012 75.1794C60.5753 75.5317 61.6501 75.0272 62.0022 74.0535ZM68.7415 55.4124L72.2264 65.1403H65.2246L68.7415 55.4124Z" fill="#044396"/>
<path d="M28.2328 77.1891H16.9291V67.506L19.6621 69.3281C20.52 69.9 21.6855 69.6737 22.2622 68.8082C22.8365 67.9466 22.6038 66.7824 21.7423 66.2081L16.1051 62.4497C15.4027 62.0102 14.6583 62.0325 14.0143 62.4426C8.56777 66.0737 8.50515 66.1155 8.3664 66.2079C7.50465 66.7824 7.27196 67.9464 7.84646 68.808C8.42077 69.6698 9.58533 69.9024 10.4465 69.3279L13.1793 67.506V79.0639C13.1793 80.0993 14.019 80.9389 15.0543 80.9389H28.233C29.2683 80.9389 30.108 80.0993 30.108 79.0639C30.1078 78.0285 29.2683 77.1891 28.2328 77.1891Z" fill="#044396"/>
<path d="M62.4437 14.2112C66.0748 19.6577 66.1166 19.7203 66.209 19.8591C66.5704 20.4011 67.1649 20.6942 67.7707 20.6942C68.1281 20.6942 68.4896 20.5922 68.8091 20.379C69.6709 19.8047 69.9035 18.6405 69.329 17.7789L67.5071 15.0461H77.19V26.3496C77.19 27.3849 78.0296 28.2246 79.065 28.2246C80.1004 28.2246 80.94 27.3849 80.94 26.3496V13.1711C80.94 12.1357 80.1004 11.2961 79.065 11.2961H67.5071L69.3292 8.56312C69.9037 7.70156 69.6709 6.53737 68.8093 5.96306C67.9479 5.38894 66.7837 5.62144 66.2092 6.483C61.9599 12.8567 62.4868 12.0579 62.4403 12.1374C62.0537 12.7189 62.0014 13.5161 62.4437 14.2112Z" fill="#044396"/>
</g>
<defs>
<clipPath id="clip0_0_44">
<rect width="96" height="96" fill="white"/>
</clipPath>
</defs>
</svg>
