<svg width="96" height="96" fill="none" xmlns="http://www.w3.org/2000/svg"><path d="M48 11.934c-23.252 0-42.17 18.918-42.17 42.17 2.12 55.869 82.23 55.854 84.341 0 0-23.252-18.917-42.17-42.17-42.17zm28.697 67.675a42.025 42.025 0 00-14-8.626c.752-4.688 1.187-9.759 1.27-14.998h22.398c-.438 9.042-4.017 17.274-9.668 23.624zM9.637 55.986h22.397c.084 5.239.518 10.31 1.271 14.998a42.015 42.015 0 00-14 8.626c-5.651-6.35-9.23-14.582-9.669-23.624zM19.305 28.6a42.015 42.015 0 0014 8.627c-.753 4.688-1.187 9.759-1.27 14.998H9.636c.438-9.042 4.017-17.274 9.668-23.624zM48 68.34a41.98 41.98 0 00-11.074 1.477c-.666-4.328-1.052-9-1.132-13.832h24.412c-.08 4.833-.466 9.504-1.132 13.832A41.984 41.984 0 0048 68.34zm10.418 5.185C57.358 79.86 53.04 92.49 48 92.313c-5.045.17-9.355-12.445-10.419-18.788 6.666-1.894 14.172-1.894 20.837 0zM35.795 52.224c.08-4.832.466-9.504 1.131-13.833 7.167 1.969 14.983 1.969 22.15 0 .665 4.329 1.05 9 1.13 13.833h-24.41zm12.206-16.116a38.57 38.57 0 01-10.419-1.424c1.062-6.335 5.379-18.965 10.419-18.788 5.044-.17 9.355 12.444 10.418 18.788a38.57 38.57 0 01-10.418 1.424zm11.737-10.952c-1.291-3.671-2.815-6.621-4.507-8.779a38.336 38.336 0 0118.832 9.536 38.27 38.27 0 01-12.053 7.568c-.62-2.996-1.381-5.793-2.272-8.325zm-23.474 0c-.891 2.532-1.652 5.33-2.272 8.325a38.275 38.275 0 01-12.053-7.567 38.335 38.335 0 0118.83-9.537c-1.69 2.158-3.214 5.108-4.505 8.779zm-2.272 49.572c1.209 5.93 3.449 12.905 6.778 17.104a38.335 38.335 0 01-18.831-9.537 38.27 38.27 0 0112.053-7.567zm25.746 8.325c.89-2.532 1.651-5.33 2.272-8.325a38.268 38.268 0 0112.053 7.568 38.334 38.334 0 01-18.831 9.536c1.691-2.158 3.215-5.108 4.506-8.78zm4.23-30.829c-.084-5.24-.519-10.31-1.272-14.999A42.018 42.018 0 0076.697 28.6c5.65 6.35 9.23 14.582 9.668 23.625H63.968z" fill="#044396"/><path fill-rule="evenodd" clip-rule="evenodd" d="M67.292 0a8.634 8.634 0 00-8.634 8.634c0 4.781 5.647 10.768 8.634 14.194 2.986-3.426 8.633-9.413 8.633-14.194A8.634 8.634 0 0067.293 0zM31.26 60.775a8.634 8.634 0 00-8.633 8.633c0 4.781 5.647 10.769 8.634 14.194 2.986-3.425 8.633-9.413 8.633-14.194a8.634 8.634 0 00-8.633-8.633zm7.936-35.605a8.634 8.634 0 00-8.633 8.634c0 4.78 5.647 10.768 8.633 14.194 2.986-3.426 8.634-9.413 8.634-14.194a8.633 8.633 0 00-8.634-8.634zm27.942 19.584a8.634 8.634 0 00-8.634 8.634c0 4.781 5.647 10.769 8.634 14.194 2.986-3.425 8.633-9.413 8.633-14.194a8.634 8.634 0 00-8.633-8.634z" fill="#C2C9D0"/><path d="M67.293 10.514a1.88 1.88 0 001.88-1.88c-.091-2.492-3.67-2.492-3.76 0a1.88 1.88 0 001.88 1.88zM31.262 67.528a1.88 1.88 0 00-1.881 1.88c.092 2.491 3.67 2.492 3.761 0a1.88 1.88 0 00-1.88-1.88zm7.935-35.605a1.88 1.88 0 00-1.88 1.88c.092 2.492 3.669 2.492 3.76 0a1.88 1.88 0 00-1.88-1.88zm27.942 19.585a1.88 1.88 0 00-1.881 1.88c.092 2.491 3.67 2.492 3.761 0a1.88 1.88 0 00-1.88-1.88z" fill="#044396"/></svg>