<svg width="335" height="96" fill="none" xmlns="http://www.w3.org/2000/svg"><g clip-path="url(#clip0_2007_2900)"><path d="M104.042 32H3.956A4.002 4.002 0 00-.05 36v24c0 2.209 1.793 4 4.005 4h100.086a4.003 4.003 0 004.004-4V36c0-2.209-1.793-4-4.004-4z" fill="#000"/><path d="M104.046 32.641a3.367 3.367 0 013.363 3.36v23.998c0 1.852-1.51 3.36-3.363 3.36H3.956a3.366 3.366 0 01-3.363-3.36V36.001c0-1.852 1.51-3.36 3.363-3.36h100.09zm0-.641H3.956A4.016 4.016 0 00-.05 36v24c0 2.198 1.803 4 4.005 4h100.09c2.201 0 4.005-1.802 4.005-4V36c0-2.198-1.804-4-4.005-4z" fill="#A6A6A6"/><path d="M54.512 40.602c-1.884 0-3.416 1.431-3.416 3.4 0 1.968 1.536 3.4 3.416 3.4s3.417-1.445 3.417-3.4c0-1.955-1.537-3.4-3.417-3.4zm0 5.463c-1.03 0-1.92-.849-1.92-2.063 0-1.215.89-2.064 1.92-2.064 1.03 0 1.921.835 1.921 2.064 0 1.228-.89 2.063-1.92 2.063zm-7.457-5.463c-1.885 0-3.417 1.431-3.417 3.4 0 1.968 1.537 3.4 3.417 3.4s3.417-1.445 3.417-3.4c0-1.955-1.537-3.4-3.417-3.4zm0 5.463c-1.03 0-1.92-.849-1.92-2.063 0-1.215.89-2.064 1.92-2.064 1.03 0 1.92.835 1.92 2.064 0 1.228-.89 2.063-1.92 2.063zm-8.872-4.42v1.445h3.458c-.104.812-.375 1.404-.787 1.82-.502.5-1.288 1.056-2.67 1.056-2.13 0-3.793-1.716-3.793-3.843 0-2.126 1.663-3.842 3.792-3.842a3.68 3.68 0 012.603 1.03l1.022-1.021c-.863-.826-2.011-1.454-3.625-1.454-2.915 0-5.365 2.37-5.365 5.283 0 2.912 2.45 5.283 5.365 5.283 1.573 0 2.762-.515 3.688-1.481.954-.953 1.252-2.294 1.252-3.378a4.88 4.88 0 00-.077-.903h-4.863v.005zm36.279 1.12c-.285-.76-1.148-2.168-2.915-2.168-1.767 0-3.214 1.377-3.214 3.4 0 1.906 1.447 3.4 3.38 3.4 1.56 0 2.464-.953 2.84-1.508l-1.162-.772c-.389.569-.918.94-1.677.94-.76 0-1.302-.349-1.65-1.03l4.556-1.883-.154-.389-.004.01zm-4.646 1.137c-.041-1.314 1.021-1.986 1.78-1.986.593 0 1.099.298 1.266.722l-3.046 1.264zM66.114 47.2h1.496V37.197h-1.496V47.2zm-2.45-5.839h-.05c-.334-.397-.98-.758-1.793-.758-1.704 0-3.264 1.494-3.264 3.413 0 1.92 1.56 3.391 3.264 3.391.813 0 1.455-.361 1.794-.772h.05v.488c0 1.3-.697 1.995-1.822 1.995-.917 0-1.482-.659-1.717-1.21l-1.302.542c.375.903 1.37 2.01 3.02 2.01 1.753 0 3.235-1.03 3.235-3.545v-6.11H63.66v.556h.005zm-1.717 4.705c-1.03 0-1.898-.862-1.898-2.05 0-1.187.863-2.077 1.898-2.077s1.822.876 1.822 2.077-.8 2.05-1.822 2.05zm19.525-8.868h-3.58V47.2h1.496v-3.79h2.088c1.654 0 3.286-1.196 3.286-3.106s-1.627-3.107-3.286-3.107h-.004zm.036 4.822h-2.124v-3.427h2.124c1.116 0 1.749.926 1.749 1.716 0 .79-.633 1.716-1.75 1.716v-.005zm9.233-1.435c-1.08 0-2.2.474-2.666 1.53l1.329.556c.284-.556.809-.732 1.365-.732.772 0 1.559.465 1.572 1.287v.104a3.317 3.317 0 00-1.559-.388c-1.428 0-2.883.785-2.883 2.253 0 1.336 1.17 2.199 2.485 2.199 1.004 0 1.56-.452 1.908-.976h.05v.773h1.441v-3.834c0-1.775-1.329-2.768-3.042-2.768v-.004zm-.18 5.481c-.489 0-1.171-.244-1.171-.849 0-.772.85-1.07 1.582-1.07.655 0 .967.14 1.365.334a1.81 1.81 0 01-1.776 1.58v.005zm8.474-5.265l-1.713 4.335h-.05L95.496 40.8h-1.609l2.666 6.06-1.518 3.373h1.56l4.108-9.433h-1.668zM85.58 47.2h1.496V37.197H85.58V47.2z" fill="#fff"/><path d="M16.544 47.537l-8.524 9.04v.004a2.3 2.3 0 003.39 1.386l.026-.017 9.595-5.532-4.492-4.885.005.004z" fill="#EA4335"/><path d="M25.166 45.998h-.01l-4.143-2.407-4.67 4.15 4.683 4.677 4.122-2.375a2.298 2.298 0 001.211-2.027c0-.876-.483-1.63-1.198-2.018h.005z" fill="#FBBC04"/><path d="M8.014 39.423c-.05.19-.076.389-.076.592V55.99c0 .203.027.402.076.591l8.818-8.809-8.818-8.349z" fill="#4285F4"/><path d="M16.607 47.998l4.41-4.407-9.585-5.554a2.3 2.3 0 00-3.412 1.377l8.587 8.58v.004z" fill="#34A853"/><path d="M33.459 54.116c.131-.005.24-.009.325-.018.086-.01.168-.014.235-.018.082-.01.222-.027.434-.05l.75-.081c.29-.032.602-.059.936-.09.334-.032.66-.06.976-.086.271-.023.511-.045.724-.059.212-.018.406-.027.583-.04.176-.01.334-.019.479-.023v.217h-.466a5.934 5.934 0 00-.502.036c-.162.018-.298.05-.41.09-.29.104-.539.248-.756.438-.217.19-.397.402-.538.637a3.21 3.21 0 00-.325.713c-.072.24-.108.465-.108.668 0 .316.054.587.158.818.108.23.248.424.43.578.18.153.379.28.6.374.222.095.448.163.687.208.24.045.466.068.683.072l-.077.194a3.62 3.62 0 01-.705-.076 3.35 3.35 0 01-.719-.235 2.364 2.364 0 01-.633-.415 1.86 1.86 0 01-.447-.619 1.97 1.97 0 01-.167-.844c0-.389.072-.755.221-1.089a3.17 3.17 0 01.583-.885 2.75 2.75 0 01.764-.582l-.633.068c-.253.027-.528.054-.818.08l-.867.096c-.29.031-.552.063-.787.095a10.53 10.53 0 00-.565.085l-.036-.266-.009.009zm4.425.777c.05.067.113.162.185.275.072.113.145.235.221.357.077.122.14.248.195.361l-.195.1a5.31 5.31 0 00-.27-.51 4.676 4.676 0 00-.322-.493l.186-.09zm.74-.262c.055.068.123.162.195.275.072.113.15.235.226.357.077.122.145.248.2.361l-.195.1a8.071 8.071 0 00-.28-.51 5.855 5.855 0 00-.326-.493l.18-.09zm1.37 1.725h6.178v.207h-6.178v-.207zm.452-1.644h5.351v.203h-5.35v-.203zm4.804-1.955l.168.158a6.85 6.85 0 01-.981.248c-.384.073-.796.136-1.238.19-.443.054-.895.1-1.347.13-.457.037-.89.064-1.311.082a1.155 1.155 0 00-.023-.095.657.657 0 00-.027-.085c.412-.023.84-.055 1.293-.086a25.12 25.12 0 001.333-.131c.439-.05.84-.113 1.207-.18.37-.069.678-.15.922-.236l.004.005zm-2.278.501h.208v5.274c0 .126-.022.217-.072.266a.437.437 0 01-.212.118c-.1.018-.253.031-.466.036-.212.004-.51.004-.89 0-.005-.018-.014-.04-.023-.068-.009-.027-.022-.05-.036-.077-.014-.027-.023-.05-.04-.067.216 0 .415.009.6.009h.724c.081-.005.135-.023.162-.05.032-.027.045-.081.045-.154v-5.287zm5.098.113l-.027.09-.027.1a1.584 1.584 0 00-.027.117c-.032.167-.068.343-.1.524-.036.185-.067.37-.094.564a12.796 12.796 0 00-.136 1.156 7.32 7.32 0 00-.023.547c0 .27.01.514.023.74.014.226.04.474.072.75.046-.131.1-.276.159-.439.058-.162.117-.32.176-.478l.149-.402.154.113c-.05.135-.113.293-.181.479-.068.185-.136.36-.19.532a4.355 4.355 0 00-.117.402 1.327 1.327 0 00-.023.15.414.414 0 000 .148l.014.104a.91.91 0 00.013.09l-.194.023a7.268 7.268 0 01-.172-.948 10.52 10.52 0 01-.068-1.26c0-.248.014-.51.04-.772.023-.267.06-.524.096-.781.04-.258.077-.492.117-.71.036-.216.068-.401.09-.555.01-.063.019-.122.023-.171.005-.05.01-.095.01-.136l.261.028-.018-.005zm1.564 3.305a3.827 3.827 0 00-.086.37 1.627 1.627 0 00-.031.316c0 .082.018.172.05.258a.59.59 0 00.19.248c.094.077.234.136.415.185.18.046.42.068.719.068.316 0 .614-.014.899-.045a7.19 7.19 0 00.809-.136l.009.23a7.47 7.47 0 01-.75.114 8.68 8.68 0 01-.931.04c-.565 0-.977-.081-1.225-.248a.793.793 0 01-.375-.695c0-.095.009-.2.027-.316a9.89 9.89 0 01.077-.416l.208.027h-.005zm.018-2.7c.167.032.37.059.615.072.24.018.492.023.76.023.266 0 .514-.01.758-.027a6.18 6.18 0 00.602-.068v.23c-.159.018-.358.032-.602.045-.244.01-.492.019-.759.019a13.863 13.863 0 01-1.374-.064v-.23zm6.808.411l.221.04a10.073 10.073 0 01-.66 1.942 6.168 6.168 0 01-.99 1.5 5.736 5.736 0 01-1.4 1.11.168.168 0 00-.05-.05c-.023-.018-.045-.04-.068-.058-.023-.019-.045-.041-.068-.055a5.27 5.27 0 001.944-1.76c.479-.732.836-1.626 1.07-2.674v.005zm-1.754-1.206h1.97v.208h-1.97v-.208zm1.853 0h.204c0 .195.009.43.022.7.014.271.055.57.118.89a5.882 5.882 0 00.813 2.063c.222.352.506.7.846 1.039.343.334.754.65 1.242.943a.835.835 0 00-.054.041c-.023.018-.045.04-.068.059l-.054.054a6.498 6.498 0 01-1.243-.962 5.837 5.837 0 01-.85-1.06 6.234 6.234 0 01-.831-2.128 7.581 7.581 0 01-.122-.916c-.018-.28-.027-.52-.027-.718l.004-.005zm5.473 1.287c-.032.005-.104.014-.221.032-.113.018-.249.036-.403.054-.153.023-.312.04-.479.068-.162.022-.32.045-.465.067l-.027-.248c.054 0 .108.005.158 0a6.514 6.514 0 00.456-.036c.131-.014.271-.027.416-.045.15-.018.29-.036.425-.059.136-.023.244-.05.325-.077l.127.118c-.04.068-.086.135-.131.212-.045.077-.095.154-.14.235a7.73 7.73 0 01-.127.221l-.022.592c-.082.14-.186.298-.308.478l-.384.565a75.309 75.309 0 01-.818 1.16l-.158-.19.312-.41c.126-.168.257-.348.397-.538.14-.194.276-.384.407-.569.131-.19.249-.356.344-.505.095-.15.162-.262.203-.335l.04-.537.055-.248.018-.005zm-.05-.962v-.203c0-.076-.009-.144-.018-.207l.294.013a6.084 6.084 0 00-.054.402c-.023.199-.045.433-.068.709-.023.275-.045.569-.068.876-.022.307-.04.614-.054.912-.014.298-.023.569-.023.813v1.038c0 .145.005.316.01.515.004.059.009.117.009.162 0 .05.004.1.009.15h-.25c.01-.05.014-.1.019-.15.005-.05 0-.099 0-.158v-1.557c0-.104.005-.249.014-.438.009-.19.018-.402.036-.637.013-.235.027-.474.045-.718s.031-.474.045-.69l.036-.547c.01-.15.014-.244.014-.285h.004zm4.597 4.303c-.208.222-.42.384-.637.488-.217.104-.42.154-.61.154a.707.707 0 01-.489-.172c-.126-.113-.19-.293-.19-.528 0-.199.014-.42.041-.664.027-.244.059-.492.095-.75.036-.257.068-.5.095-.736.027-.234.04-.442.04-.623 0-.23-.058-.397-.171-.492-.113-.1-.271-.144-.48-.144-.162 0-.343.04-.542.122a3.393 3.393 0 00-.619.338 5.697 5.697 0 00-.633.502c-.207.19-.41.392-.6.614l.027-.307c.085-.1.198-.208.339-.34a6.873 6.873 0 01.99-.754c.185-.112.365-.198.546-.266.18-.067.353-.099.51-.099.186 0 .344.032.466.095a.643.643 0 01.285.284c.063.127.1.28.1.461 0 .167-.014.37-.046.61-.031.239-.063.487-.1.75-.035.261-.071.514-.099.753a4.832 4.832 0 00-.045.619c0 .144.036.27.109.379.072.108.19.163.352.163.204 0 .407-.055.606-.167a2.69 2.69 0 00.601-.488l.063.217-.004-.019zm3.715-4.655c-.005.032-.01.086-.018.158a3.455 3.455 0 00-.018.221c-.005.077-.01.14-.01.19v1.418c0 .185.005.397.014.641.01.244.018.488.027.74l.027.719c.01.225.014.415.014.573a.912.912 0 01-.068.357.798.798 0 01-.208.284.964.964 0 01-.334.19 1.406 1.406 0 01-.457.068c-.307 0-.574-.032-.804-.1a1.152 1.152 0 01-.534-.302.736.736 0 01-.185-.524c0-.176.055-.339.163-.488.108-.149.285-.266.52-.356.235-.09.542-.136.917-.136.326 0 .642.036.945.113.303.072.592.176.868.298a5.51 5.51 0 011.373.89l-.13.216a4.2 4.2 0 00-.602-.5 4.753 4.753 0 00-.745-.42 4.462 4.462 0 00-.837-.29 3.832 3.832 0 00-.872-.104c-.452 0-.795.073-1.035.217-.24.145-.357.334-.357.564 0 .213.109.389.326.524.216.136.537.203.962.203.29 0 .51-.067.67-.203.157-.135.234-.325.234-.578 0-.135-.004-.311-.013-.523-.01-.213-.018-.447-.027-.696l-.028-.736c-.009-.24-.013-.456-.013-.646V53.72c0-.055 0-.122-.01-.199-.008-.077-.008-.149-.013-.221a.645.645 0 00-.022-.15h.28v.005zm-.185 1.477c.135 0 .298 0 .488-.01.19-.004.393-.013.605-.022a15.359 15.359 0 001.234-.108l.01.217a42.3 42.3 0 01-.588.054c-.213.018-.425.031-.638.04-.212.014-.415.023-.61.027-.194.01-.357.01-.497.01v-.208h-.004zm7.976 1.521c0-.243-.059-.451-.18-.623a1.214 1.214 0 00-.493-.406 1.595 1.595 0 00-.701-.145 4.67 4.67 0 00-.787.064c-.239.04-.46.09-.66.144-.198.054-.379.108-.537.154a3.166 3.166 0 00-.285.09l-.217.081-.09-.284a3.44 3.44 0 00.248-.04c.086-.019.177-.032.276-.055.158-.036.348-.081.565-.14.217-.054.456-.104.714-.149a4.5 4.5 0 01.778-.068c.293 0 .555.054.795.158.24.104.43.258.57.465.14.203.207.456.207.759 0 .38-.077.718-.23 1.007a2.303 2.303 0 01-.642.75 3.774 3.774 0 01-.954.514c-.361.136-.75.235-1.17.307l-.14-.19a5.664 5.664 0 001.152-.275c.353-.126.665-.289.936-.483.266-.194.474-.429.623-.704.15-.276.222-.583.222-.935v.004zm-3.114-2.93c.18.04.398.081.65.122a19.36 19.36 0 001.546.176c.24.018.439.032.597.036l-.036.217a46.62 46.62 0 01-.633-.054c-.244-.023-.492-.046-.75-.077a26.89 26.89 0 01-.755-.1c-.244-.036-.46-.067-.66-.099l.04-.221z" fill="#fff"/></g><g clip-path="url(#clip1_2007_2900)"><path d="M199.384 32h-71.763c-.293 0-.583 0-.875.002-.245.001-.488.006-.735.01a10.53 10.53 0 00-1.601.141 5.146 5.146 0 00-3.755 2.741 5.28 5.28 0 00-.5 1.523c-.089.53-.137 1.065-.143 1.602-.007.245-.008.491-.012.736v18.492c.004.248.005.489.012.737.006.537.054 1.073.143 1.602a5.28 5.28 0 00.5 1.523c.242.479.56.915.942 1.292.378.381.814.7 1.293.943s.991.413 1.52.504c.529.087 1.065.135 1.601.142a127.46 127.46 0 001.61.01h71.763c.287 0 .579 0 .866-.002.244 0 .493-.003.737-.008.536-.007 1.07-.054 1.598-.142a5.44 5.44 0 001.526-.504 5.03 5.03 0 001.292-.943c.381-.378.699-.814.944-1.292a5.25 5.25 0 00.495-1.523c.089-.53.139-1.065.149-1.602.003-.248.003-.489.003-.737.006-.29.006-.58.006-.875V39.629c0-.293 0-.584-.006-.873 0-.246 0-.492-.003-.737-.01-.537-.06-1.072-.149-1.602a5.275 5.275 0 00-.495-1.523 5.168 5.168 0 00-2.236-2.24 5.408 5.408 0 00-1.526-.5 10.403 10.403 0 00-1.598-.142c-.244-.004-.493-.009-.737-.01-.287-.002-.579-.002-.866-.002z" fill="#A6A6A6"/><path d="M126.749 63.3c-.243 0-.481-.003-.723-.009-.5-.006-1-.05-1.494-.13a4.706 4.706 0 01-1.324-.438 4.32 4.32 0 01-1.116-.814 4.253 4.253 0 01-.816-1.117 4.592 4.592 0 01-.434-1.326 9.922 9.922 0 01-.133-1.5c-.005-.168-.012-.73-.012-.73v-18.48s.007-.554.012-.716a9.89 9.89 0 01.132-1.498c.077-.463.223-.911.435-1.33a4.458 4.458 0 013.253-2.371c.496-.081.997-.125 1.499-.131l.721-.01h73.497l.729.01a9.9 9.9 0 011.486.13c.464.08.914.227 1.335.438a4.465 4.465 0 011.93 1.937c.209.415.353.86.428 1.319.083.499.13 1.003.139 1.51.002.226.002.47.002.712.007.3.007.585.007.873v16.743c0 .29 0 .574-.007.86 0 .26 0 .498-.003.744-.009.497-.055.992-.136 1.483-.075.464-.22.915-.432 1.336-.211.41-.484.784-.812 1.108a4.32 4.32 0 01-1.118.818c-.42.213-.869.361-1.333.44-.494.08-.994.124-1.494.13a28.33 28.33 0 01-.717.009l-.867.002-72.634-.002z" fill="#000"/><path d="M152.903 45.244h-3.238l-.778 2.298h-1.371l3.067-8.503h1.425l3.067 8.503h-1.395l-.777-2.298zM150 44.184h2.567l-1.265-3.731h-.036L150 44.183zm11.7.259c0 1.926-1.031 3.164-2.585 3.164a2.095 2.095 0 01-1.949-1.085h-.029v3.071h-1.272v-8.25h1.231v1.03h.023a2.2 2.2 0 011.972-1.095c1.572 0 2.609 1.243 2.609 3.165zm-1.307 0c0-1.256-.648-2.08-1.637-2.08-.971 0-1.625.842-1.625 2.08 0 1.249.654 2.085 1.625 2.085.989 0 1.637-.819 1.637-2.085zm8.123 0c0 1.926-1.03 3.164-2.585 3.164a2.097 2.097 0 01-1.949-1.085h-.029v3.071h-1.271v-8.25h1.23v1.03h.024a2.193 2.193 0 011.972-1.095c1.572 0 2.608 1.243 2.608 3.165zm-1.307 0c0-1.256-.648-2.08-1.637-2.08-.971 0-1.624.842-1.624 2.08 0 1.249.653 2.085 1.624 2.085.989 0 1.637-.819 1.637-2.085zm5.813.73c.094.843.913 1.397 2.031 1.397 1.072 0 1.843-.554 1.843-1.314 0-.66-.465-1.056-1.566-1.326l-1.101-.266c-1.56-.377-2.284-1.107-2.284-2.292 0-1.467 1.277-2.475 3.09-2.475 1.796 0 3.027 1.008 3.068 2.475h-1.283c-.077-.849-.778-1.361-1.802-1.361s-1.725.518-1.725 1.273c0 .6.447.955 1.542 1.225l.936.23c1.743.413 2.467 1.114 2.467 2.358 0 1.59-1.265 2.587-3.279 2.587-1.884 0-3.156-.973-3.238-2.511h1.301zm7.961-5.298v1.468h1.178v1.007h-1.178v3.418c0 .531.235.778.753.778.14-.002.28-.012.418-.029v1.002a3.484 3.484 0 01-.706.059c-1.254 0-1.743-.472-1.743-1.674V42.35h-.9v-1.008h.9v-1.467h1.278zm1.859 4.568c0-1.951 1.148-3.177 2.937-3.177 1.796 0 2.939 1.226 2.939 3.177 0 1.956-1.137 3.176-2.939 3.176-1.801 0-2.937-1.22-2.937-3.176zm4.58 0c0-1.338-.612-2.128-1.643-2.128-1.03 0-1.642.796-1.642 2.128 0 1.343.612 2.127 1.642 2.127 1.031 0 1.643-.784 1.643-2.127zm2.344-3.101h1.212v1.056h.03a1.48 1.48 0 011.489-1.12c.147-.001.293.015.436.047v1.19a1.773 1.773 0 00-.571-.077 1.281 1.281 0 00-1.325 1.427v3.677h-1.271v-6.2zm9.03 4.379a2.486 2.486 0 01-2.667 1.898c-1.802 0-2.92-1.208-2.92-3.147 0-1.945 1.124-3.206 2.867-3.206 1.713 0 2.791 1.178 2.791 3.058v.436h-4.375v.077a1.626 1.626 0 00.438 1.255 1.604 1.604 0 001.229.501 1.398 1.398 0 001.43-.872h1.207zm-4.298-1.85h3.097a1.492 1.492 0 00-1.519-1.574 1.57 1.57 0 00-1.578 1.574zM149.123 56.65l.052-.656c.246.08.502.12.76.12.234 0 .324-.022.437-.18a3.663 3.663 0 00.346-1.853c0-.678-.211-.874-.745-.874-.121 0-.256.008-.407.016a10.973 10.973 0 01-1.414 3.298l-.625-.339a8.85 8.85 0 001.317-2.892c-.412.044-.822.113-1.226.204l-.136-.664a17.738 17.738 0 011.52-.203c.105-.5.183-1.005.233-1.514l.738.083c-.068.46-.151.92-.256 1.371h.294c.955 0 1.414.474 1.414 1.484a4.663 4.663 0 01-.436 2.236.922.922 0 01-.903.483 4.131 4.131 0 01-.963-.12zm2.422-4.06l.55-.37a4.242 4.242 0 011.287 2.788l-.723.112a3.523 3.523 0 00-1.114-2.53zm4.331 4.165l-.15-.678c.188.015.436.022.587.022 1.489 0 2.054-.42 2.054-1.047 0-.496-.324-.782-1.046-.782a3.228 3.228 0 00-2.062 1.009l-.58-.256a4.428 4.428 0 01.64-2.825l.67.218a2.955 2.955 0 00-.572 1.959 3.85 3.85 0 012.054-.7c1.009 0 1.633.519 1.633 1.362 0 1.07-.843 1.725-2.867 1.725-.098 0-.24-.007-.361-.007zm-.7-5.001l.188-.663c1.001.153 1.99.38 2.958.678l-.181.655a16.87 16.87 0 00-2.965-.67zm6.108 4.481a4.754 4.754 0 002.024-1.31 8.588 8.588 0 00-1.407-.95l.414-.519c.503.256.981.559 1.429.903a4.77 4.77 0 00.738-1.74h-1.919a7.767 7.767 0 01-1.64 1.891l-.55-.474a7.132 7.132 0 002.092-2.877l.723.173c-.083.211-.166.429-.264.633h1.866l.535.248a5.716 5.716 0 01-3.605 4.61l-.436-.588zm3.175-5.257l.422-.204c.213.287.393.598.534.927l-.474.218a4.156 4.156 0 00-.482-.94zm.941-.076l.428-.203c.217.296.402.614.55.95l-.474.203a4.155 4.155 0 00-.504-.95zm3.293 5.89l-.384-.61a3.154 3.154 0 002.649-3.321h-3.161v1.514h-.76V52.22h1.889v-1.107h.76v1.107h1.407l.692.196c-.09 2.14-.805 3.774-3.092 4.376zm4.555-4.519l.422-.617a9.328 9.328 0 011.85 1.122l-.481.648a8.858 8.858 0 00-1.791-1.153zm.143 3.714a5.842 5.842 0 004.342-3.134l.496.558a6.362 6.362 0 01-4.552 3.276l-.286-.7zm11.006.361h-4.733v-4.482h4.733v4.482zm-3.988-3.789v3.097h3.236v-3.097h-3.236zm10.765 1.778h-5.32v-.768h5.32v.768zm1.81-3.201h.745v1.928c.99.413 1.951.894 2.875 1.44l-.422.662a18.184 18.184 0 00-2.453-1.318v2.907h-.745v-5.62zm1.768.407l.444-.211c.218.32.397.663.535 1.024l-.489.219a4.43 4.43 0 00-.49-1.032zm.858-.324l.452-.211c.228.317.418.661.564 1.024l-.489.219a4.88 4.88 0 00-.527-1.032zm-55.812-2.979a3.957 3.957 0 011.883-3.322 4.047 4.047 0 00-3.19-1.725c-1.342-.141-2.643.804-3.327.804-.697 0-1.75-.79-2.884-.767a4.242 4.242 0 00-3.575 2.182c-1.546 2.68-.393 6.616 1.088 8.781.741 1.06 1.606 2.245 2.739 2.203 1.109-.046 1.523-.708 2.861-.708 1.326 0 1.714.708 2.87.681 1.19-.02 1.939-1.065 2.654-2.135a8.79 8.79 0 001.214-2.474 3.824 3.824 0 01-2.333-3.52zm-2.184-6.471c.649-.78.969-1.781.891-2.793a3.963 3.963 0 00-2.564 1.328 3.718 3.718 0 00-.914 2.689 3.271 3.271 0 002.587-1.224z" fill="#fff"/></g><rect x="239" width="96" height="96" rx="20" fill="#000"/><g clip-path="url(#clip2_2007_2900)" fill="#fff"><path d="M259.601 57.42c3.48 0 6.169-2.696 6.169-6.687V35.2h3.766v25.169h-3.73v-2.337c-1.685 1.761-4.017 2.768-6.635 2.768-5.38 0-9.505-3.919-9.505-9.851V35.2h3.766v15.533c0 4.063 2.654 6.687 6.169 6.687zm12.733-22.22h3.622v9.168a9.036 9.036 0 016.493-2.732 9.549 9.549 0 019.612 9.6c0 5.322-4.232 9.565-9.612 9.565a9.121 9.121 0 01-6.529-2.733v2.302h-3.586V35.2zm9.863 22.4c3.444 0 6.277-2.84 6.277-6.364s-2.833-6.364-6.277-6.364c-3.443 0-6.312 2.804-6.312 6.364s2.797 6.364 6.312 6.364zm20.696-15.928c5.273 0 9.146 4.063 9.146 9.528v1.187h-14.885c.502 2.984 2.977 5.213 6.062 5.213 2.116 0 3.909-.862 5.273-2.696l2.618 1.942c-1.829 2.444-4.555 3.919-7.89 3.919-5.488 0-9.721-4.1-9.721-9.565 0-5.177 4.053-9.528 9.398-9.528m-5.668 7.838h11.155c-.61-2.804-2.869-4.674-5.56-4.674-2.69 0-4.949 1.87-5.595 4.674zm24.534-4.243c-2.367 0-4.089 1.834-4.089 4.674v10.427h-3.622V42.031h3.586v2.266c.897-1.475 2.368-2.41 4.376-2.41h1.256v3.38h-1.507z"/></g><defs><clipPath id="clip0_2007_2900"><path fill="#fff" transform="translate(0 32)" d="M0 0h108v32H0z"/></clipPath><clipPath id="clip1_2007_2900"><path fill="#fff" transform="translate(120 32)" d="M0 0h87v32H0z"/></clipPath><clipPath id="clip2_2007_2900"><path fill="#fff" transform="translate(249.666 35.2)" d="M0 0h73.6v25.6H0z"/></clipPath></defs></svg>