<svg width="96" height="96" fill="none" xmlns="http://www.w3.org/2000/svg"><mask id="a" style="mask-type:luminance" maskUnits="userSpaceOnUse" x="0" y="0" width="96" height="96"><path d="M0 0h96v96H0V0z" fill="#fff"/></mask><g mask="url(#a)"><path d="M62.28 70.249v13.635a8.367 8.367 0 01-8.366 8.366H21.767a8.367 8.367 0 01-8.367-8.366V12.116a8.367 8.367 0 018.367-8.366h32.147a8.367 8.367 0 018.367 8.366v6.494a1.875 1.875 0 103.75 0v-6.494C66.03 5.425 60.606 0 53.914 0H21.767C15.075 0 9.65 5.425 9.65 12.116v71.768C9.65 90.575 15.075 96 21.767 96h32.147c6.692 0 12.117-5.425 12.117-12.116V70.249a1.875 1.875 0 00-3.75 0z" fill="#044396"/><path d="M63.95 82.101a1.875 1.875 0 000-3.75H11.732a1.875 1.875 0 100 3.75H63.95zM48.97 10.775a1.875 1.875 0 000-3.75h-1.575a1.875 1.875 0 100 3.75h1.575zm-9.497 0a1.875 1.875 0 000-3.75H26.71a1.875 1.875 0 100 3.75h12.762zM24.836 16.28v56.011a1.875 1.875 0 003.75 0v-56.01a1.875 1.875 0 10-3.75 0z" fill="#044396"/><path d="M84.475 28.78H26.71v15.224h57.764V28.781zM36.953 61.641h-9.766v-9.766h9.766v9.766zm17.483 0H44.67v-9.766h9.766v9.766z" fill="#C2C9D0"/><path d="M75.434 55.25a1.875 1.875 0 100-3.75H63.945a1.875 1.875 0 100 3.75h11.49zm0 6.766a1.875 1.875 0 100-3.75H63.945a1.875 1.875 0 100 3.75h11.49z" fill="#044396"/><path d="M82.6 65.258a2.759 2.759 0 01-2.759 2.758H28.586V20.774H79.84a2.759 2.759 0 012.759 2.759v41.725zm3.75-41.725a6.509 6.509 0 00-6.509-6.509h-53.13c-1.036 0-1.875.84-1.875 1.875v50.992c0 1.036.84 1.875 1.875 1.875h53.13a6.509 6.509 0 006.509-6.508V23.533z" fill="#044396"/></g></svg>