<svg width="96" height="96" fill="none" xmlns="http://www.w3.org/2000/svg"><g clip-path="url(#clip0_0_44)"><path d="M90.36 37.654H54.58a1.875 1.875 0 000 3.75h35.78c1.041 0 1.89.848 1.89 1.89v37.652a1.893 1.893 0 01-1.89 1.892h-3.766c-.59 0-1.145.277-1.5.75l-4.149 5.53-4.148-5.53a1.875 1.875 0 00-1.5-.75H47.058a1.893 1.893 0 01-1.89-1.892v-30.13a1.875 1.875 0 00-3.75 0v30.13a5.647 5.647 0 005.64 5.642H74.36l5.085 6.78a1.876 1.876 0 003 0l5.087-6.78h2.827c3.11 0 5.64-2.531 5.64-5.642V43.294c0-3.11-2.53-5.64-5.64-5.64z" fill="#044396"/><path d="M8.468 50.817H5.64c-3.11 0-5.64-2.53-5.64-5.64V7.522c0-3.11 2.53-5.64 5.64-5.64h43.301c3.11 0 5.64 2.53 5.64 5.64v37.653c0 3.11-2.53 5.64-5.64 5.64H21.64l-6.586 8.781-6.585-8.78z" fill="#C2C9D0"/><path d="M14 34.08c0-2.88 2.08-6.976 7.552-9.472.032-1.44.128-2.88.256-4.288-1.472.064-2.88.096-4.128.096-1.056 0-1.568-.8-1.568-1.632 0-.8.512-1.6 1.568-1.6 1.344 0 2.88-.032 4.448-.128.128-1.184.288-2.4.48-3.68.16-.928.96-1.376 1.728-1.376.864 0 1.696.512 1.696 1.408 0 .096-.032.16-.032.256-.16 1.088-.32 2.144-.48 3.168 2.336-.192 4.608-.48 6.4-.8.128-.032.256-.032.384-.032 1.056 0 1.632.8 1.632 1.6 0 .704-.448 1.44-1.408 1.6-2.112.384-4.736.672-7.392.896-.064 1.12-.192 2.272-.256 3.424a21.185 21.185 0 014.704-.512c.128-.416.256-.832.352-1.28.192-.8.896-1.152 1.6-1.152.832 0 1.664.512 1.664 1.408 0 .128-.032.256-.064.416-.096.32-.16.64-.256.96 4.416 1.024 6.944 4.32 6.944 8.128 0 4.672-3.2 8.16-8.544 9.472a2.8 2.8 0 01-.512.064c-1.024 0-1.696-.864-1.696-1.76 0-.672.416-1.376 1.376-1.664 4.064-1.248 5.76-3.328 5.76-6.08 0-2.208-1.44-4.448-4.32-5.248-1.376 3.52-3.392 6.88-6.272 9.344.128.672.256 1.312.416 1.92.032.128.064.288.064.416 0 .992-.928 1.568-1.792 1.568-.672 0-1.344-.352-1.536-1.152l-.192-.8c-1.376.832-2.688 1.12-4.064 1.12-2.72 0-4.512-1.728-4.512-4.608zm3.392-.224c0 1.024.256 1.472 1.344 1.504.96 0 1.888-.288 3.232-1.152a51.198 51.198 0 01-.48-6.24c-2.944 1.92-4.128 4.064-4.096 5.888zm7.648-2.048c1.504-1.728 2.656-3.712 3.52-5.824-1.28.064-2.528.256-3.776.608v.544c0 1.44.096 3.04.256 4.672zm36.962 42.245l1.867-5.163h9.7l1.849 5.158a1.875 1.875 0 103.53-1.264c-8.162-22.782-7.983-22.29-8.016-22.372a2.353 2.353 0 00-2.184-1.463h-.003a2.353 2.353 0 00-2.21 1.54l-8.06 22.29a1.875 1.875 0 003.527 1.275zm6.74-18.64l3.484 9.727h-7.001l3.517-9.728zM28.233 77.19H16.929v-9.684l2.733 1.822a1.875 1.875 0 102.08-3.12l-5.637-3.758c-.702-.44-1.447-.418-2.09-.007l-5.649 3.765a1.875 1.875 0 102.08 3.12l2.733-1.822v11.558c0 1.035.84 1.875 1.875 1.875h13.179a1.875 1.875 0 000-3.75zm34.211-62.979l3.765 5.648a1.873 1.873 0 002.6.52 1.875 1.875 0 00.52-2.6l-1.822-2.733h9.683V26.35a1.875 1.875 0 003.75 0V13.17c0-1.035-.84-1.875-1.875-1.875H67.507l1.822-2.733a1.875 1.875 0 10-3.12-2.08c-4.25 6.374-3.722 5.575-3.769 5.654a1.883 1.883 0 00.004 2.074z" fill="#044396"/></g><defs><clipPath id="clip0_0_44"><path fill="#fff" d="M0 0h96v96H0z"/></clipPath></defs></svg>