<svg width="64" height="64" viewBox="0 0 64 64" fill="none" xmlns="http://www.w3.org/2000/svg">
<g clip-path="url(#clip0_0_140)">
<mask id="mask0_0_140" style="mask-type:luminance" maskUnits="userSpaceOnUse" x="0" y="0" width="64" height="64">
<path d="M0 3.8147e-06H64V64H0V3.8147e-06Z" fill="white"/>
</mask>
<g mask="url(#mask0_0_140)">
<path d="M26.4568 17.5767H10.8208C10.8208 19.7965 9.02221 21.596 6.80371 21.596V32.3003C9.02221 32.3003 10.8208 34.0999 10.8208 36.3197H26.4568V17.5767Z" fill="#C2C9D0"/>
<path d="M53.1791 17.5767H37.5431V36.3197H53.1791C53.1791 34.0999 54.9777 32.3003 57.1962 32.3003V21.596C54.9777 21.596 53.1791 19.7965 53.1791 17.5767Z" fill="#C2C9D0"/>
<path d="M0 13.985V39.9114C0 41.6865 1.43829 43.1267 3.21405 43.1267H26.0245C26.7148 43.1267 27.2745 42.5671 27.2745 41.8767C27.2745 41.1864 26.7148 40.6268 26.0245 40.6267H3.21405C2.82035 40.6267 2.49994 40.3071 2.49994 39.9114V13.985C2.49994 13.5893 2.82035 13.2697 3.21405 13.2697H60.7859C61.1796 13.2697 61.5 13.5893 61.5 13.985V39.9114C61.5 40.3071 61.1796 40.6267 60.7859 40.6267H37.9486C37.2583 40.6267 36.6986 41.1864 36.6986 41.8767C36.6986 42.5671 37.2583 43.1267 37.9486 43.1267H60.7859C62.5616 43.1267 63.9999 41.6865 63.9999 39.9114V13.985C63.9999 12.2099 62.5616 10.7698 60.7859 10.7697H3.21405C1.43829 10.7698 0 12.2099 0 13.985Z" fill="#044396"/>
<path d="M36.293 24.0886V50.7303H27.7068V24.0886C27.7068 23.3982 27.1472 22.8385 26.4569 22.8385C25.7665 22.8385 25.2069 23.3982 25.2069 24.0886V51.9803C25.2069 52.6707 25.7665 53.2303 26.4569 53.2303H37.543C38.2334 53.2303 38.793 52.6707 38.793 51.9803V24.0886C38.793 23.3982 38.2334 22.8385 37.543 22.8385C36.8526 22.8385 36.293 23.3982 36.293 24.0886Z" fill="#044396"/>
<path d="M61.5 24.0886V50.015C61.5 50.4107 61.1796 50.7303 60.7859 50.7303H3.21405C2.82035 50.7303 2.49994 50.4107 2.49994 50.015V24.0886C2.49994 23.3982 1.94033 22.8385 1.24997 22.8385C0.559614 22.8385 0 23.3982 0 24.0886V50.015C0 51.7901 1.43829 53.2303 3.21405 53.2303H60.7859C62.5616 53.2303 63.9999 51.7901 63.9999 50.015V24.0886C63.9999 23.3982 63.4403 22.8385 62.75 22.8385C62.0596 22.8385 61.5 23.3982 61.5 24.0886Z" fill="#044396"/>
<path d="M61.4999 19.0368V44.9632C61.4999 45.3589 61.1795 45.6785 60.7858 45.6785H38.793V12.3985C38.793 11.7081 38.2334 11.1485 37.5431 11.1485C36.8527 11.1485 36.2931 11.7081 36.2931 12.3985V46.9285C36.2931 47.6189 36.8527 48.1785 37.5431 48.1785H60.7858C62.5616 48.1785 64 46.7383 64 44.9632V19.0368C64 18.3464 63.4403 17.7867 62.7499 17.7867C62.0596 17.7867 61.4999 18.3464 61.4999 19.0368Z" fill="#044396"/>
<path d="M0 19.0368V44.9632C0 46.7383 1.43829 48.1784 3.21405 48.1785H26.4568C27.1472 48.1785 27.7069 47.6189 27.7069 46.9285V12.3985C27.7069 11.7081 27.1472 11.1485 26.4568 11.1485C25.7665 11.1485 25.2069 11.7081 25.2068 12.3985V45.6785H3.21405C2.82035 45.6785 2.49994 45.3589 2.49994 44.9632V19.0368C2.49994 18.3464 1.94033 17.7867 1.24997 17.7867C0.559614 17.7867 0 18.3464 0 19.0368Z" fill="#044396"/>
</g>
</g>
<defs>
<clipPath id="clip0_0_140">
<rect width="64" height="64" fill="white"/>
</clipPath>
</defs>
</svg>
