<svg width="64" height="64" viewBox="0 0 64 64" fill="none" xmlns="http://www.w3.org/2000/svg">
<g clip-path="url(#clip0_0_104)">
<path d="M55.8002 32.5533H8.19967C5.25205 32.5533 2.86255 34.951 2.86255 37.9088V55.392H19.266V48.4368H44.7339V55.392H61.1374V37.9089C61.1373 34.951 58.7478 32.5533 55.8002 32.5533ZM11.5833 46.8553C9.69842 46.8553 8.17042 45.322 8.17042 43.4308C8.17042 41.5395 9.69842 40.0063 11.5833 40.0063C13.4682 40.0063 14.9962 41.5395 14.9962 43.4308C14.9962 45.322 13.468 46.8553 11.5833 46.8553ZM52.4165 46.8553C50.5317 46.8553 49.0037 45.322 49.0037 43.4308C49.0037 41.5395 50.5317 40.0063 52.4165 40.0063C54.3014 40.0063 55.8294 41.5395 55.8294 43.4308C55.8294 45.322 54.3014 46.8553 52.4165 46.8553Z" fill="#C2C9D0"/>
<path d="M8.17062 33.8032H55.8295C56.2111 33.8032 56.5717 33.629 56.8089 33.33C57.0459 33.031 57.1336 32.6401 57.0466 32.2686L53.0492 15.1746C53.0474 15.1669 53.0456 15.1591 53.0436 15.1515C52.05 11.2396 48.5434 8.5075 44.5161 8.5075H44.1417V2.73563C44.1417 2.04525 43.582 1.48563 42.8917 1.48563H21.1084C20.4181 1.48563 19.8584 2.04525 19.8584 2.73563V8.5075H19.484C15.4567 8.5075 11.9501 11.2396 10.9565 15.1515C10.9545 15.1593 10.9527 15.1669 10.9509 15.1746L6.95349 32.2686C6.86662 32.6401 6.95424 33.031 7.19124 33.33C7.42849 33.629 7.78912 33.8032 8.17062 33.8032ZM36.6314 31.3033V28.2725C36.6314 25.6191 38.7901 23.4605 41.4434 23.4605C44.0966 23.4605 46.2554 25.6191 46.2554 28.2725V31.3033H36.6314ZM22.3584 3.98563H41.6419V8.5075H22.3584V3.98563ZM13.3825 15.7559C14.0982 12.9596 16.6055 11.0075 19.484 11.0075H44.5162C47.3947 11.0075 49.9021 12.9596 50.6177 15.7559L54.2535 31.3033H48.7554V28.2725C48.7554 24.2406 45.4752 20.9605 41.4434 20.9605C37.4115 20.9605 34.1314 24.2406 34.1314 28.2725V31.3033H9.74674L13.3825 15.7559Z" fill="#044396"/>
<path d="M52.4165 38.7561C49.8455 38.7561 47.7537 40.8531 47.7537 43.4306C47.7537 46.0081 49.8454 48.1051 52.4165 48.1051C54.9877 48.1051 57.0794 46.0081 57.0794 43.4306C57.0794 40.8531 54.9875 38.7561 52.4165 38.7561ZM52.4165 45.6053C51.2239 45.6053 50.2537 44.6298 50.2537 43.4308C50.2537 42.2318 51.2239 41.2563 52.4165 41.2563C53.6092 41.2563 54.5794 42.2318 54.5794 43.4308C54.5794 44.6298 53.6092 45.6053 52.4165 45.6053Z" fill="#044396"/>
<path d="M6.92041 43.4308C6.92041 46.0084 9.01216 48.1053 11.5833 48.1053C14.1544 48.1053 16.2462 46.0083 16.2462 43.4308C16.2462 40.8533 14.1544 38.7563 11.5833 38.7563C9.01216 38.7563 6.92041 40.8531 6.92041 43.4308ZM13.7462 43.4308C13.7462 44.6298 12.7759 45.6053 11.5833 45.6053C10.3907 45.6053 9.42041 44.6298 9.42041 43.4308C9.42041 42.2318 10.3907 41.2563 11.5833 41.2563C12.7759 41.2563 13.7462 42.2318 13.7462 43.4308Z" fill="#044396"/>
<path d="M62.75 54.142H45.984V48.4366C45.984 47.7462 45.4243 47.1866 44.734 47.1866H19.266C18.5758 47.1866 18.016 47.7462 18.016 48.4366V54.142H1.25C0.55975 54.142 0 54.7016 0 55.392C0 56.0824 0.55975 56.642 1.25 56.642H7.78512V61.2644C7.78512 61.9547 8.34487 62.5144 9.03512 62.5144H19.266C19.9563 62.5144 20.516 61.9547 20.516 61.2644V56.7376H43.484V61.2644C43.484 61.9547 44.0438 62.5144 44.734 62.5144H54.9649C55.6551 62.5144 56.2149 61.9547 56.2149 61.2644V56.642H62.75C63.4403 56.642 64 56.0824 64 55.392C64 54.7016 63.4403 54.142 62.75 54.142ZM43.484 49.6867V54.1421H20.516V49.6867H43.484ZM18.016 60.0144H10.2851V56.642H18.016V60.0144ZM53.7149 60.0144H45.984V56.642H53.7149V60.0144Z" fill="#044396"/>
</g>
<defs>
<clipPath id="clip0_0_104">
<rect width="64" height="64" fill="white"/>
</clipPath>
</defs>
</svg>
