<svg width="64" height="64" viewBox="0 0 64 64" fill="none" xmlns="http://www.w3.org/2000/svg">
<g clip-path="url(#clip0_0_4)">
<mask id="mask0_0_4" style="mask-type:luminance" maskUnits="userSpaceOnUse" x="0" y="0" width="64" height="64">
<path d="M0 3.8147e-06H64V64H0V3.8147e-06Z" fill="white"/>
</mask>
<g mask="url(#mask0_0_4)">
<path d="M42.7659 11.3983H2.49994V7.78241C2.49994 6.57729 3.47696 5.60034 4.68201 5.60034H40.584C41.789 5.60034 42.7659 6.57729 42.7659 7.78241V11.3983ZM45.266 7.78241C45.266 5.19652 43.1697 3.1004 40.584 3.1004H4.68201C2.0963 3.1004 0 5.19652 0 7.78241V12.6483C0 13.3386 0.559614 13.8982 1.24997 13.8982H44.016C44.7063 13.8982 45.266 13.3386 45.266 12.6483V7.78241Z" fill="#044396"/>
<path d="M0 35.7268C0 38.3127 2.09631 40.4088 4.68201 40.4088H27.2953C27.9856 40.4088 28.5452 39.8492 28.5452 39.1589C28.5452 38.4685 27.9856 37.9089 27.2953 37.9089H4.68201C3.47696 37.9089 2.49994 36.932 2.49994 35.7268V13.8983H42.7659V25.268C42.7659 25.9584 43.3256 26.518 44.016 26.518C44.7063 26.518 45.2659 25.9584 45.266 25.268V12.6482C45.2659 11.9579 44.7063 11.3983 44.016 11.3983H1.24997C0.559622 11.3983 1.3916e-05 11.9579 0 12.6482V35.7268Z" fill="#044396"/>
<path d="M5.96143 2.83447V7.24933C5.96143 7.93968 6.52104 8.4993 7.2114 8.4993C7.90175 8.4993 8.46136 7.93968 8.46136 7.24933V2.83447C8.46136 2.14412 7.90175 1.58441 7.2114 1.58441C6.52104 1.58441 5.96143 2.14412 5.96143 2.83447Z" fill="#044396"/>
<path d="M13.6721 2.83447V7.24933C13.6721 7.93968 14.2317 8.4993 14.9221 8.4993C15.6124 8.4993 16.1721 7.93968 16.1721 7.24933V2.83447C16.1721 2.14412 15.6124 1.58441 14.9221 1.58441C14.2317 1.58441 13.6721 2.14412 13.6721 2.83447Z" fill="#044396"/>
<path d="M21.3831 2.83447V7.24933C21.3831 7.93968 21.9427 8.4993 22.633 8.4993C23.3234 8.4993 23.883 7.93968 23.883 7.24933V2.83447C23.883 2.14412 23.3234 1.58441 22.633 1.58441C21.9427 1.58441 21.3831 2.14412 21.3831 2.83447Z" fill="#044396"/>
<path d="M29.0938 2.83447V7.24933C29.0938 7.93968 29.6534 8.4993 30.3437 8.4993C31.0341 8.4993 31.5937 7.93968 31.5937 7.24933V2.83447C31.5937 2.14412 31.0341 1.58441 30.3437 1.58441C29.6534 1.58441 29.0938 2.14412 29.0938 2.83447Z" fill="#044396"/>
<path d="M36.8047 2.83447V7.24933C36.8047 7.93968 37.3643 8.4993 38.0547 8.4993C38.745 8.4993 39.3046 7.93968 39.3046 7.24933V2.83447C39.3046 2.14412 38.745 1.58441 38.0547 1.58441C37.3643 1.58441 36.8047 2.14412 36.8047 2.83447Z" fill="#044396"/>
<path d="M13.8106 20.8557C14.5009 20.8557 15.0606 20.2961 15.0606 19.6057C15.0606 18.9154 14.5009 18.3557 13.8106 18.3557H7.80637C7.11601 18.3557 6.5564 18.9154 6.5564 19.6057C6.5564 20.2961 7.11601 20.8557 7.80637 20.8557H13.8106Z" fill="#044396"/>
<path d="M25.635 20.8557C26.3254 20.8557 26.8851 20.2961 26.8851 19.6057C26.8851 18.9154 26.3254 18.3557 25.635 18.3557H19.6308C18.9405 18.3557 18.3809 18.9154 18.3809 19.6057C18.3809 20.2961 18.9405 20.8557 19.6308 20.8557H25.635Z" fill="#044396"/>
<path d="M37.4595 20.8557C38.1499 20.8557 38.7096 20.2961 38.7096 19.6057C38.7096 18.9154 38.1499 18.3557 37.4595 18.3557H31.4553C30.7649 18.3557 30.2053 18.9154 30.2053 19.6057C30.2053 20.2961 30.7649 20.8557 31.4553 20.8557H37.4595Z" fill="#044396"/>
<path d="M13.8106 27.0338C14.5009 27.0338 15.0606 26.4742 15.0606 25.7839C15.0606 25.0935 14.5009 24.5339 13.8106 24.5339H7.80637C7.11601 24.5339 6.5564 25.0935 6.5564 25.7839C6.5564 26.4742 7.11601 27.0338 7.80637 27.0338H13.8106Z" fill="#044396"/>
<path d="M25.635 27.0338C26.3254 27.0338 26.8851 26.4742 26.8851 25.7839C26.8851 25.0935 26.3254 24.5339 25.635 24.5339H19.6308C18.9405 24.5339 18.3809 25.0935 18.3809 25.7839C18.3809 26.4742 18.9405 27.0338 19.6308 27.0338H25.635Z" fill="#044396"/>
<path d="M37.4595 27.0338C38.1499 27.0338 38.7096 26.4742 38.7096 25.7839C38.7096 25.0935 38.1499 24.5339 37.4595 24.5339H31.4553C30.7649 24.5339 30.2053 25.0935 30.2053 25.7839C30.2053 26.4742 30.7649 27.0338 31.4553 27.0338H37.4595Z" fill="#044396"/>
<path d="M13.8106 33.2121C14.5009 33.2121 15.0606 32.6525 15.0606 31.9621C15.0606 31.2717 14.5009 30.7121 13.8106 30.7121H7.80637C7.11601 30.7121 6.5564 31.2717 6.5564 31.9621C6.5564 32.6525 7.11601 33.2121 7.80637 33.2121H13.8106Z" fill="#044396"/>
<path d="M25.635 33.2121C26.3254 33.2121 26.8851 32.6525 26.8851 31.9621C26.8851 31.2717 26.3254 30.7121 25.635 30.7121H19.6308C18.9405 30.7121 18.3809 31.2717 18.3809 31.9621C18.3809 32.6525 18.9405 33.2121 19.6308 33.2121H25.635Z" fill="#044396"/>
<path d="M61.5 43.3518C61.5 52.4997 54.0842 59.9156 44.9363 59.9156C35.7884 59.9156 28.3725 52.4997 28.3725 43.3518C28.3725 34.2039 35.7884 26.7881 44.9363 26.7881C54.0842 26.7881 61.5 34.2039 61.5 43.3518ZM64.0001 43.3518C64 32.8232 55.4649 24.2881 44.9363 24.2881C34.4077 24.2881 25.8726 32.8232 25.8726 43.3518C25.8726 53.8804 34.4077 62.4156 44.9363 62.4156C55.4649 62.4155 64.0001 53.8804 64.0001 43.3518Z" fill="#044396"/>
<path d="M44.9363 55.6656C38.1466 55.6656 32.6226 50.1417 32.6226 43.3518C32.6226 36.5621 38.1466 31.0381 44.9363 31.0381C51.7261 31.0381 57.2501 36.5621 57.2501 43.3518C57.2501 50.1417 51.7261 55.6656 44.9363 55.6656Z" fill="#C2C9D0"/>
<path d="M43.6863 36.5807V43.3518C43.6863 44.0422 44.2459 44.6018 44.9362 44.6018H48.2137C48.904 44.6018 49.4636 44.0422 49.4636 43.3518C49.4636 42.6615 48.904 42.1019 48.2137 42.1018H46.1862V36.5807C46.1862 35.8903 45.6266 35.3307 44.9362 35.3307C44.2459 35.3307 43.6863 35.8903 43.6863 36.5807Z" fill="#044396"/>
</g>
</g>
<defs>
<clipPath id="clip0_0_4">
<rect width="64" height="64" fill="white"/>
</clipPath>
</defs>
</svg>
