<svg width="64" height="64" viewBox="0 0 64 64" fill="none" xmlns="http://www.w3.org/2000/svg">
<g clip-path="url(#clip0_0_66)">
<path fill-rule="evenodd" clip-rule="evenodd" d="M8.9375 45.6356C13.1658 45.6356 16.625 42.1768 16.625 37.9493L1.25 37.9495C1.25013 42.1768 4.70937 45.6356 8.9375 45.6356Z" fill="#C2C9D0"/>
<path fill-rule="evenodd" clip-rule="evenodd" d="M47.375 37.9495C47.3751 42.177 50.8344 45.6356 55.0625 45.6356C59.2908 45.6356 62.75 42.1768 62.75 37.9493L47.375 37.9495Z" fill="#C2C9D0"/>
<path fill-rule="evenodd" clip-rule="evenodd" d="M35.125 50.875V15.6814C34.2957 16.4237 33.2005 16.875 32 16.875C30.7994 16.875 29.7042 16.4237 28.875 15.6814V50.8752L35.125 50.875Z" fill="#C2C9D0"/>
<path fill-rule="evenodd" clip-rule="evenodd" d="M32 7.5C33.2005 7.5 34.2956 7.95125 35.125 8.69363V3.75C35.125 2.03138 33.7188 0.625 32 0.625C30.2812 0.625 28.875 2.03125 28.875 3.75V8.69363C29.7042 7.95138 30.7995 7.5 32 7.5Z" fill="#C2C9D0"/>
<path d="M7.68762 26.4164V12.8124C7.68762 12.1221 8.24727 11.5624 8.93762 11.5624C9.62798 11.5624 10.1876 12.1221 10.1876 12.8124V26.4164C10.1876 27.1068 9.62798 27.6664 8.93762 27.6664C8.24727 27.6664 7.68762 27.1068 7.68762 26.4164Z" fill="#044396"/>
<path d="M53.8125 26.4164V12.8124C53.8125 12.1221 54.3721 11.5624 55.0625 11.5624C55.7529 11.5624 56.3125 12.1221 56.3125 12.8124V26.4164C56.3125 27.1068 55.7529 27.6664 55.0625 27.6664C54.3721 27.6664 53.8125 27.1068 53.8125 26.4164Z" fill="#044396"/>
<path d="M8.9375 25.1664C9.35547 25.1664 9.74583 25.3752 9.97766 25.723L17.6652 37.2561C17.802 37.4614 17.875 37.7026 17.875 37.9493C17.875 42.8674 13.8559 46.8856 8.9375 46.8856C4.01921 46.8856 0.000168816 42.8674 5.43181e-10 37.9496C-7.27082e-06 37.7028 0.0729899 37.4615 0.209839 37.2562L7.89734 25.7231C8.12916 25.3754 8.51953 25.1664 8.9375 25.1664ZM2.51025 38.3124C2.70052 41.6825 5.52135 44.3856 8.9375 44.3856C12.3538 44.3856 15.1745 41.6825 15.3646 38.3123L8.93738 28.6702L2.51025 38.3124Z" fill="#044396"/>
<path d="M55.0626 25.1664C55.4806 25.1664 55.871 25.3754 56.1028 25.7231L63.7902 37.2561C63.927 37.4614 64 37.7026 64 37.9493C64 42.8674 59.9809 46.8856 55.0625 46.8856C50.1442 46.8856 46.1252 42.8676 46.125 37.9496C46.125 37.7028 46.198 37.4615 46.3348 37.2562L54.0225 25.723L54.0447 25.6909C54.2787 25.3624 54.6577 25.1664 55.0626 25.1664ZM48.6353 38.3124C48.8255 41.6826 51.6463 44.3856 55.0625 44.3856C58.4788 44.3856 61.2995 41.6825 61.4896 38.3123L55.0626 28.6702L48.6353 38.3124Z" fill="#044396"/>
<path d="M26.6875 10.9374C27.3779 10.9374 27.9375 11.4971 27.9375 12.1874C27.9375 12.8778 27.3779 13.4374 26.6875 13.4374H1.25C0.559643 13.4374 0 12.8778 0 12.1874C0 11.4971 0.559643 10.9374 1.25 10.9374H26.6875ZM62.75 10.9374C63.4404 10.9374 64 11.4971 64 12.1874C64 12.8778 63.4404 13.4374 62.75 13.4374H37.3125C36.6221 13.4374 36.0625 12.8778 36.0625 12.1874C36.0625 11.4971 36.6221 10.9374 37.3125 10.9374H62.75Z" fill="#044396"/>
<path d="M35.4375 12.1875C35.4375 10.289 33.8985 8.74997 32 8.74997C30.1015 8.74997 28.5625 10.289 28.5625 12.1875C28.5625 14.0859 30.1015 15.625 32 15.625C33.8985 15.625 35.4375 14.0859 35.4375 12.1875ZM37.9375 12.1875C37.9375 15.4667 35.2792 18.125 32 18.125C28.7208 18.125 26.0625 15.4667 26.0625 12.1875C26.0625 8.90828 28.7208 6.24997 32 6.24997C35.2792 6.24997 37.9375 8.90828 37.9375 12.1875Z" fill="#044396"/>
<path d="M48.364 59C48.364 57.9716 47.5174 57.125 46.489 57.125H18.3641C17.3357 57.125 16.4891 57.9716 16.4891 59V60.875H48.364V59ZM50.864 62.125C50.864 62.8154 50.3044 63.375 49.614 63.375H15.2391C14.5488 63.375 13.9891 62.8154 13.9891 62.125V59C13.9891 56.5909 15.955 54.625 18.3641 54.625H46.489C48.8981 54.625 50.864 56.5909 50.864 59V62.125Z" fill="#044396"/>
<path d="M41.1766 55.2501V53.3751C41.1766 52.6904 40.6113 52.1251 39.9266 52.1251H24.9266C24.242 52.1251 23.6766 52.6904 23.6766 53.3751V55.2501C23.6766 55.9404 23.117 56.5001 22.4266 56.5001C21.7363 56.5001 21.1766 55.9404 21.1766 55.2501V53.3751C21.1766 51.3097 22.8613 49.6251 24.9266 49.6251H39.9266C41.992 49.6251 43.6766 51.3097 43.6766 53.3751V55.2501C43.6766 55.9404 43.117 56.5001 42.4266 56.5001C41.7363 56.5001 41.1766 55.9404 41.1766 55.2501Z" fill="#044396"/>
</g>
<defs>
<clipPath id="clip0_0_66">
<rect width="64" height="64" fill="white"/>
</clipPath>
</defs>
</svg>
