<svg width="64" height="64" viewBox="0 0 64 64" fill="none" xmlns="http://www.w3.org/2000/svg">
<g clip-path="url(#clip0_0_131)">
<path d="M54.3624 10.8925C52.2643 12.9907 52.9067 12.3483 50.81 14.445C40.6438 3.55353 23.3731 3.5354 13.19 14.445C11.0945 12.3495 11.7342 12.9893 9.63745 10.8925C21.7856 -1.97047 42.2233 -1.96097 54.3624 10.8925Z" fill="#C2C9D0"/>
<path d="M57.3776 27.735C57.846 30.5305 57.857 33.4979 57.3551 36.3925H48.9439C41.3189 36.3925 35.1376 42.5737 35.1376 50.1987C35.1376 51.1211 35.1376 56.6325 35.1376 57.54C33.0742 57.7933 30.9299 57.7936 28.8626 57.54C28.8626 56.6079 28.8626 51.0724 28.8626 50.1987C28.8626 42.5737 22.6814 36.3925 15.0564 36.3925H6.64512C6.15987 33.594 6.13811 30.6266 6.62261 27.735C22.2689 18.55 41.7314 18.55 57.3776 27.735ZM37.0201 31.3725C37.0201 28.6 34.7726 26.3525 32.0001 26.3525C29.2276 26.3525 26.9801 28.6 26.9801 31.3725C26.9801 34.145 29.2276 36.3925 32.0001 36.3925C34.7726 36.3925 37.0201 34.145 37.0201 31.3725Z" fill="#C2C9D0"/>
<path d="M35.77 31.3725C35.77 29.2904 34.0821 27.6025 32 27.6025C29.9179 27.6025 28.23 29.2904 28.23 31.3725C28.23 33.4546 29.9179 35.1425 32 35.1425C34.0821 35.1425 35.77 33.4546 35.77 31.3725ZM38.27 31.3725C38.27 34.8353 35.4628 37.6425 32 37.6425C28.5372 37.6425 25.73 34.8353 25.73 31.3725C25.73 27.9097 28.5372 25.1025 32 25.1025C35.4628 25.1025 38.27 27.9097 38.27 31.3725Z" fill="#044396"/>
<path d="M61.5 32C61.5 15.7076 48.2924 2.5 32 2.5C15.7076 2.5 2.5 15.7076 2.5 32C2.5 48.2924 15.7076 61.5 32 61.5C48.2924 61.5 61.5 48.2924 61.5 32ZM64 32C64 49.6731 49.6731 64 32 64C14.3269 64 0 49.6731 0 32C0 14.3269 14.3269 0 32 0C49.6731 0 64 14.3269 64 32Z" fill="#044396"/>
<path d="M32 5.02002C45.3223 5.02002 56.4717 14.7028 58.6104 27.5284L58.6418 27.7211C61.2659 44.0852 48.6275 58.98 32 58.98C17.0416 58.98 5.02002 46.8393 5.02002 32C5.02003 17.0554 17.1473 5.02003 32 5.02002ZM7.52002 32C7.52002 45.4657 18.4294 56.48 32 56.48C47.1443 56.48 58.6444 42.8595 56.1447 27.9417L56.1445 27.9406C54.205 16.3062 44.0869 7.52002 32 7.52002C18.5225 7.52003 7.52003 18.4416 7.52002 32Z" fill="#044396"/>
</g>
<defs>
<clipPath id="clip0_0_131">
<rect width="64" height="64" fill="white"/>
</clipPath>
</defs>
</svg>
