<svg width="64" height="64" viewBox="0 0 64 64" fill="none" xmlns="http://www.w3.org/2000/svg">
<g clip-path="url(#clip0_0_115)">
<path fill-rule="evenodd" clip-rule="evenodd" d="M27.0427 17.7762C28.0458 18.7201 28.094 20.2985 27.1501 21.3016C27.1145 21.3395 27.0786 21.3772 27.0427 21.4147V25.6247H62.7502V0.624756H27.0427V17.7762Z" fill="#C2C9D0"/>
<path d="M55.2502 6.24988C55.2502 5.55952 55.8098 4.99988 56.5002 4.99988C57.1905 4.99989 57.7502 5.55953 57.7502 6.24988V19.9998C57.7502 20.6902 57.1905 21.2498 56.5002 21.2498H33.2927C32.6024 21.2498 32.0427 20.6902 32.0427 19.9998C32.0427 19.3095 32.6024 18.7499 33.2927 18.7499H55.2502V6.24988Z" fill="#044396"/>
<path d="M41.0001 61.4844V59.9889C41.0001 54.7589 36.8997 50.5626 32.0001 50.5626C27.1005 50.5626 23.0001 54.7588 23.0001 59.9889V61.5C23.0001 62.1904 22.4405 62.75 21.7501 62.75C21.0598 62.75 20.5001 62.1904 20.5001 61.5V59.9889C20.5001 53.4751 25.6247 48.0626 32.0001 48.0626C38.3755 48.0626 43.5001 53.4752 43.5001 59.9889V61.4844C43.5001 62.1748 42.9404 62.7344 42.2501 62.7344C41.5597 62.7344 41.0001 62.1748 41.0001 61.4844Z" fill="#044396"/>
<path d="M36.4191 42.6117C35.9037 40.172 33.508 38.6121 31.0683 39.1275C28.6286 39.6429 27.0687 42.0385 27.5841 44.4782C28.0995 46.9179 30.4951 48.4778 32.9348 47.9624C35.3745 47.447 36.9345 45.0514 36.4191 42.6117ZM38.8651 42.0949C39.6659 45.8855 37.2422 49.6076 33.4516 50.4084C29.661 51.2092 25.9389 48.7855 25.1381 44.9949C24.3373 41.2044 26.761 37.4823 30.5516 36.6815C34.3422 35.8807 38.0643 38.3044 38.8651 42.0949Z" fill="#044396"/>
<path d="M56.8979 42.5135C56.3287 40.0858 53.8991 38.5792 51.4714 39.1484C49.0436 39.7177 47.537 42.1473 48.1063 44.575C48.6756 47.0028 51.1052 48.5093 53.5329 47.9401C55.9606 47.3708 57.4672 44.9412 56.8979 42.5135ZM59.3319 41.9427C60.2164 45.7147 57.8756 49.4896 54.1037 50.3741C50.3317 51.2586 46.5568 48.9178 45.6723 45.1458C44.7878 41.3738 47.1286 37.599 50.9006 36.7145C54.6726 35.83 58.4474 38.1708 59.3319 41.9427Z" fill="#044396"/>
<path d="M32.0001 31.5321C32.6904 31.5321 33.2501 32.0917 33.2501 32.7821V37.7819C33.2501 38.4723 32.6904 39.0319 32.0001 39.0319H1.25C0.559643 39.0319 0 38.4723 0 37.7819V32.7821C0 32.0917 0.559643 31.5321 1.25 31.5321H32.0001ZM2.49999 36.5319H30.7501V34.0321H2.49999V36.5319Z" fill="#044396"/>
<path d="M21.6543 45.2819C22.3446 45.2819 22.9043 45.8416 22.9043 46.5319C22.9043 47.2223 22.3446 47.7819 21.6543 47.7819H11.5957C10.9053 47.7819 10.3457 47.2223 10.3457 46.5319C10.3457 45.8416 10.9053 45.2819 11.5957 45.2819H21.6543Z" fill="#044396"/>
<path d="M49.9125 7.03002C50.3529 6.49839 51.1408 6.42435 51.6725 6.86474C52.2041 7.30514 52.278 8.09311 51.8376 8.62475L48.4849 12.6723C48.2342 12.9749 47.8558 13.142 47.4634 13.1235L41.7175 12.8526L38.8204 15.8662C38.342 16.3639 37.5507 16.3794 37.053 15.901C36.5553 15.4225 36.5398 14.6312 37.0182 14.1335L40.3086 10.711L40.3566 10.6638C40.6022 10.4344 40.9309 10.3128 41.2686 10.3287L46.9576 10.5968L49.9125 7.03002Z" fill="#044396"/>
<path d="M61.5 59.9889C61.5 54.7589 57.3996 50.5626 52.5 50.5626C47.6004 50.5626 43.5 54.7588 43.5 59.9889C43.5 60.3353 43.3591 60.6487 43.1315 60.875H61.5V59.9889ZM64 62.125C64 62.8154 63.4404 63.375 62.75 63.375H3.75C3.05965 63.375 2.50001 62.8154 2.5 62.125V38.4069C2.5 37.7166 3.05964 37.157 3.75 37.157C4.44035 37.157 5 37.7166 5 38.4069V60.875H41.3686C41.141 60.6487 41.0001 60.3353 41 59.9889C41 53.4751 46.1247 48.0626 52.5 48.0626C58.8754 48.0626 64 53.4752 64 59.9889V62.125Z" fill="#044396"/>
<path d="M17.5609 14.4111C16.5429 11.9389 13.7134 10.7602 11.2412 11.7782C8.76908 12.7963 7.5903 15.6257 8.60833 18.0978C9.6264 20.57 12.4558 21.7489 14.928 20.7308C17.4002 19.7128 18.579 16.8833 17.5609 14.4111ZM19.8728 13.459C21.4166 17.208 19.629 21.4988 15.88 23.0427C12.1311 24.5865 7.84035 22.7988 6.29649 19.0499C4.75267 15.3009 6.54025 11.0103 10.2892 9.46638C14.0381 7.92253 18.3289 9.71008 19.8728 13.459Z" fill="#044396"/>
<path d="M4.17236 32.1569V30.0683C4.17236 25.1644 8.17949 21.1571 13.0836 21.1571C14.9385 21.1571 16.6859 20.7772 18.2553 20.0963V20.0962C19.8968 19.3841 21.3771 18.3332 22.6074 17.0267C24.0243 15.5213 26.3934 15.4491 27.8992 16.866C29.4051 18.2829 29.4774 20.6523 28.0604 22.1583L28.06 22.1587C26.3424 23.9825 24.2884 25.4972 21.9951 26.6059V32.1571C21.9951 32.8474 21.4354 33.4071 20.7451 33.4071C20.0547 33.4071 19.4951 32.8474 19.4951 32.1571V25.8048C19.4951 25.3073 19.7901 24.8572 20.2463 24.6587C22.5302 23.6649 24.5672 22.2211 26.2401 20.4447C26.7104 19.9444 26.6864 19.1575 26.1861 18.6868C25.6858 18.216 24.8985 18.2399 24.4277 18.7403L24.4273 18.7407C22.9706 20.2875 21.2118 21.5388 19.2503 22.3898V22.3896C17.3688 23.206 15.2829 23.6571 13.0836 23.6571C9.56023 23.6571 6.67236 26.5451 6.67236 30.0683V32.1569C6.67236 32.8473 6.11272 33.4069 5.42236 33.4069C4.73201 33.4069 4.17236 32.8473 4.17236 32.1569ZM19.8193 26.6447C19.8185 26.6438 19.8176 26.6427 19.8166 26.6416C19.8157 26.6405 19.8146 26.6396 19.8137 26.6385C19.8157 26.6408 19.8176 26.6429 19.8193 26.6447ZM21.6988 24.9972C21.6952 24.9929 21.6919 24.9889 21.6888 24.9853C21.6922 24.9892 21.6955 24.9932 21.6988 24.9972ZM21.6739 24.9685C21.6724 24.9668 21.6713 24.9654 21.6704 24.9645C21.6695 24.9635 21.6681 24.962 21.6671 24.9609C21.6681 24.962 21.6705 24.9647 21.6739 24.9685Z" fill="#044396"/>
</g>
<defs>
<clipPath id="clip0_0_115">
<rect width="64" height="64" fill="white"/>
</clipPath>
</defs>
</svg>
