<svg width="64" height="64" viewBox="0 0 64 64" fill="none" xmlns="http://www.w3.org/2000/svg">
<g clip-path="url(#clip0_0_84)">
<path d="M42.6684 15.0561C37.2462 21.834 37.6713 21.3025 37.648 21.3316H26.3522C26.3292 21.3029 26.7524 21.8319 21.3318 15.0561H42.6684Z" fill="#C2C9D0"/>
<path d="M32.0001 43.034L36.5073 46.9297L43.8265 38.7115L36.393 37.648V36.3852L36.0125 36.3309L32.0001 39.7412L27.9877 36.3309L27.6072 36.3852V37.648L20.1737 38.7115L27.4928 46.9297L32.0001 43.034Z" fill="#C2C9D0"/>
<path d="M38.9084 59.6122C38.9084 57.7056 38.1361 55.9803 36.8848 54.7289L36.884 54.7282C35.6344 53.4764 33.9095 52.704 32.0001 52.704C30.0908 52.704 28.3659 53.4765 27.1163 54.7282L27.1156 54.7289C25.8642 55.9803 25.0919 57.7057 25.0919 59.6122C25.0919 60.5556 25.2812 61.4528 25.6217 62.2685C25.8876 62.9055 25.5868 63.6377 24.9497 63.9036C24.3126 64.1695 23.5805 63.8686 23.3146 63.2315C22.8493 62.1169 22.5919 60.8928 22.5919 59.6122C22.5919 57.0155 23.6472 54.6617 25.3478 52.9611C27.0476 51.2588 29.4014 50.204 32.0001 50.204C34.5989 50.204 36.9528 51.2588 38.6526 52.9611L38.7318 53.0413C40.3859 54.7353 41.4084 57.0559 41.4084 59.6122C41.4084 60.8928 41.1509 62.1169 40.6857 63.2315C40.4197 63.8685 39.6877 64.1695 39.0507 63.9036C38.4136 63.6377 38.1127 62.9055 38.3787 62.2685C38.7191 61.4528 38.9084 60.5556 38.9084 59.6122Z" fill="#044396"/>
<path d="M30.75 62.7499V59.6122C30.75 58.9219 31.3096 58.3622 32 58.3622C32.6904 58.3622 33.25 58.9219 33.25 59.6122V62.7499C33.25 63.4403 32.6904 63.9999 32 63.9999C31.3096 63.9999 30.75 63.4403 30.75 62.7499Z" fill="#044396"/>
<path d="M36.884 52.9605C37.3722 52.4724 38.1636 52.4724 38.6517 52.9605C39.1399 53.4486 39.1399 54.2401 38.6517 54.7283L32.8839 60.4961C32.3958 60.9843 31.6042 60.9843 31.1161 60.4961C30.628 60.008 30.628 59.2166 31.1161 58.7284L36.884 52.9605Z" fill="#044396"/>
<path d="M25.3483 52.9605C25.8364 52.4723 26.628 52.4723 27.1161 52.9605L32.8839 58.7284C33.3721 59.2166 33.3721 60.008 32.8839 60.4961C32.3958 60.9843 31.6044 60.9843 31.1162 60.4961L25.3483 54.7283C24.8601 54.2401 24.8601 53.4486 25.3483 52.9605Z" fill="#044396"/>
<path d="M20.0817 21.9591V15.0561C20.0817 14.5181 20.426 14.0404 20.9364 13.8702C21.4468 13.7001 22.0089 13.8757 22.3317 14.3061L22.3392 14.3161C22.5369 14.5798 22.6144 14.896 22.5817 15.1997V21.9591C22.5817 27.1602 26.7989 31.3775 32 31.3775C37.2011 31.3775 41.4185 27.1602 41.4185 21.9591V15.2008C41.3854 14.8968 41.463 14.5801 41.6609 14.3161L41.6683 14.3061C41.9911 13.8757 42.5533 13.7001 43.0637 13.8702C43.5741 14.0404 43.9185 14.5181 43.9185 15.0561V21.9591C43.9185 28.5409 38.5819 33.8775 32 33.8775C25.4182 33.8775 20.0817 28.5409 20.0817 21.9591Z" fill="#044396"/>
<path d="M45.1787 13.8061C47.2554 13.8061 48.939 15.4896 48.939 17.5664V17.5665C48.9388 19.643 47.2553 21.3265 45.1787 21.3265H42.6685C41.9781 21.3265 41.4185 20.7669 41.4185 20.0765V15.0561C41.4185 14.3658 41.9781 13.8061 42.6685 13.8061H45.1787ZM43.9185 18.8265H45.1787C45.8745 18.8265 46.4388 18.2623 46.439 17.5664L46.4374 17.5016C46.4036 16.8357 45.853 16.3061 45.1787 16.3061H43.9185V18.8265Z" fill="#044396"/>
<path d="M21.3317 13.8061C22.022 13.8061 22.5817 14.3658 22.5817 15.0561V20.0765C22.5817 20.7669 22.022 21.3265 21.3317 21.3265H18.8214C16.7448 21.3265 15.0614 19.643 15.0612 17.5665V17.5664C15.0612 15.4896 16.7447 13.8061 18.8214 13.8061H21.3317ZM18.8214 16.3061C18.1254 16.3061 17.5612 16.8704 17.5612 17.5664C17.5613 18.2623 18.1256 18.8265 18.8214 18.8265H20.0817V16.3061H18.8214Z" fill="#044396"/>
<path d="M17.5714 62.75V53.23C17.5714 52.5397 18.1311 51.98 18.8214 51.98C19.5118 51.98 20.0714 52.5397 20.0714 53.23V62.75C20.0714 63.4404 19.5118 64 18.8214 64C18.1311 64 17.5714 63.4404 17.5714 62.75Z" fill="#044396"/>
<path d="M43.9286 62.75V53.23C43.9286 52.5397 44.4882 51.98 45.1786 51.98C45.8689 51.98 46.4286 52.5397 46.4286 53.23V62.75C46.4286 63.4404 45.8689 64 45.1786 64C44.4882 64 43.9286 63.4404 43.9286 62.75Z" fill="#044396"/>
<path d="M46.4387 9.21985C46.4387 7.73712 45.2265 6.06978 42.5277 4.69873C39.8981 3.36284 36.1779 2.5 32 2.5C27.8221 2.5 24.1019 3.36284 21.4723 4.69873C18.7735 6.06977 17.5613 7.73712 17.5613 9.21985C17.5613 10.7312 18.8263 12.4327 21.6046 13.8062H42.3954C45.1738 12.4327 46.4387 10.7312 46.4387 9.21985ZM22.2156 14.1785C22.2055 14.1684 22.1945 14.1579 22.1826 14.147C22.1937 14.1573 22.2048 14.1677 22.2156 14.1785ZM41.8159 14.1482C41.8046 14.1587 41.7942 14.1688 41.7845 14.1785C41.7948 14.1682 41.8053 14.1581 41.8159 14.1482ZM22.1617 14.1282C22.1588 14.1256 22.1558 14.1229 22.1527 14.1202C22.1557 14.1229 22.1587 14.1255 22.1617 14.1282ZM41.8473 14.1202C41.8442 14.1229 41.8412 14.1256 41.8383 14.1282C41.8413 14.1255 41.8443 14.1229 41.8473 14.1202ZM48.9388 9.21985C48.9388 12.2692 46.4359 14.6595 43.2379 16.1754C43.0865 16.2541 42.8937 16.3162 42.6609 16.3162C42.6081 16.3162 42.5558 16.3127 42.5043 16.3062H21.4957C21.4442 16.3126 21.3919 16.3162 21.3391 16.3162C21.1058 16.3162 20.9126 16.254 20.7611 16.175C17.5636 14.6591 15.0613 12.2688 15.0613 9.21985C15.0613 6.30098 17.3609 3.98332 20.3401 2.46985C23.3885 0.921234 27.5127 3.91576e-06 32 0C36.4874 0 40.6116 0.921215 43.66 2.46985C46.6392 3.98332 48.9388 6.30098 48.9388 9.21985Z" fill="#044396"/>
<path d="M10.0408 46.5127C10.0408 42.1779 13.2033 38.4932 17.4865 37.8333L17.4998 37.8313L26.3572 36.564V31.6837C26.3572 30.9934 26.9168 30.4337 27.6072 30.4337C28.2975 30.4338 28.8572 30.9934 28.8572 31.6837V37.648C28.8572 38.2699 28.3999 38.7973 27.7842 38.8854L17.8647 40.3045C14.8016 40.7776 12.5408 43.4131 12.5408 46.5127V61.5H51.4592V46.5127C51.4592 43.413 49.1984 40.7775 46.1351 40.3045L36.2158 38.8854C35.6001 38.7973 35.1429 38.2699 35.1429 37.648V31.6837C35.1429 30.9934 35.7026 30.4337 36.3929 30.4337C37.0833 30.4338 37.6429 30.9934 37.6429 31.6837V36.564L46.5004 37.8313L46.5137 37.8333C50.7968 38.4932 53.9592 42.178 53.9592 46.5127V62.75C53.9592 63.4404 53.3996 64 52.7092 64H11.2908C10.6004 64 10.0408 63.4404 10.0408 62.75V46.5127Z" fill="#044396"/>
<path d="M33.2166 25.5874C33.6389 25.0412 34.424 24.9408 34.9701 25.3631C35.5162 25.7854 35.6166 26.5705 35.1944 27.1167C35.2097 27.0968 35.0935 27.2568 34.9579 27.414C34.8141 27.5809 34.6112 27.7927 34.3501 28.0024C33.8314 28.4189 33.0261 28.869 31.9735 28.8621H31.9734C30.9372 28.8553 30.1468 28.4071 29.637 27.994C29.3803 27.786 29.1808 27.5763 29.0391 27.4111C28.9068 27.2569 28.7897 27.0957 28.8058 27.1165C28.3836 26.5704 28.484 25.7854 29.0302 25.3631C29.5763 24.9409 30.3613 25.0413 30.7836 25.5875C30.8551 25.6799 30.9777 25.8626 31.211 26.0516C31.4398 26.237 31.6974 26.3602 31.9899 26.3621C32.2884 26.3641 32.5513 26.2406 32.7848 26.0531C33.0226 25.8621 33.1486 25.6753 33.2166 25.5874Z" fill="#044396"/>
</g>
<defs>
<clipPath id="clip0_0_84">
<rect width="64" height="64" fill="white"/>
</clipPath>
</defs>
</svg>
