<svg width="1440" height="443" viewBox="0 0 1440 443" fill="none" xmlns="http://www.w3.org/2000/svg">
<g clip-path="url(#clip0_113_1530)">
<g filter="url(#filter0_n_113_1530)">
<path d="M2163.22 389.214C2151.72 388.979 2140.23 388.508 2128.75 387.802C2117.3 387.086 2105.87 386.135 2094.45 384.928C2083 383.722 2071.57 382.261 2060.16 380.534C2048.73 378.808 2037.32 376.817 2025.95 374.552C2014.59 372.286 2003.26 369.746 1991.99 366.911C1980.73 364.087 1969.52 360.978 1958.35 357.564C1947.22 354.161 1936.15 350.454 1925.14 346.442C1914.17 342.441 1903.24 338.125 1892.42 333.486C1881.61 328.857 1870.89 323.904 1860.27 318.627C1849.74 313.4 1839.32 307.849 1829.01 301.964C1818.63 296.03 1808.37 289.773 1798.25 283.162C1788.13 276.552 1778.14 269.588 1768.32 262.281C1758.47 254.955 1748.79 247.285 1739.29 239.262C1729.68 231.151 1720.27 222.677 1711.02 213.939C1701.69 205.151 1692.51 196.108 1683.4 186.938C1674.28 177.767 1665.23 168.479 1656.18 159.191C1647.14 149.913 1638.1 140.645 1628.98 131.494C1619.9 122.392 1610.73 113.418 1601.42 104.699C1592.11 95.9894 1582.66 87.5351 1572.98 79.4927C1563.32 71.46 1553.44 63.8099 1543.32 56.7287C1533.52 49.8828 1523.49 43.5666 1513.21 37.9074C1503.14 32.3562 1492.87 27.4229 1482.43 23.0976C1472.01 18.7821 1461.45 15.0748 1450.77 11.9657C1440.09 8.85662 1429.29 6.36543 1418.44 4.46271C1407.55 2.55999 1396.61 1.27516 1385.64 0.598418C1377.38 0.0786031 1369.12 -0.0979381 1360.87 0.0687952L1175.68 3.75654C1183.94 3.58981 1192.2 3.76635 1200.45 4.28617C1211.42 4.97271 1222.37 6.24773 1233.25 8.15045C1244.11 10.0532 1254.9 12.5444 1265.58 15.6534C1276.26 18.7625 1286.83 22.4699 1297.24 26.7853C1307.67 31.1106 1317.95 36.0439 1328.02 41.5952C1338.29 47.2543 1348.33 53.5705 1358.13 60.4164C1368.26 67.4977 1378.14 75.138 1387.8 83.1804C1397.46 91.2228 1406.93 99.6772 1416.23 108.387C1425.55 117.096 1434.71 126.08 1443.79 135.182C1452.91 144.332 1461.96 153.611 1471 162.879C1480.05 172.167 1489.09 181.455 1498.21 190.625C1507.32 199.796 1516.5 208.838 1525.83 217.626C1535.1 226.355 1544.5 234.839 1554.1 242.95C1563.6 250.973 1573.28 258.643 1583.13 265.969C1592.95 273.276 1602.94 280.24 1613.06 286.85C1623.19 293.451 1633.45 299.718 1643.83 305.652C1654.13 311.536 1664.55 317.088 1675.08 322.315C1685.7 327.592 1696.43 332.545 1707.23 337.174C1718.06 341.803 1728.97 346.129 1739.95 350.13C1750.96 354.151 1762.04 357.849 1773.17 361.252C1784.32 364.665 1795.53 367.784 1806.8 370.599C1818.08 373.434 1829.41 375.974 1840.76 378.239C1852.13 380.505 1863.54 382.496 1874.97 384.222C1886.37 385.948 1897.81 387.4 1909.27 388.616C1920.69 389.822 1932.12 390.774 1943.56 391.49C1955.04 392.196 1966.54 392.667 1978.03 392.902C1989.86 393.147 2001.7 393.128 2013.52 392.902L2198.71 389.214C2186.88 389.45 2175.05 389.469 2163.22 389.214Z" fill="url(#paint0_linear_113_1530)"/>
</g>
<g filter="url(#filter1_n_113_1530)">
<path d="M687.918 438.338C676.747 438.034 665.576 437.171 654.456 435.788C643.285 434.415 632.165 432.522 621.105 430.149C609.968 427.766 598.891 424.892 587.909 421.557C576.892 418.223 565.962 414.417 555.134 410.19C544.298 405.953 533.573 401.284 522.978 396.214C512.425 391.163 501.993 385.71 491.698 379.864C481.429 374.028 471.297 367.81 461.32 361.219C451.034 354.413 440.911 347.253 430.917 339.779C420.871 332.267 410.972 324.44 401.21 316.329C391.456 308.228 381.858 299.842 372.388 291.221C362.935 282.619 353.637 273.773 344.451 264.72C335.23 255.628 326.147 246.311 317.175 236.836C308.187 227.333 299.31 217.642 290.545 207.815C281.762 197.968 273.083 187.964 264.498 177.852C255.931 167.76 247.458 157.55 239.062 147.252C230.615 136.885 222.245 126.43 213.918 115.886C205.599 105.362 197.341 94.7503 189.109 84.099C180.893 73.4574 172.704 62.7669 164.549 52.0567C156.411 41.3564 148.29 30.6462 140.17 19.9263L-45 23.6336C-36.8793 34.3438 -28.7672 45.0638 -20.6207 55.7641C-12.4656 66.4743 -4.2847 77.1648 3.93914 87.8063C12.163 98.4576 20.4212 109.06 28.7481 119.594C37.0665 130.127 45.445 140.592 53.8923 150.959C62.2966 161.257 70.761 171.477 79.3286 181.559C87.9134 191.671 96.5927 201.675 105.375 211.522C114.14 221.35 123.009 231.03 132.006 240.544C140.977 250.028 150.061 259.336 159.281 268.427C168.459 277.48 177.765 286.327 187.218 294.928C196.679 303.549 206.287 311.935 216.04 320.036C225.794 328.138 235.693 335.964 245.747 343.487C255.742 350.96 265.865 358.12 276.151 364.927C286.119 371.518 296.259 377.736 306.528 383.571C316.814 389.417 327.255 394.86 337.808 399.921C348.412 405.002 359.137 409.67 369.964 413.897C380.792 418.134 391.723 421.93 402.739 425.265C413.73 428.599 424.799 431.473 435.936 433.856C446.995 436.23 458.115 438.123 469.286 439.496C480.415 440.869 491.577 441.732 502.749 442.046C505.421 442.124 508.085 442.164 510.758 442.173C513.43 442.183 516.094 442.173 518.767 442.114L703.954 438.427C698.617 438.535 693.281 438.505 687.944 438.358L687.918 438.338Z" fill="url(#paint1_linear_113_1530)"/>
</g>
<g filter="url(#filter2_n_113_1530)">
<path d="M1171.12 3.83492C1167.82 3.90358 1164.52 4.02127 1161.23 4.19781C1150.28 4.77647 1139.35 5.95341 1128.48 7.72863C1117.64 9.49404 1106.85 11.8479 1096.18 14.8001C1085.54 17.7326 1075.01 21.2634 1064.62 25.3827C1054.18 29.5216 1043.9 34.249 1033.81 39.5747C1023.75 44.8905 1013.87 50.7654 1004.25 57.2484C1001.88 58.8471 999.524 60.4752 997.178 62.1425C996.387 62.7114 995.605 63.2998 994.806 63.8687C993.268 64.9868 991.721 66.0951 990.191 67.2426C990.131 67.2916 990.071 67.3308 990.002 67.3799C988.559 68.4588 987.141 69.5769 985.714 70.6851C984.975 71.254 984.236 71.813 983.506 72.3917C981.289 74.1375 979.089 75.9127 976.897 77.7174C968.356 84.7594 960.037 92.2133 951.917 100.001C943.762 107.818 935.813 115.958 928.027 124.344C920.199 132.769 912.542 141.458 905.014 150.315C897.495 159.171 890.105 168.185 882.792 177.326C875.427 186.525 868.149 195.833 860.904 205.18C853.643 214.537 846.425 223.933 839.198 233.328C832.005 242.656 824.804 251.973 817.534 261.202C810.255 270.451 802.917 279.612 795.466 288.635C788.05 297.609 780.522 306.436 772.831 315.057C765.226 323.58 757.466 331.897 749.517 339.91C741.543 347.953 733.379 355.691 724.992 363.047C723.016 364.773 721.03 366.48 719.028 368.167C718.384 368.716 717.731 369.246 717.078 369.785C715.72 370.923 714.353 372.051 712.987 373.159C712.205 373.787 711.423 374.404 710.641 375.032C709.378 376.033 708.123 377.033 706.851 378.023C706.026 378.671 705.193 379.299 704.359 379.936C702.649 381.24 700.931 382.545 699.203 383.81C690.077 390.509 680.719 396.688 671.129 402.268C661.057 408.124 650.728 413.312 640.219 417.843C629.803 422.345 619.199 426.18 608.475 429.387C597.785 432.585 586.974 435.154 576.095 437.106C565.156 439.068 554.139 440.411 543.105 441.186C537.734 441.559 532.355 441.804 526.967 441.912L712.154 438.224C717.533 438.116 722.912 437.881 728.292 437.498C739.326 436.723 750.342 435.38 761.282 433.418C772.161 431.466 782.963 428.897 793.662 425.699C804.377 422.492 814.982 418.657 825.405 414.156C835.915 409.624 846.236 404.446 856.316 398.581C865.906 393 875.264 386.821 884.39 380.122C885.473 379.328 886.547 378.524 887.63 377.719C888.274 377.239 888.91 376.739 889.546 376.248C890.38 375.611 891.213 374.973 892.038 374.336C893.31 373.355 894.573 372.355 895.828 371.344C896.61 370.717 897.392 370.099 898.174 369.471C899.549 368.363 900.907 367.235 902.264 366.097C902.917 365.558 903.57 365.018 904.215 364.479C906.217 362.792 908.202 361.085 910.179 359.359C918.566 352.003 926.73 344.265 934.704 336.223C942.662 328.21 950.421 319.883 958.018 311.369C965.7 302.748 973.228 293.921 980.653 284.947C988.103 275.924 995.451 266.763 1002.72 257.515C1009.99 248.285 1017.19 238.968 1024.38 229.641C1031.62 220.255 1038.83 210.859 1046.09 201.492C1053.34 192.136 1060.62 182.828 1067.98 173.638C1075.29 164.507 1082.68 155.484 1090.2 146.627C1097.73 137.771 1105.39 129.081 1113.21 120.656C1121 112.261 1128.95 104.12 1137.1 96.313C1145.22 88.5256 1153.54 81.0618 1162.08 74.0296C1164.27 72.225 1166.48 70.4498 1168.69 68.704C1169.42 68.1351 1170.15 67.576 1170.88 67.017C1172.38 65.8597 1173.87 64.6925 1175.38 63.5646C1176.91 62.4171 1178.45 61.3088 1179.99 60.1908C1180.78 59.6219 1181.57 59.0236 1182.36 58.4646C1184.7 56.7972 1187.07 55.1691 1189.44 53.5705C1199.06 47.0973 1208.94 41.2126 1219 35.8967C1229.08 30.5711 1239.36 25.8437 1249.81 21.7048C1260.19 17.5855 1270.73 14.0547 1281.37 11.1221C1292.04 8.16999 1302.83 5.82591 1313.66 4.05069C1324.53 2.27548 1335.46 1.09853 1346.42 0.519872C1349.71 0.343331 1353.01 0.225637 1356.3 0.156982L1171.12 3.84473V3.83492Z" fill="#044396"/>
</g>
</g>
<defs>
<filter id="filter0_n_113_1530" x="1175.68" y="0.00805664" width="1023.03" height="393.071" filterUnits="userSpaceOnUse" color-interpolation-filters="sRGB">
<feFlood flood-opacity="0" result="BackgroundImageFix"/>
<feBlend mode="normal" in="SourceGraphic" in2="BackgroundImageFix" result="shape"/>
<feTurbulence type="fractalNoise" baseFrequency="1 1" stitchTiles="stitch" numOctaves="3" result="noise" seed="5530" />
<feColorMatrix in="noise" type="luminanceToAlpha" result="alphaNoise" />
<feComponentTransfer in="alphaNoise" result="coloredNoise1">
<feFuncA type="discrete" tableValues="1 1 1 1 1 1 1 1 1 1 1 1 1 1 1 1 1 1 1 1 1 1 1 1 1 1 1 1 1 1 1 1 1 1 1 1 1 1 1 1 1 1 1 1 1 1 1 1 1 1 1 0 0 0 0 0 0 0 0 0 0 0 0 0 0 0 0 0 0 0 0 0 0 0 0 0 0 0 0 0 0 0 0 0 0 0 0 0 0 0 0 0 0 0 0 0 0 0 0 0 "/>
</feComponentTransfer>
<feComposite operator="in" in2="shape" in="coloredNoise1" result="noise1Clipped" />
<feFlood flood-color="rgba(0, 0, 0, 0.15)" result="color1Flood" />
<feComposite operator="in" in2="noise1Clipped" in="color1Flood" result="color1" />
<feMerge result="effect1_noise_113_1530">
<feMergeNode in="shape" />
<feMergeNode in="color1" />
</feMerge>
</filter>
<filter id="filter1_n_113_1530" x="-45" y="19.9263" width="748.954" height="422.25" filterUnits="userSpaceOnUse" color-interpolation-filters="sRGB">
<feFlood flood-opacity="0" result="BackgroundImageFix"/>
<feBlend mode="normal" in="SourceGraphic" in2="BackgroundImageFix" result="shape"/>
<feTurbulence type="fractalNoise" baseFrequency="1 1" stitchTiles="stitch" numOctaves="3" result="noise" seed="5530" />
<feColorMatrix in="noise" type="luminanceToAlpha" result="alphaNoise" />
<feComponentTransfer in="alphaNoise" result="coloredNoise1">
<feFuncA type="discrete" tableValues="1 1 1 1 1 1 1 1 1 1 1 1 1 1 1 1 1 1 1 1 1 1 1 1 1 1 1 1 1 1 1 1 1 1 1 1 1 1 1 1 1 1 1 1 1 1 1 1 1 1 1 0 0 0 0 0 0 0 0 0 0 0 0 0 0 0 0 0 0 0 0 0 0 0 0 0 0 0 0 0 0 0 0 0 0 0 0 0 0 0 0 0 0 0 0 0 0 0 0 0 "/>
</feComponentTransfer>
<feComposite operator="in" in2="shape" in="coloredNoise1" result="noise1Clipped" />
<feFlood flood-color="rgba(0, 0, 0, 0.15)" result="color1Flood" />
<feComposite operator="in" in2="noise1Clipped" in="color1Flood" result="color1" />
<feMerge result="effect1_noise_113_1530">
<feMergeNode in="shape" />
<feMergeNode in="color1" />
</feMerge>
</filter>
<filter id="filter2_n_113_1530" x="526.967" y="0.156982" width="829.336" height="441.755" filterUnits="userSpaceOnUse" color-interpolation-filters="sRGB">
<feFlood flood-opacity="0" result="BackgroundImageFix"/>
<feBlend mode="normal" in="SourceGraphic" in2="BackgroundImageFix" result="shape"/>
<feTurbulence type="fractalNoise" baseFrequency="1 1" stitchTiles="stitch" numOctaves="3" result="noise" seed="5530" />
<feColorMatrix in="noise" type="luminanceToAlpha" result="alphaNoise" />
<feComponentTransfer in="alphaNoise" result="coloredNoise1">
<feFuncA type="discrete" tableValues="1 1 1 1 1 1 1 1 1 1 1 1 1 1 1 1 1 1 1 1 1 1 1 1 1 1 1 1 1 1 1 1 1 1 1 1 1 1 1 1 1 1 1 1 1 1 1 1 1 1 1 0 0 0 0 0 0 0 0 0 0 0 0 0 0 0 0 0 0 0 0 0 0 0 0 0 0 0 0 0 0 0 0 0 0 0 0 0 0 0 0 0 0 0 0 0 0 0 0 0 "/>
</feComponentTransfer>
<feComposite operator="in" in2="shape" in="coloredNoise1" result="noise1Clipped" />
<feFlood flood-color="rgba(0, 0, 0, 0.1)" result="color1Flood" />
<feComposite operator="in" in2="noise1Clipped" in="color1Flood" result="color1" />
<feMerge result="effect1_noise_113_1530">
<feMergeNode in="shape" />
<feMergeNode in="color1" />
</feMerge>
</filter>
<linearGradient id="paint0_linear_113_1530" x1="1825.5" y1="215.5" x2="1428.57" y2="71.5497" gradientUnits="userSpaceOnUse">
<stop stop-color="white" stop-opacity="0"/>
<stop offset="1" stop-color="#D2D7DD"/>
</linearGradient>
<linearGradient id="paint1_linear_113_1530" x1="142" y1="205.313" x2="486.496" y2="437.69" gradientUnits="userSpaceOnUse">
<stop stop-color="white" stop-opacity="0"/>
<stop offset="1" stop-color="#D2D7DD"/>
</linearGradient>
<clipPath id="clip0_113_1530">
<rect width="2244" height="443" fill="white" transform="translate(-45)"/>
</clipPath>
</defs>
</svg>
